<?xml version="1.0" encoding="UTF-8"?>
<svg id="Capa_1" data-name="Capa 1" xmlns="http://www.w3.org/2000/svg" viewBox="0 0 206.11 756.48">
  <defs>
    <style>
      .cls-1 {
        fill: #323842;
      }

      .cls-1, .cls-2 {
        stroke-width: 0px;
      }

      .cls-2 {
        fill: #fff;
      }
    </style>
  </defs>
  <g>
    <path class="cls-2" d="m18.27,13.35s.02,0,0,0l.14-.03s-.04,0-.15.03Z"/>
    <path class="cls-2" d="m84.64,334.34c-.24.05.41-.01,0,0h0Z"/>
    <path class="cls-2" d="m196.95,330.7c.79-.66,10-9.12,9.1-9.99-2.76-2.82-12.49,8.89-14.29,10.55-2.29,2.1-4.64,2.97-7.21,4.57-8.01,5.01-18.75,7.29-28.55,9.04-10.71,1.91-23.24,8.52-31.5,15.62-4.68,4.02-9.01,8.52-12.91,13.21-1.95,2.34-3.89,4.74-5.69,7.19-1.23,1.68-.29,3.28-1.1,4.39-.7-13.84-1.01-27.66-2.96-41.42-1.53-10.78,7.28-22.77,12.65-31.96,8.01-13.7,19.57-25.19,32.3-34.39,2.17-1.56,4.68-4.66,7.41-4.04,3.56.67,7.51,1.86,11.15,1.58.42-.03,7.85-2.49,5.17-3.15-1.58-.39-2.69-.56-4.42-.84.74-.06,10.75-1.57,7.85-3.02,5.26-1.35,8.51-3.71,12.02-6.64,3.22-2.72-7.7-1.06-6.52.42.67.85,2.42-2.07,3.13-1.11.62.81-6.96,3.5-7.22,3.6.54-.41,4.86-4.46,3.12-4.73-2.11-.34-8.84,4.27-10.56,5.84-2.2,1.98-5.28,4.89.05,2.6.06.32.13.22.32.44-2.6.56-5.24,1.4-7.88,1.74,2.07-.43,11.64-10.22,10.49-10.62-2.1-.72-6.88,4.61-8.18,5.94-2.78,3.15-6.87,4.65-10.28,7.05.17-.72,1.21-1.76,1.59-2.26-.21.89,3.48-1.45,3.92-2.39.4-.79,8.61-9.97,6.19-10.27-1.77-.28-8.72,9.6-10.08,11.23-1.7,2.17-2.15,4.05-4.35,5.3-2.48,1.4-5.68,2.93-7.7,4.68.33-.33.58-.71.76-1.15.11.5,5.66-7.96,5.83-8.26,1.35-2.42,4.05-6.05,4.62-8.85.52-2.31-5.12,4.09-5.39,4.5.31-1.79,1.57-3.74,1.75-5.61-.01.2,1.53-4.85-.42-2.63-1.1,1.25-.65,2.88-1.41,4.3-.48.89-1.14,1.58-1.81,2.33-1.16.86-2.21,2.98-3.07,5.45-1.78,4.2-4.71,11.71-3.13,12.07-8.28,7.65-15.3,15.45-21.95,24.6-6.27,8.62-13.7,18.53-16.59,28.88-1.56-1.21-1.34-9.53-1.59-11.71-.57-5.05-1.29-10.09-1.79-15.15-1.18-12.09-2.14-23.91-3.75-35.97-2.26-16.89-2.87-34.38-6.01-50.73,4.52-1.25,9.44,6.31,11.3,9.62,2.68,4.76,3.22,10.64,6.71,15.26,2.12,2.81,4.28,5.65,6.65,8.24,2.18,2.37,1.72-.74,1.2-2.04-2.07-4.57-4.78-8.37-7.65-12.38.99.37,5.07,4.13,5.44,3.26.23-.56-2.17-1.78-2.52-2.15.63.23,6.06,3.19,5.86,2.09.05.26-1.5-2.09-1.32-1.89-1.7-1.92-5.01-3.01-7.12-4.67,2.51,1.24-.65-1.32-1.23-1.79,1.46-.27-.14-2.49-.58-2.63-3.43-1.09-3.34.37-5.36-2.77-1.84-2.87-3.9-5.52-6.42-7.82-2.27-2.08-7.7-1.55-5.31-6,7.27-.84,13.36-7.22,20.19-9.67,7.44-2.66,17.18-6.54,24.99-3.7-.56-.02-.88.23-.96.76.09.25,4.25-.49,3.44.5-1.97,2.04,7.46,8.02,8.74,8.83,1.3.82,3.63,2.8,5.42,1.84.48-.27-1.3-4.58-1.75-5.17,1.34.85,10.33,6.97,10.34,3.93.28.74.75,1.04,1.42.91.62-.6-2.18-2.75-2.58-3.12,4.59,2.86,10.33,3.67,3.34-2.1-4.94-4.08-12.38-7.91-18.55-7.49-4.25-1.37-6.87-.07-10.53-.33-4.28-.31-10.19-.49-14.22,1.08-5.04,1.97-10.07,3.76-15.08,5.81-4.91,2.02-8.28,5.64-13.67,6.97,5.75-10.13,11.86-19.9,19.82-28.44,3.39-3.77,9.41-4.39,14.24-5.99.78-.28,6.52-3.07,5.96-4.26-.95-1.46-5.6.42-6.68.86,2.85-1.36,5.29-3.19,7.62-5.17.6-.43,1.17-.9,1.74-1.38.74-.63,1.44-1.33,2.13-2.01-.06.03-.1.06-.15.09,2.11-1.91,4.25-3.79,6.62-5.42-.61.47-2.88,2.26-2.25,2.83.93.84,7.35-7.09,6.7-6.93,2.3-1.59,0-5.35-1.64-2.21-.59,1.1-1.14,0-2.04.87-1.96,1.91-3.33,4.1-5.71,5.6,1.49-1.87,6.66-10.53.78-5.86-3.02,2.4-12.33,10.92-10.88,14.87-.82.59-4.61,5.13-3.07,4.78-2,.85-3.48,1.88-5.45,2.78,3.56-5.16,6.58-10.78,8.34-16.83.15-.53.39-1.5-.4-1.67-1.6-.34-2.34,3.49-2.75,4.29-.24.63-.56,1.25-.87,1.87-.27.54-.52,1.09-.82,1.62-1.47,2.64-3.24,5.24-4.46,7.95.45-1.31,2.49-11.25.71-8.92-1.35,1.78-4.94,12.56-4.44,12.37-.27.88-2.65,2.93-2.49,3.31.47,1.36-6.46,7.34-7.53,8.66-3.03,3.73-6,7.56-8.69,11.55-1.96,2.92-3.23,8.27-5.74,10.36-2.6-11.42-5.39-22.94-8.22-34.84.12-1.39-.9-3.32-1.15-4.67,1-1.62,1.09-4.77,1.68-6.62,2.05-6.41,8.08-11.88,11.53-17.66-1.55,3.35,2.57.34,1.15-.37,2.63-3.72,6.43-7.73,9.76-10.84-.05.11-.43.6-.59.98.8-1.24,6.19-4.25,6.55-4.42,2.39-1.15,6.06-4.04,8.65-4.21,2.96-.19,2.5-.76,4.57-2.18,2.34-1.6,5.7-3.16,8.3-5.05,5.07-3.68,8.55-6.96,8.82-13.96.15-3.92-2.54.13-3.33,1.57-1.71,3.11-3.82,6.49-6.42,8.94,1.94-3.18,2.42-9.31-2.22-5.83-5.07,4.61-7.13,11.3-12.92,14.94,1.64-2.77,3.51-6.29,3.74-9.56.12-2.16,3.25-5.99-2.68-2.53-2.11,1.24-9.05,14.7-6.61,15.33-.77.36-1.64.46-2.36.92.2-2.41,1.66-7.65-2.16-7.87-.18,0-3.73,11.83-5.39,13.4-1.63,1.5-2.2,3.86-3.89,5.4-2.63,2.39-4.97,5.09-7.17,7.9-4.31,5.51-7.28,10.89-9.57,17.5-.6-5.43-.55-10.72-.31-16.17.37-1.8,4.11-14.21,4.79-13.73-2.04-1.17,4.5-3.47,4.31-3.31,2.05-1.11,9.28-5.74,5.01-7.98-1.34-.72-6.21,5.89-7.4,6.9.38-.88,1.54-3.05,1.69-3.55.4-1.35.31-4.9-.3-6.17-1.77-3.72-5.01,9.16-5.03,10.27-.03,4.05-.79,6.98-2.39,10.95-2.16,5.27-1.22,10.84-2.4,16.28-2.52-10.3-5.32-20.47-7.87-30.75.75.63.33,3.05,1.25,2.92,1.02-.13,1.23-4.22.25-3.59.15-3.88.69-8.32,2.44-12.44,2.86-6.72,5.82-12.98,11.25-18.09,2.28-2.15,4.83-4.04,7.14-6.17.7-.64,3.5-2.02,3.79-2.95-.19,2.87,6.81-2.02,7.75-2.66,3.38-1.28,8.89-5.29,2.54-3.41.18-.17,2.07-2.19,1.07-2.54-.4-.14-2.94,3.35-3.58,3.7,1.34-1.78,9.03-13.35,6.58-14.23-3.26-1.16-9.06,12.29-10.6,14.66.25-2.58.31-4.91.98-7.47.84-3.22-2.33-.62-2.95.62-1.57,3.17-3.39,7.34-3.12,10.94.04.57-4.76,4.38-5.15,4.77-2.83,2.56-5.22,4.12-7.75,7.12-2.49,2.96-4.47,5.73-6.12,9.2-2.97,6.23-4.8,12.21-5.11,18.75-3.06-4.91-4.17-10.59-3.73-16.29.17-2.18.5-4.68,1.39-6.7.52.24,1.38-.83,1.52-1.24.03.66.34,1.01.93,1.06.2-.1,1.38-3.17,1.57-3.49-2.44,5.33,1.79.33,2.94-1.61-.34.98-3.71,5.41-3.53,5.82.63,1.45,3.97-5.74,4.29-6.7,1.15-3.26,2.98-7.89,3.05-11.35.1-2.6-2.73,2.97-2.75,3.01-1.02,2.33-2.32,3.68-3.76,5.71,1.72-4.14.06-6.22-2.11-1.39-.06-.51-.53-3.71-1.41-2.85-.22.18-1.54,2.55-1.62,2.85-1.07.32.09,7.95.43,9.2-1.87,2.16-1.85,7.53-1.92,10.15-1.54-4.56-3.7-8.86-5.18-13.45-.64-1.97-2-4.47-1.84-6.62.38-1.24,1.13-3.74,1.07-2.69.41-8.62,3.26-19.6,8.02-26.91,2.86-3.97,5.99-8.07,9.24-11.73,1.78-1.96,2.29-3.43,5.08-3.27,2.13.12,3.87-.22,5.6-1.47.61-.44,5.9-4.35,3.97-4.64-1.25-.19-5.41,1.2-6.24,1.37.44-.34,4.36-5.77,2.84-5.05-1.05.54-1.08,1.49-2.28,2.04.18-.69-1.16-.6-1.46-.45.3-.65,2.95-8.52.64-7.78-1.81.6-2.41,1.67-3.42,3.89-1.44,1.32-6.64,12.49-2.14,10.7-3.71,3.97-7.7,8.6-10.97,13.67-4.02,5.75-6.08,13.9-8.04,20.74.58-6.37,2.21-11.71,4.73-17.07,2.54-5.41,7.33-9.5,9.44-15.3.67,1.89,2.43-.26,2.53-1.37.08-.88,1.03-9.11.06-9.3-.05-.84-1.74-10.1-2.28-7.16-1.46-.44-2,11.59-2.05,12.5-.08,1.51,2.15,4.66.54,5.72-1.7,1.16-2.34,4.76-3.51,6.44-1.11,1.59-2.37,2.98-3.62,4.45-5.58,6.52-7.62,18.75-8.5,27.17-5.44-6.59-7.6-17.56-11.03-25.67.48-8.5-1.47-17.65,2.4-25.62-.82,2.17-3.39,22.41-1.58,22.21.77-.09.51-12.93.62-14.41.13-1.81,1.02-9.82,2.97-10.6-.17.34-.12.62.15.83.31.03,1.08-6.8,1.1-7.14.19-3.28,3.86-4.41,5.63-7.18.42-.64,4.39-6.84,3.45-7.17-.97-.33-4.29,3.66-4.87,4.59.45-1.15,2.7-12.39.92-11.94-.11-2.46-1.61-2.57-2.19,1.17-.55,2.98-.81,5.98-.99,9-.03.55-1.04,3.65-1.02,3.68.37.69,1.01-.23,1.12-.39.02,1.88-1.61,2.55-2.08,4.14-.03.16-1.03,1.04-1.06,1.63-.19,2.88-.08,6.19-1.14,8.94,1.26-7.23-1.4-14.01-1.71-21.17,1.58,2.35.99,6.71,1.51,9.47.73,3.9,1.83.44,1.69-1.72-.13-2.38.17-3.27-.99-5.56-.26-1.06-2.58-8.34-2.06-3.45-.26-.38-1.36-3.31-1.67-.73-.76,3.92,1.98,9.64,2.32,13.74.65,6.07-.75,9.82-2.11,15.59-1.57,6.68-.89,13.51-1.16,20.29-2.08-5.09-4.57-12.61-6.33-16.33-1.43-.16-4.91-9.53-5.6-11.29-.94-2.39-1.27-5.53-2.09-8.36.07.04.14.03.2-.02.28.91,1.61,5.72,2.14,5.49.2-.09-1.24-7.72-1.16-9.21.06.34.25,2.87.7,2.8.16-.02-.55-11.43-3.21-11.69-2-.14,0,8.03.02,8.7-2.06-2.06-3.89-7.61-5.17-10.23,1.43-2.03.36-5.2-.46-7.43.78,1.17,2.74,9.35,2.41,9.36,1.77-.08-1.46-11.5-4.65-12.45-1.3-.45.46,7.24.73,8.04,1.31,3.82,3.69,7.2,5.39,10.86-2.99-3.25-5.11-7.67-8.07-10.71-.36-.49.57,2.36.66,2.51,1.61,2.62,3.23,5.13,4.67,7.58-5.4-4.88-9.8-7.52-13.42-13.76.78,1.03,5.14,5.74,5.1,6.45.47-.11,2.06-1.13.88-1.81-1.42-2.65-3.82-6.14-6.27-7.95-2.78-1.91-1.28,2.24-.76,3.16-1.28-.44,2.91,5.78,3.5,6.24,2.65,2.09,4.51,1.71,7.16,4.9,1.63,1.97,4,3.3,5.42,5.3.97,1.33,1.56,3.7,2.44,5.58,2.66,5.58,4.67,11.44,7.48,16.98-3.76-1.81-16.43-.25-16.1-5.97.22-2.5-4.38-7.34-5.99-8.21-1.99-1.1,1.63,6.83,2.03,7.48-.98.07-2.42-1.51-3.94-3.35.03.01.04,0,.07.02-.17-.17-.1-.09-.04-.04-.07-.07-.14-.13-.21-.2-1.69-2.06-3.45-4.36-4.74-5.06-1.31-.71-1.03,1.13-.69,1.7,1.73,2.88,3.83,5.67,6.75,7.41-.26.08-.29.33-.27.56-.88-.12-5.39-3.26-3.5-.37,1.01,1.55,11.32,6.41,11.02,2.82,3.28,2.17,5.67,2.26,9.26,2.68,7.04.81,7.74,3.27,10.24,9.71,4.19,10.79,9.11,21.48,12.52,32.54-1.56-1.56-3.36-3.03-5.37-3.99-2.53-1.21-.87-1.06-2.24-3.4-1.72-3.16-1.11-12.69-6.32-13.59-3.47-.6,1.56,9.44,1.57,11.75-2.34-1.45-10.36-16.57-12.66-14.41-1.74,1.77,6.42,11.22,7.88,12.87,2.98,3.35,7.14,5.47,10.8,8.01-5.77-2.44-10.54-3.07-16.28-.71-3.04-.27-6.38,2.4-7.78.19,3.52-.21-1.43-2.6-2.45-2.82-2.38-.53-4.74-2.45-6.95-3.42-2.45-1.09,2.49,4.5,3.24,5.57-.72-.13-1.71-.15-2.76-.39-.79-.38-1.66-.78-2.5-1.16-1.69-1.22-7.77-5.08-6.46-.57-.98-.13-3.89,2.23-3.23,2.48,4.25,1.55,8.83,4.53,13.48,5.17-.87.52-3.24-.04-4.1.05-.81.08-4.86,2.27-2.65,2.89,1.47.41,11.24-1.9,11.29-1.67-.32-.28-.67-.42-1.06-.45,1.89-.18,5.84-.6,2.85-2.23,2.01-.62,7.41-3.18,9.42-2.76,1.24.26,9.72.73,9.75.18.04-.65-7.47-.84-8.43-.91,5.6-2.85,17.72.65,21.57,5.14,4.04,12.08,8.69,23.98,12.17,36.24-2.28-1.7-4.86-2.14-7.31-3.47-1.56-1.2-3.7-3.83-5.78-3.87-3.31-.07-6.31-.39-9.61-.75-1.36-.15-6.85-1.39-7.19-1.22-.25.29-.27.57-.06.83-.45.03-.9.17-1.32-.02,1.91.06-4.29-4.47-4.84-4.82-.18-.11-6.26-3.2-5.59-1.78,1.85,4.27,7.7,6.36,10.71,7.64-3.39.15-6.26,0-9.1-1.22,1.51-.66-5.07-3.1-5.23-3.19.69.26,6.63,2.66,6.64,2.37.09-.08-11.5-7.54-13.23-7.41-3.56.28,3.3,5.92,4.17,6.39,2.44,1.33,5.23,1.25,7.6,2.58-2.42-.15-4.83.59-7.57.25-.72-.09-8.16-1.27-3.84.27-1.52-.16-3.34-.01-4.77-.52-.58-.19-3.03-1.96-3.24-1.94-1.62.13,1.65,2.3,2.05,2.41-.09.02-.16.07-.21.15-.12-.06-.72-.47-.75-.47-1.68.13,2.55,2.03,2.5,2.01,2.18.69,4.33.93,6.59.82,1.85-.08,6.07-.48,7.64-1.44,1.41-1.1,7.81-.19,9.86-.21,5.71-.06,10.67.79,16.34,1.09,3.98.21,8.21,2.57,11.27,4.98,1.88,1.52,3.72,3.05,5.54,4.64.94,3.15,1.79,6.34,2.8,9.47-1.76,2.43,2.98,11.88,3.58,14.47.8,3.42,1.24,6.92,2.07,10.34.38,1.57-.53,4.22.15,5.47-7.41-10.45-16.65-15.21-27.71-20.74-2.58-1.29-5.18-2.56-7.82-3.72-2.03-.89-5.25-3.09-7.35-3.23-2.28-2.04-3.98-2.87-6.76-1.39-1.13.62-5.16,1.15-3.56,3.17-3.47.94-3.09,3.52.25,3.29.82-.06,8.22-1.52,7.58-2.62,1.25-.92-4.4-.53-4.79-.55,2.28-.5,3.9-1.19,5.24-.1.57.46.89-.5.75-.81,2.85.77,4.27,1.53,7.01,3.06-2.46,2.3-5.69,2.82-8.52,4.35.47-.64,7.88-3.45,6.87-4.23-.65-.49-6.84,3.01-7.42,3.68-.75.87-1.98,6.55.42,5.24,1.21-.66,2.69-3.97,3.83-4.07.84-.07,6.72-2.92,5.15-4.14.8-.81,4.02,1.52,5.05,2.1-2.61,1.03-7.61,5.25-4.63,9.37,1.75,2.59,3.76-1.47,6.02-3.61.72,3.48,2.88-.72,3-2.05.04-.65,5.21,1.51,5.88,1.83-.75.45-6.86.57-6.33,2.02.29.88,2.63.22,3.25.04-.88.52-1.09,4.9-.29,4.63-.1,1.91,6.86-2,7.33-4.37,7.41,4.65,18.7,11.58,20.43,20.81,1.29,6.85,3.01,13.63,4.3,20.49.63,3.33,1.28,6.66,1.95,9.98.38,1.87,2.28,7.25,1.47,8.91-.02-.03-.78-2.52-1.6-2.09-.84.44,1.28,2.73.99,3.54-.08-.22-.21-.44-.31-.66,0,0,.01-.01.02-.02,0,0,0,0-.02.02-.72-1.54-1.97-3.02-3.59-3.96-3.21-1.85-7.11.3-10.42.68-2.89.32-6.3-.19-9.06.34-5.36,1.04-12.66-1.42-18-2.41-2.8-.52-5.64-.73-8.44-1.24-3.3-.61-2.31-3.11-2.75-6.02,1.33,1.76.57-3.48.65-3.12-.69-2.86-1-6.94-2.85-9.35-1.48-1.99-1.63,3.97-1.56,4.47.24,1.59,2.15,10.81,2.81,10.64-.06.02-2.59-12.4-1.81-14.44,1.08,1.95,1.53,4.33,2.12,6.46-.65-1.89-.92,1.01-.81,1.63.71,2.92.73,5.89,1.16,8.83-3.28-1.46-3.03-9.02-6.34-11.84-2.54-2.28,1.03,7.98,1.74,9.44.13.06-2.18-1.24-1.88-.07.18.68,2.54,1.23,3.11,1.97-2.06-.95-9.07-3.78-10-5.77-1.34-2.89-2.75-6.15-3.54-9.47.85,2.43,2.12,6.86,4.05,8.16.7.4-1.1-6.47-1.59-7.46-.51-1.01-3.99-6.6-4.26-6.35-1.81,2.03,2.95,11.41,3.75,13.8-.22-.2-1.95-2.71-2.39-2.53-.29.3-.3.6-.05.87-.65-.78-8.9-8.34-9.01-6.35-.04.1-.05.22-.04.35-.48-.52-.82-.83-.95-.8-.91.23,7.08,9.04,8.44,9.96,2.24,1.6,3.8.51,6.31,2-1.76-.37-4.24-.23-5.75-.76-1.69-.5-4.81-.57-.52.72-1.3-.41-7.38-.15-3.88,1.09,1.81.64,10.95,3.48,11.37-.33,2.8,1.55,5.43,3.38,8.23,4.92-4.05,1.26,6.01,1.49,3.36.03,1.58-1.11,7.95,1.56,10.25,1.81,6.8.75,15,3.76,21.68,2.67-6.96,3.18-11.84,9.55-18.09,13.75-2,1.31-7.54,1.08-10.33,1.92-.84.25-10.26,3.42-4.08,3.24-3.26,1.54-7.02,1.72-10.28,3.65-4.1,2.41-1.54,4.6,1.85,2.86-2.91,1.66-5.72,4.05-7.79,6.7-4.13,4.84,1.91,2.76,1.99,2.96-.58-1.43-4.69,1.66-1.64-2.69,1.94-2.49,4.59-4.85,7.43-6.23-.97,1.15-7.12,7.05-5.24,8.64.85.72,8.59-8.44,8.88-9.19,0-.36-.16-.57-.45-.62.36-1.59,2.46-.4,2.67-.36.07.01,1.14-1.96-1.67-.99,1.18-.69,6.6-3.65,6.47-3.65,3.05-1.57,6.47-2.85,9.67-4.36-3.2,3.2-4.57,8.7-6.66,12.71-.34.89-.31,1.81-.73,2.6-.87,1.57,2.51,1.63,1.98.59.09.17-2.71-.83-.77-1.25,3.45-1.88,5.35-7.73,6.69-11.09-.62,2.06,2.24-2.42,2.35-2.63.06.22.27.57.58.4-.98,1.75-10.19,17.66-8.48,18.93,1.43,1.16,7.89-7.58,8.51-8.69,1.97-3.55,4.71-10.09,4.5-14.29-.12-2.16,3.71-4.05,5.35-5.3,2.03-.94,3.52-3.17,5.64-4.6,5.61-3.75,13.14-4.03,19.15-2.67,4.19.95,6.68,11.54,7.26,15.18.49,9.72,1.93,19.96,3.16,29.71,2.25,17.79,4.54,35.52,5.9,53.43-1.75-5.96-3.72-11.96-8.54-16.19-4.47-3.93-6.15-11.25-10.82-14.57,3.35-1.62,3.17-29.21-3.6-7.43.02-.94,1.26-11.95-1.65-9.1-2.69,2.68.09,12.47-4.14,10.03-3.58-2.07-6.3-3.42-9.32-6.73-1.15-1.33-5.52-1.45-4.05-.31,1.98,1.56,3.18,2.71,4.91,4.78-.96-.21-6.07-5.41-5.86-3.51-3.37-1.28,3.24,3.67,3.95,4.03,1.13,2.46,4.49,5.95,7.58,6.85,1.85.54,9.32,4.26,9.64,3.87.41.64,8.37,9.53,8.25,9.63.54-.42-7.77-10.02-8.26-10.88,2.83,2.94,6.13,5.98,8.36,9.38,2.45,3.73,6.5,5.51,8.33,9.73,3.59,8.27,5.54,15.74,6.3,24.77-8.19-6.53-18.27-9.51-28.64-9.86-3.66-.12-7.26-.69-10.92-.57-4.76.15-10.79,1-15.36-.43,1.43-.31-3.42-5.35-3.92-5.52-4.07-1.39-1.38,3.91.84,4.71-.26.21-.21.41-.05.56-.45-.17-1.15-.39-2.18-.7,1.02-1.44-1.13-2.38-2.34-3.85-.42-.51-5.61-6.87-3.91-2.82-1.47-.29-.81,1.37-.31,1.99-2.38-1.94,2.63,4.14,3.99,5.01-1.53-.04-2.96-1.66-4.25-1.55,2.24-1.99-5.31-5.23-7.09-5.67-3.49-.76-3.68,1.99-1.38,3.58,3.73,2.38,7.68,2.46,11.66,3.98-2.77.63-7.72.81-9.87,1.77-4.02,1.8,1.12,1.01,2.34.6-.02.12.04.22.16.29-.74.11-4.82,1.28-5.03,1.72-.83,1.79,12.76-1.37,13.96-1.8.01.15.11.25.3.3-1.86,1.23-4.44,1.52-6.12,2.72-2.41,1.71,4.75-.3,5.28-.53,3.4-1.46,2.83-1.39,7.18-1.6,2.63-.1,5.36-.38,7.99-.9,5.21-1.4,14.03-1.07,20.31.02,7.9,1.39,17.08,2.14,23.45,7.52-4.38-.63-9.01-.63-13.42-.42.03.13-7.33-.07-7.99.25-2.19,1.09-6.23,3.34-6.39,6.05-.17,3,7.49.2,8.5-.05-1.35,1.42-10.75,11.84-8.08,13.54,4.87,3.13,9.03-10.26,10.53-12.26-.6,2.95-1.69,5.4-2.14,8.37-.71,4.37,1.86,4.21,2.61.01.26-.03,4.05-12.12,4.3-12.71.09.07.33,12.62.94,4.86.86-2.38,2.04-6.67.12-2.01.06-1.44.37-2.71-.76-3.66.25-.82,1.91-.46,1.76-1.05.06.25-.46-.39-.41-.32,2.16-1.08,10.21-.61,12.13.75,3.61,2.57,3.25,8.65,3.75,12.8,1.46,12.08,2.02,24.34,2.78,36.47-4.16-5.67-7.13-11.08-13.73-14.56-6.88-3.62-14.57-6.34-22.11-8.13-6.4-1.52-13.04-3.26-19.54-1.33-2.03.6-4.22.54-6.32.81-2.06.27-6.16,2.51-8.04,1.88,3.79-.14.58-1.38.65-.93-.13-.76-5.97-1.07-6.61-1.15-.52-.09-1.81,4.11-1.39,4.44.69.55.92-1.19,1.22-1.49.25-.25,3.25.88,4.27.7.37,2.33-3.19.36-3.29.38-.39.06-4.79,1.89-3.63,2.32.95.39,4.5-1.39,4.98-.43,1.24,2.47-1.23,4.39-2.19,6.84-.3,1.23,2.88,3.07,3.29,2.23.61-1.34,4.14-9.16,2.74-10.27.42-.09,2.66.07,2.51-.75-.16-.86-3.7.56-4.44.74,4.76-3.49,14.02-4.42,19.95-3.85-1.79.95-3.62,1.79-5.19,3.07-3.28-5.32-10.86,12.02-8.08,10.23,3.09-1.98,6.4-9.23,10.15-9.34-3.55,5.6-3.3,10.22,1.55,2.49,1.73-1.04,1.16-3.16,2.79-3.85.36.07,3.75.79,3.83-.11.11-1.39-4.92-.53-5.72-.72,2.45-3.07,7.21-.94,10.68-.82,6.06.2,14.7,1.98,20.01,5.02,5.77,3.3,10.63,7.6,15.64,11.91,1.08,1.59,2.78,2.39,4.14,4.02.68.81.7,2.69,1.98,2.89.69,13.68,1.76,27.36,2.62,41.03.88,14.15,1.1,27.73,1.09,42.04-.04,29.44-.67,58.6-1.87,88-.57,13.93-.18,28.09.03,42.04.2,13.92.44,27.85,1.2,41.87.58,10.8,2.66,22.01,2.89,32.41.31,14.39.84,28.74,2.08,43.08,1.02,11.84.29,23.62,2.44,35.15.25,3.35,2.67,13.2,2.9,4.07.19-7.91-1.25-15.78-1.15-23.67.21-15.09-2.29-30.17-1.85-45.26-.15-13.66-1.23-27.36-2.22-40.98-.98-13.47-2.31-26.78-2.97-40.28-.7-15.17.43-30.37.57-45.55,2.31-23.75,2.78-48.23,2.61-72.18-.15-20.38-.77-41.01-2.85-61.33-.74-7.23-1.58-14.46-2.27-21.7-.45-4.72-2.65-12.73-.09-16.69,3.71-5.75,7.16-11.46,12.11-16.31,3.34-3.28,8.24-9.48,12.85-10.97,7.7-2.46,14.71-11.14,22.13-2.81,1.55,1.74,6.95,4.69,5.68,7.43-.67,1.41-2.27,12.29.14,12.43-.12.3-1.14,1.49-.47,1.82.99.48,2.65-8.24,2.69-8.55.3,2.21.62,9.98,3.29,10.07,1.2.05-1-3.79-.94-4.79.21.6,1.32,3.44,1.4,3.44,1.06-.08-2-7.89-1.3-8.55.16.51.48,4.26,1.09,4.21,1.22-.1-.86-5.57-.95-5.85.6.56,5.27,5.42,5.86,4.39.1-.18-3.23-5.36-3.78-6.08.27.12,4.57,1.78,4.81,1.74,1.58-.37-3.9-5.51-4.43-5.82-.34-.21-7.58-2.52-6.15.18-2.35-4.16-7.66-10.27-12.64-11.13,4.88-1.91,10.07-2.73,14.83-4.91,3.56-1.64,8.95-2.9,12.59-1.77-.17-.05,6.44,7.75,6.58,4.24,1.45.46-.57-2.13-1.03-2.52,1.32.32,2.64.52,3.97.74-1.17,1.21,15.76,4.57,2.48.65.71-.1,4.16,1.37,4.44.72.23-.58-1.25-.94-1.47-1,2.45-.27,13.71-.51,12.99-5.29-.37-1.72-6.76,1.9-7.55,2.29-3.15,1.56-5.16,1.47-8.62,1.3,3.1-.5,6.03-3.06,5.33-3.76,2.41-.03,4.61-.33,5.31-1.05,2.06-2.11-12.22-2.66-12.73-2.66,3.88-1.71,7.11-.29,11.01-.7,4.12-.44,8.13-1.32,1.82-2.68.99-.3,8.71-3.04,7.33-4.88-.49-.64-6.77,1.86-7.73,2.07Zm-39.7-124.18h0s0,0,0,0h0Zm-51.34-71.1s-.04.02-.06.02c.02,0,.04-.02.06-.03,0,0,0,0,0,0Zm-.13.05s0,0,.02,0c0,0,0,0,0,0,0,0-.01,0-.02,0Zm-14.72-4.89h0s0,0,0,0h0ZM11.31,90.04h0s0,0,0,0c0,0,0,0,0,0Zm43.75,70.36s0,0,0,0h0s0,0,0,0c.15-.26.29-.53.44-.79-.15.26-.29.53-.44.79Zm-6.45,77.93h0s0,0,0,0c0,0,0,0,0,0Zm19.66,42.02s.02.01.01,0c0,0,0,0-.01,0Zm-.12-.07s0,0,0,0c0,0,0,0,0,0,0,0,0,0,0,0,0,0,0,0,0,0Zm-3.09,1.66s0,0-.01-.05c0,0,0,0,0,0,0,.02,0,.02.01.04,0-.01,0-.02-.01-.04,0,0,0,0,0,0,.02.05.02.06.01.05Zm-32.68,40.3s0,0,0,0c-.12.03-.2.05-.23.06,0,0,.06-.02.27-.07,0,0-.02.01-.04.01,0,0,0,0,0,0Zm46.41,17.98s0,0,0-.01c0,0,0,0,0-.02,0,.01,0,.02,0,.03Zm44.67,22.39s0,0,0,0c-.21.2-.08.08,0,0Zm67.68-23.68s0,0,0,0c.23.04.31.05.31.05.03,0-.03,0-.33-.05,0,0,.02,0,.04,0,0,0-.01,0-.02,0Zm-2.64.71s-.07,0-.14,0c0,0,0,0,0,0,0,0,0,0,0,0,0,0,0,0,0,0,.07,0,.13,0,.14,0Z"/>
    <path class="cls-2" d="m130.98,169.9c-.36.31.36-.3,0,0h0Z"/>
    <path class="cls-2" d="m101.04,140.23c-.08-.05-.09-.16-.05-.29-.04.12-.04.22.05.29Z"/>
    <path class="cls-2" d="m27.88,366.2c.03-.16.03-.2.02-.17.54-3.48-2.51-.19-3.46,0-1.3.28-1.76-.31-3.22-.3.55-.63,1.23-1.08,2.01-1.33-.15.39-.07.73.25,1.01.84.2.79-1.68-.04-1.83-1.77-.32-4.07,2.73-4.99,3.79-2.11,2.43-4.19,5.68-5.61,8.56-.76,2.7,4.53-.99,5.11-1.55,2.09-1.95,3.83-6.88,6.63-7.52-.52,1.12-5.6,10.46-4.07,10.02,3.65-1.03,6.43-7.31,7.32-10.51,0,.01.01-.03.05-.17Z"/>
    <path class="cls-2" d="m19.75,363.73c.16-.08,7.54-2.65,5.3-4.17-.66-.46-6.55.68-7.25,1.12-2.77,1.78-.52,4.03,1.95,3.04Z"/>
    <path class="cls-2" d="m68.19,269.21c-.23-1.09-2.17-6.9-3.19-5.25-1.21-2.65-.65,4.36-.56,4.83.23,1.22,1.48,7.33,1.67,6.82,1.34,3.52,1.74,3.44,1.7,2.09,0-.05,0-.1,0-.15-.07-1.37-.52-3.83-.92-5.3.11.04.2,0,.29-.12-.12-.33,2.52,7.22,1.72,7.06.43.09.89-2.04.89-2.01.51-1.72-1.16-6.34-1.59-7.97Z"/>
    <path class="cls-2" d="m55.57,266.61c.88,1.28.8,2.67,2.22,3.66-.11-.07,3.11,1.63,2.46.03.51.5,4.16,6.74,4.27,4.67.92,1.42-1.36-7.95-.85-.56-1.17-1.39-1.69-3.69-2.05-5.5-.9-3.23-2.23-2.28-1.13.43-.18-.19-3.16-4.87-2.85-2.21-.38-.27-.76-.54-1.16-.79-.64-1.99-1.84-1.11-.9.27Z"/>
    <path class="cls-2" d="m56.47,266.33c.14.12-.05-.15,0,0h0Z"/>
    <path class="cls-2" d="m20.32,261.34c1.74-2.58,8.13-12.17,5.38-14.18.19-.3,1.89-1.93,1.44-2.4-.84-.88-6.72,10.12-7.29,11.16-.88,1.63-1.57,3.35-2.46,4.96-.52,1.1.74,3.69,1.38,2.53.37-.67-1.05-.75-.94-1.35.1-2.01,1.48-4.22,2.41-5.93,1.25-2.3,4.25-6.64,4.94-7.9-1.12,3.02-2.98,5.74-4.63,8.49-.53.88-3.4,7.8-.23,4.61Z"/>
    <path class="cls-2" d="m26.7,251.46c-.69,1.77-2.26,4.56-1.91,6.5.16.85,1.9,2.08,2.55,1.39,1.1-1.56,3.81-6.48,4.83-10.54-.37,2.62-.19,7.24,1.35,5.45-.02.02-1.33-2.8-1.16-3.59.63-2.25,1.79-4,3.05-5.91-.42,1.58-3.21,7.24-1.63,8.36.65.37,1.52-5.17,1.75-5.81.71-2.05,2.92-9.7-.33-3.53.29-.7,2.58-5.09,1.81-5.39-.82-.32-1.31,2.46-1.46,2.89.71-6.03-10.67,5.51-6.85,4.97-.73,1.43-1.23,3.01-1.77,4.53-.07.19-.16.44-.24.67Zm4.43-2.14c.15-.68.25-1.37.25-2.06,0,.69-.1,1.38-.25,2.06Z"/>
    <path class="cls-2" d="m119.65,174.67c1.58,1.11,3.86-3.01,3-2.44-.35.24-3.78,1.87-3,2.44Z"/>
    <path class="cls-2" d="m16.49,9.32c.11.6.42.9.91.91.26-.18-5.01-8.32-5.1-8.47-1.84-2.94-4.6-1.99-2.61,1.25.77,1.26,6.81,7.7,6.8,6.3Z"/>
    <path class="cls-2" d="m9.69,3.02c-.47-.77.47.77,0,0h0Z"/>
  </g>
  <g>
    <path class="cls-1" d="m160.01,270.24s.03-.01.03-.01"/>
    <path class="cls-1" d="m168.45,266.9c.06-.04.03-.02,0,0"/>
    <path class="cls-1" d="m191.4,333.27s-.04.04-.06.05"/>
    <path class="cls-1" d="m193.98,330.04s-.03.05-.05.06"/>
    <path class="cls-1" d="m197.28,327.66s.02-.02.04-.04"/>
    <path class="cls-1" d="m201.48,324.4s.04-.06.05-.07"/>
    <path class="cls-1" d="m174.43,342.23c.07-.04.12-.02.13,0"/>
    <path class="cls-1" d="m191.15,338.93s-.04,0-.04,0"/>
    <path class="cls-1" d="m134.77,164.4s0,0,.01-.03"/>
    <path class="cls-1" d="m118.48,126.42s-.05.02-.04,0"/>
    <path class="cls-1" d="m125.09,122.61s-.04.02-.04,0"/>
    <path class="cls-1" d="m104.57,233.7c-.07-.07-.07-.07-.05-.05"/>
    <path class="cls-1" d="m102.97,233.45s.03-.01.04,0"/>
    <path class="cls-1" d="m112.99,251.97s0-.05,0-.04"/>
    <path class="cls-1" d="m98.87,323.38s-.02-.07-.02-.08"/>
    <path class="cls-1" d="m143.58,201.32s.03.02.02.01"/>
    <path class="cls-1" d="m86.81,225.89s-.02-.05-.02-.05"/>
    <path class="cls-1" d="m194.13,330.99c.11-.06.18-.08.18-.07"/>
    <path class="cls-1" d="m77.69,322.99c-.06-.01-.08-.01-.07-.01"/>
    <path class="cls-1" d="m44.03,233.41s.01-.04.03-.04"/>
    <path class="cls-1" d="m45.1,232.66s.01-.02.02-.02"/>
    <path class="cls-1" d="m32.4,322.23s-.02.01-.04.01"/>
    <path class="cls-1" d="m71.14,280.86s0,.04-.01.04"/>
    <path class="cls-1" d="m49.62,361.09c.04-.06.08-.07.1-.07"/>
    <path class="cls-1" d="m44.64,362.08s.04-.02.05-.02"/>
    <path class="cls-1" d="m32.07,360.01s.04.03.03.03"/>
    <line class="cls-1" x1="108.43" y1="463.71" x2="108.43" y2="463.7"/>
    <path class="cls-1" d="m107.9,445.54c0,.05,0,.08,0,.08"/>
    <path class="cls-1" d="m99.88,377.5s-.06-.07-.05-.06"/>
    <path class="cls-1" d="m75.71,336.5c-.02.08-.07.13-.08.14"/>
    <path class="cls-1" d="m14.05,194.5s0-.03,0-.03"/>
    <path class="cls-1" d="m73.13,335.41s-.05.03-.05.02"/>
    <path class="cls-1" d="m71.24,331.96c-.06.08-.11.11-.12.11"/>
    <path class="cls-1" d="m32.88,118.16c-.02.06-.05.05-.06.02"/>
    <path class="cls-1" d="m21.43,144.56c.02-.05.01-.03,0,0"/>
    <path class="cls-1" d="m16.51,89.81s-.02.07-.03.07"/>
    <path class="cls-1" d="m15.67,87.64s-.02.01-.04,0"/>
    <path class="cls-1" d="m3.72,86.13c.06,0,.06,0,.04,0"/>
    <path class="cls-1" d="m101.51,135.42s.02-.04.03-.05"/>
    <path class="cls-1" d="m116.92,176.5c-.04.05-.06.08-.06.08"/>
    <path class="cls-1" d="m18.42,13.33s-.04,0-.15.03c.02,0,.02,0,0,0"/>
    <path class="cls-1" d="m29.74,118.52s0,0,0,0"/>
    <path class="cls-1" d="m86.95,217.85s0-.02,0-.02"/>
    <path class="cls-1" d="m83.93,219.57s0-.01.02-.02"/>
    <path class="cls-1" d="m53.83,156.83s-.06,0-.06,0"/>
    <path class="cls-1" d="m45.7,152.77s.02.01,0,.04"/>
    <path class="cls-1" d="m67.3,106.26s.01.01.01.02"/>
    <path class="cls-1" d="m76.14,51.32c0-.05,0-.06,0-.04"/>
    <path class="cls-1" d="m102.66,126.55s-.04-.02-.05-.04"/>
    <path class="cls-1" d="m56.57,20.96c0,.05-.02.07-.03.07"/>
    <path class="cls-1" d="m15.69,41.88c.06.08.03.08,0,.06"/>
    <path class="cls-1" d="m32.6,75.69c.06.08.1.12.1.12"/>
    <path class="cls-1" d="m78.9,48.89s-.01.03-.02.04"/>
    <path class="cls-1" d="m78.21,49.99s-.01.03-.02.05"/>
    <path class="cls-1" d="m83.74,46.45s-.04.05-.03.04"/>
    <path class="cls-1" d="m82.76,46.03c-.08.05-.11.05-.1.04"/>
    <path class="cls-1" d="m53.02,23.82c.02-.07.05-.12.07-.12"/>
    <path class="cls-1" d="m57.27,20.38s0-.03,0-.04"/>
    <path class="cls-1" d="m73.21,53.09c-.01-.08,0-.12,0-.12"/>
    <path class="cls-1" d="m30.02,236.18c.33.08.42-.24,0,0h0Z"/>
    <path class="cls-1" d="m31.92,238.3c.32-.16,0,0,0,0h0Z"/>
    <path class="cls-1" d="m40.42,243s.01-.03.02-.04c-.02.04-.04.07-.06.1.01-.02.03-.04.04-.07Z"/>
    <path class="cls-1" d="m41.25,239.56s-.05.09-.05.1c.02-.03.03-.06.05-.1Z"/>
    <path class="cls-1" d="m30.57,212.53c.2.05.04-.03,0,0h0Z"/>
    <path class="cls-1" d="m41.6,237.01c-.06.1-.12.21-.18.31.04-.04.18-.26.18-.31Z"/>
    <path class="cls-1" d="m47.49,236.21c.23-.6-.09-.03,0,0h0Z"/>
    <path class="cls-1" d="m19.49,248.68c-.07.09-.12.19-.18.28,0,.02.08-.09.18-.28Z"/>
    <path class="cls-1" d="m48.66,230.58c-.1.12-.2.24-.3.37-.12.16.37-.42.3-.37Z"/>
    <path class="cls-1" d="m23.32,246.55s.03-.04.04-.06c-.03.05-.07.1-.1.14.02-.03.04-.05.06-.08Z"/>
    <path class="cls-1" d="m29.66,211.97c-.12-.05.08.17,0,0h0Z"/>
    <path class="cls-1" d="m25.75,210.95c-1.02-.57,1.02.56,0,0h0Z"/>
    <path class="cls-1" d="m38.68,253.18s-.03.01,0,0c0,0,0,0,0,0Z"/>
    <path class="cls-1" d="m26.46,317.42h0s0,0-.01,0c0,0,0,0,.01,0Z"/>
    <path class="cls-1" d="m56.04,275.86s0,0,.01,0c-.01,0-.02-.02-.03-.02,0,0,.01,0,.02.01Z"/>
    <path class="cls-1" d="m75.07,278.21c-.01.05-.03.09-.04.15-.13.46-.05.21.04-.15Z"/>
    <polygon class="cls-1" points="72.93 270.65 72.92 270.66 72.93 270.65 72.93 270.65"/>
    <path class="cls-1" d="m74.89,285.46h0c.09.03.05.02,0,0Z"/>
    <path class="cls-1" d="m68.14,280.28s0,0,0,0c.14.08.25.15,0,0Z"/>
    <path class="cls-1" d="m86.18,223.15c-.28-.52.16.68,0,0h0Z"/>
    <path class="cls-1" d="m16.06,209.8s0,0,.01,0c.07-.02.04,0-.01,0Z"/>
    <path class="cls-1" d="m89.73,236.52c.35,1.88-.05-.26,0,0h0Z"/>
    <path class="cls-1" d="m43.61,243.92c-.98,2.62.08-.15,0,0h0Z"/>
    <path class="cls-1" d="m42.17,243.83s0,.01,0,.02c0-.02.02-.03.03-.05,0,.01-.01.02-.02.03Z"/>
    <polygon class="cls-1" points="48.61 238.33 48.61 238.33 48.61 238.34 48.61 238.33"/>
    <path class="cls-1" d="m65.05,281.9s0,0,0,0c.02.05.03.1,0,0Z"/>
    <path class="cls-1" d="m19.33,85.01c-.35-.33-.48-.19,0,0h0Z"/>
    <path class="cls-1" d="m6.72,87.65s.03,0,.04.01c-.02,0-.03-.01-.05-.02,0,0,0,0,.01,0Z"/>
    <path class="cls-1" d="m55.98,92.1s0,.02,0,.03c0,.14,0,.09,0-.03Z"/>
    <path class="cls-1" d="m11.3,90.04s0,0,0,0c0,0,0,0-.01,0,0,0,0,0,0,0Z"/>
    <path class="cls-1" d="m25.73,86.88h0s.02,0,.04-.02c-.01,0-.02.01-.04.02Z"/>
    <path class="cls-1" d="m17.19,90.9s.08-.06.12-.09c-.02,0-.15.05-.12.09Z"/>
    <path class="cls-1" d="m16.67,86.39c-.2-.22-.05-.01,0,0h0Z"/>
    <path class="cls-1" d="m30.56,69.41c-.66-.78.01.01,0,0h0Z"/>
    <path class="cls-1" d="m27.21,66.57c-.01.26.04,0,0,0h0Z"/>
    <path class="cls-1" d="m39.74,74.75c.18.23-.09-.23,0,0h0Z"/>
    <path class="cls-1" d="m43.77,84.19c.01-.32-.13-.18,0,0h0Z"/>
    <path class="cls-1" d="m40.66,78.39s0,.01,0,.02c.04.05.02.03,0-.02Z"/>
    <path class="cls-1" d="m58.48,158.74c.4.23.26-.05,0,0h0Z"/>
    <polygon class="cls-1" points="55.06 160.41 55.06 160.41 55.06 160.41 55.06 160.41"/>
    <path class="cls-1" d="m84.64,334.34c-.24.05.41-.01,0,0h0Z"/>
    <path class="cls-1" d="m59.35,157.94c-.25-.16-.5-.31-.75-.47-.12-.06.53.4.75.47Z"/>
    <path class="cls-1" d="m6.89,198.46s.03.03.04.04c-.06-.08-.13-.17-.04-.04Z"/>
    <path class="cls-1" d="m74.87,171.59s0,0,0,0c.05-.03.1-.07,0,0Z"/>
    <path class="cls-1" d="m76.01,167.64c-.01-.19-.19-.69,0,0h0Z"/>
    <path class="cls-1" d="m66.25,163.44c-.16-.16-.34-.3-.5-.45.12.13.35.35.5.45Z"/>
    <path class="cls-1" d="m36.97,119.85c-.08,0-.17,0-.25,0-.06,0,.02.02.25,0Z"/>
    <path class="cls-1" d="m22.47,147.66s-.02,0,0,0h0Z"/>
    <path class="cls-1" d="m26.15,144.37c.63-.11,0-.06,0,0h0Z"/>
    <path class="cls-1" d="m37.55,147.39c.09-.07-.39-.26,0,0h0Z"/>
    <path class="cls-1" d="m40.4,149.04h0c.46.23.2.1,0,0Z"/>
    <path class="cls-1" d="m14.77,121.2c-.54,0,.45,0,0,0h0Z"/>
    <path class="cls-1" d="m112.66,725.69c0,.06,0,.06,0,0h0Z"/>
    <path class="cls-1" d="m109.92,521.33c0-.15.01-.3.02-.44.02-.51-.05.45-.02.44Z"/>
    <path class="cls-1" d="m102.65,367.97c0-.07,0-.13,0-.17,0,.04,0,.1,0,.17Z"/>
    <path class="cls-1" d="m107.52,424.32s0-.02,0-.03c-.02-.24,0-.04,0,.03Z"/>
    <path class="cls-1" d="m123.45,362.61s0,0,0,0c.08-.08.04-.04,0,0Z"/>
    <path class="cls-1" d="m161.4,365.33c-.02-.06-.03.19,0,0h0Z"/>
    <path class="cls-1" d="m104.25,392.72c-.02-.27-.03-.53-.06-.8.02.45.05.9.07,1.35.01.1.01-.15,0-.55Z"/>
    <path class="cls-1" d="m111.18,670.88s0-.02,0-.04c0-.02,0-.04,0-.06,0,.03,0,.06,0,.09Z"/>
    <path class="cls-1" d="m108.57,527.03s0-.09,0-.13c-.17,3.06-.03.86,0,.13Z"/>
    <path class="cls-1" d="m112.84,707.87c-.02-.33-.07-.67-.1-1,0,.03.01.37.1,1Z"/>
    <path class="cls-1" d="m107.4,613.52c-.01-.4.02.78,0,0h0Z"/>
    <path class="cls-1" d="m106.37,620.66c0,.46,0-.03,0,0h0Z"/>
    <path class="cls-1" d="m102.64,367.8c0-.12,0-.1,0,0h0Z"/>
    <path class="cls-1" d="m202.84,330.03c.22-.14-.05-.04,0,0h0Z"/>
    <path class="cls-1" d="m33.63,73.58s-.04-.05-.05-.07c.03.05.06.09.07.11,0-.01-.01-.03-.02-.04Z"/>
    <path class="cls-1" d="m191.46,332.46c-.4.29-.37.31,0,0h0Z"/>
    <path class="cls-1" d="m199.12,334.78c-.4-.09-.09.02,0,0h0Z"/>
    <path class="cls-1" d="m206.04,320.71c-2.76-2.82-12.49,8.89-14.29,10.55-2.29,2.1-4.64,2.97-7.21,4.57-8.01,5.01-18.75,7.29-28.55,9.04-10.71,1.91-23.24,8.52-31.5,15.62-4.68,4.02-9.01,8.52-12.91,13.21-1.95,2.34-3.89,4.74-5.69,7.19-1.23,1.68-.29,3.28-1.1,4.39-.7-13.84-1.01-27.66-2.96-41.42-1.53-10.78,7.28-22.77,12.65-31.96,8.01-13.7,19.57-25.19,32.3-34.39,2.17-1.56,4.68-4.66,7.41-4.04,3.56.67,7.51,1.86,11.15,1.58.42-.03,7.85-2.49,5.17-3.15-1.58-.39-2.69-.56-4.42-.84.74-.06,10.75-1.57,7.85-3.02,5.26-1.35,8.51-3.71,12.02-6.64,3.22-2.72-7.7-1.06-6.52.42.67.85,2.42-2.07,3.13-1.11.62.81-6.96,3.5-7.22,3.6.54-.41,4.86-4.46,3.12-4.73-2.11-.34-8.84,4.27-10.56,5.84-2.2,1.98-5.28,4.89.05,2.6.06.32.13.22.32.44-2.6.56-5.24,1.4-7.88,1.74,2.07-.43,11.64-10.22,10.49-10.62-2.1-.72-6.88,4.61-8.18,5.94-2.78,3.15-6.87,4.65-10.28,7.05.17-.72,1.21-1.76,1.59-2.26-.21.89,3.48-1.45,3.92-2.39.4-.79,8.61-9.97,6.19-10.27-1.77-.28-8.72,9.6-10.08,11.23-1.7,2.17-2.15,4.05-4.35,5.3-2.48,1.4-5.68,2.93-7.7,4.68.33-.33.58-.71.76-1.15.11.5,5.66-7.96,5.83-8.26,1.35-2.42,4.05-6.05,4.62-8.85.52-2.31-5.12,4.09-5.39,4.5.31-1.79,1.57-3.74,1.75-5.61-.01.2,1.53-4.85-.42-2.63-1.1,1.25-.65,2.88-1.41,4.3-.48.89-1.14,1.58-1.81,2.33.32-.23.64-.4.98-.42.08.8.15,1.68-.02,2.45,0-1.98-1.02-1.72-1.44-.03-.19,3.05-1.86,6.34-3.02,9.13-.52,1.26-2.35,6-2.14,4.63.24-1.53,1.17-6.34,2.57-10.32-1.78,4.2-4.71,11.71-3.13,12.07-8.28,7.65-15.3,15.45-21.95,24.6-6.27,8.62-13.7,18.53-16.59,28.88-1.56-1.21-1.34-9.53-1.59-11.71-.57-5.05-1.29-10.09-1.79-15.15-1.18-12.09-2.14-23.91-3.75-35.97-2.26-16.89-2.87-34.38-6.01-50.73,4.52-1.25,9.44,6.31,11.3,9.62,2.68,4.76,3.22,10.64,6.71,15.26,2.12,2.81,4.28,5.65,6.65,8.24,2.18,2.37,1.72-.74,1.2-2.04-2.07-4.57-4.78-8.37-7.65-12.38.99.37,5.07,4.13,5.44,3.26.23-.56-2.17-1.78-2.52-2.15.63.23,6.06,3.19,5.86,2.09.05.26-1.5-2.09-1.32-1.89-1.7-1.92-5.01-3.01-7.12-4.67,2.51,1.24-.65-1.32-1.23-1.79,1.46-.27-.14-2.49-.58-2.63-3.43-1.09-3.34.37-5.36-2.77-1.84-2.87-3.9-5.52-6.42-7.82-2.27-2.08-7.7-1.55-5.31-6,7.27-.84,13.36-7.22,20.19-9.67,7.44-2.66,17.18-6.54,24.99-3.7-.56-.02-.88.23-.96.76.09.25,4.25-.49,3.44.5-1.97,2.04,7.46,8.02,8.74,8.83,1.3.82,3.63,2.8,5.42,1.84.48-.27-1.3-4.58-1.75-5.17,1.34.85,10.33,6.97,10.34,3.93.28.74.75,1.04,1.42.91.62-.6-2.18-2.75-2.58-3.12,4.59,2.86,10.33,3.67,3.34-2.1-4.94-4.08-12.38-7.91-18.55-7.49-4.25-1.37-6.87-.07-10.53-.33-4.28-.31-10.19-.49-14.22,1.08-5.04,1.97-10.07,3.76-15.08,5.81-4.91,2.02-8.28,5.64-13.67,6.97,5.75-10.13,11.86-19.9,19.82-28.44,3.39-3.77,9.41-4.39,14.24-5.99.78-.28,6.52-3.07,5.96-4.26-.95-1.46-5.6.42-6.68.86,2.85-1.36,5.29-3.19,7.62-5.17-.69.5-1.42.95-2.21,1.29,1.97-1.77,3.58-3.38,5.93-4.59,2.16-1.95,4.34-3.88,6.77-5.53-.03.02-3.12,2.29-2.4,2.94.93.84,7.35-7.09,6.7-6.93,2.3-1.59,0-5.35-1.64-2.21-.59,1.1-1.14,0-2.04.87-1.96,1.91-3.33,4.1-5.71,5.6,1.49-1.87,6.66-10.53.78-5.86-3.02,2.4-12.33,10.92-10.88,14.87-.82.59-4.61,5.13-3.07,4.78-2,.85-3.48,1.88-5.45,2.78,3.56-5.16,6.58-10.78,8.34-16.83.15-.53.39-1.5-.4-1.67-1.6-.34-2.34,3.49-2.75,4.29-.24.63-.56,1.25-.87,1.87,1.13-2.22,2.44-4.62,3.35-5.28-1.2,5.3-4.35,10.27-7.64,14.63.78-1.97,1.36-3.97,2.46-5.81.24-.41.21-.37.11-.21.25-.44.55-1.03.89-1.72-1.47,2.64-3.24,5.24-4.46,7.95.45-1.31,2.49-11.25.71-8.92-1.35,1.78-4.94,12.56-4.44,12.37-.27.88-2.65,2.93-2.49,3.31.47,1.36-6.46,7.34-7.53,8.66-3.03,3.73-6,7.56-8.69,11.55-1.96,2.92-3.23,8.27-5.74,10.36-2.6-11.42-5.39-22.94-8.22-34.84.12-1.39-.9-3.32-1.15-4.67,1-1.62,1.09-4.77,1.68-6.62,2.05-6.41,8.08-11.88,11.53-17.66-1.55,3.35,2.57.34,1.15-.37,2.63-3.72,6.43-7.73,9.76-10.84-.05.11-.43.6-.59.98.8-1.24,6.19-4.25,6.55-4.42,2.39-1.15,6.06-4.04,8.65-4.21,2.96-.19,2.5-.76,4.57-2.18,2.34-1.6,5.7-3.16,8.3-5.05,5.07-3.68,8.55-6.96,8.82-13.96.15-3.92-2.54.13-3.33,1.57-1.71,3.11-3.82,6.49-6.42,8.94,1.94-3.18,2.42-9.31-2.22-5.83-5.07,4.61-7.13,11.3-12.92,14.94,1.64-2.77,3.51-6.29,3.74-9.56.12-2.16,3.25-5.99-2.68-2.53-2.11,1.24-9.05,14.7-6.61,15.33-.77.36-1.64.46-2.36.92.2-2.41,1.66-7.65-2.16-7.87-.18,0-3.73,11.83-5.39,13.4-1.63,1.5-2.2,3.86-3.89,5.4-2.63,2.39-4.97,5.09-7.17,7.9-4.31,5.51-7.28,10.89-9.57,17.5-.6-5.43-.55-10.72-.31-16.17.37-1.8,4.11-14.21,4.79-13.73-2.04-1.17,4.5-3.47,4.31-3.31,2.05-1.11,9.28-5.74,5.01-7.98-1.34-.72-6.21,5.89-7.4,6.9.38-.88,1.54-3.05,1.69-3.55.4-1.35.31-4.9-.3-6.17-1.77-3.72-5.01,9.16-5.03,10.27-.03,4.05-.79,6.98-2.39,10.95-2.16,5.27-1.22,10.84-2.4,16.28-2.52-10.3-5.32-20.47-7.87-30.75.75.63.33,3.05,1.25,2.92,1.02-.13,1.23-4.22.25-3.59.15-3.88.69-8.32,2.44-12.44,2.86-6.72,5.82-12.98,11.25-18.09,2.28-2.15,4.83-4.04,7.14-6.17.7-.64,3.5-2.02,3.79-2.95-.19,2.87,6.81-2.02,7.75-2.66,3.38-1.28,8.89-5.29,2.54-3.41.18-.17,2.07-2.19,1.07-2.54-.4-.14-2.94,3.35-3.58,3.7,1.34-1.78,9.03-13.35,6.58-14.23-3.26-1.16-9.06,12.29-10.6,14.66.25-2.58.31-4.91.98-7.47.84-3.22-2.33-.62-2.95.62-1.57,3.17-3.39,7.34-3.12,10.94.04.57-4.76,4.38-5.15,4.77-2.83,2.56-5.22,4.12-7.75,7.12-2.49,2.96-4.47,5.73-6.12,9.2-2.97,6.23-4.8,12.21-5.11,18.75-3.06-4.91-4.17-10.59-3.73-16.29.17-2.18.5-4.68,1.39-6.7.52.24,1.38-.83,1.52-1.24.03.66.34,1.01.93,1.06.2-.1,1.38-3.17,1.57-3.49-2.44,5.33,1.79.33,2.94-1.61-.34.98-3.71,5.41-3.53,5.82.63,1.45,3.97-5.74,4.29-6.7,1.15-3.26,2.98-7.89,3.05-11.35.1-2.6-2.73,2.97-2.75,3.01-1.02,2.33-2.32,3.68-3.76,5.71,1.72-4.14.06-6.22-2.11-1.39-.06-.51-.53-3.71-1.41-2.85-.22.18-1.54,2.55-1.62,2.85-1.07.32.09,7.95.43,9.2-1.87,2.16-1.85,7.53-1.92,10.15-1.54-4.56-3.7-8.86-5.18-13.45-.64-1.97-2-4.47-1.84-6.62.38-1.24,1.13-3.74,1.07-2.69.41-8.62,3.26-19.6,8.02-26.91,2.86-3.97,5.99-8.07,9.24-11.73,1.78-1.96,2.29-3.43,5.08-3.27,2.13.12,3.87-.22,5.6-1.47.61-.44,5.9-4.35,3.97-4.64-1.25-.19-5.41,1.2-6.24,1.37.44-.34,4.36-5.77,2.84-5.05-1.05.54-1.08,1.49-2.28,2.04.18-.69-1.16-.6-1.46-.45.3-.65,2.95-8.52.64-7.78-1.81.6-2.41,1.67-3.42,3.89-1.44,1.32-6.64,12.49-2.14,10.7-3.71,3.97-7.7,8.6-10.97,13.67-4.02,5.75-6.08,13.9-8.04,20.74.58-6.37,2.21-11.71,4.73-17.07,2.54-5.41,7.33-9.5,9.44-15.3.67,1.89,2.43-.26,2.53-1.37.08-.88,1.03-9.11.06-9.3-.05-.84-1.74-10.1-2.28-7.16-1.46-.44-2,11.59-2.05,12.5-.08,1.51,2.15,4.66.54,5.72-1.7,1.16-2.34,4.76-3.51,6.44-1.11,1.59-2.37,2.98-3.62,4.45-5.58,6.52-7.62,18.75-8.5,27.17-5.44-6.59-7.6-17.56-11.03-25.67.48-8.5-1.47-17.65,2.4-25.62-.82,2.17-3.39,22.41-1.58,22.21.77-.09.51-12.93.62-14.41.13-1.81,1.02-9.82,2.97-10.6-.17.34-.12.62.15.83.31.03,1.08-6.8,1.1-7.14.19-3.28,3.86-4.41,5.63-7.18.42-.64,4.39-6.84,3.45-7.17-.97-.33-4.29,3.66-4.87,4.59.45-1.15,2.7-12.39.92-11.94-.11-2.46-1.61-2.57-2.19,1.17-.55,2.98-.81,5.98-.99,9-.03.55-1.04,3.65-1.02,3.68.37.69,1.01-.23,1.12-.39.02,1.88-1.61,2.55-2.08,4.14-.03.16-1.03,1.04-1.06,1.63-.19,2.88-.08,6.19-1.14,8.94,1.26-7.23-1.4-14.01-1.71-21.17,1.58,2.35.99,6.71,1.51,9.47.73,3.9,1.83.44,1.69-1.72-.13-2.38.17-3.27-.99-5.56-.26-1.06-2.58-8.34-2.06-3.45-.26-.38-1.36-3.31-1.67-.73-.76,3.92,1.98,9.64,2.32,13.74.65,6.07-.75,9.82-2.11,15.59-1.57,6.68-.89,13.51-1.16,20.29-2.08-5.09-4.57-12.61-6.33-16.33-1.43-.16-4.91-9.53-5.6-11.29-.94-2.39-1.27-5.53-2.09-8.36.07.04.14.03.2-.02.28.91,1.61,5.72,2.14,5.49.2-.09-1.24-7.72-1.16-9.21.06.34.25,2.87.7,2.8.16-.02-.55-11.43-3.21-11.69-2-.14,0,8.03.02,8.7-2.06-2.06-3.89-7.61-5.17-10.23,1.43-2.03.36-5.2-.46-7.43.78,1.17,2.74,9.35,2.41,9.36,1.77-.08-1.46-11.5-4.65-12.45-1.3-.45.46,7.24.73,8.04,1.31,3.82,3.69,7.2,5.39,10.86-2.99-3.25-5.11-7.67-8.07-10.71-.36-.49.57,2.36.66,2.51,1.61,2.62,3.23,5.13,4.67,7.58-5.4-4.88-9.8-7.52-13.42-13.76.78,1.03,5.14,5.74,5.1,6.45.47-.11,2.06-1.13.88-1.81-1.42-2.65-3.82-6.14-6.27-7.95-2.78-1.91-1.28,2.24-.76,3.16-1.28-.44,2.91,5.78,3.5,6.24,2.65,2.09,4.51,1.71,7.16,4.9,1.63,1.97,4,3.3,5.42,5.3.97,1.33,1.56,3.7,2.44,5.58,2.66,5.58,4.67,11.44,7.48,16.98-3.76-1.81-16.43-.25-16.1-5.97.22-2.5-4.38-7.34-5.99-8.21-1.99-1.1,1.63,6.83,2.03,7.48-.98.07-2.42-1.51-3.94-3.35-.99-.39-.13,1.31-1.09-.61.14-.02.21-.11.21-.26.24.21.47.43.69.66-1.69-2.06-3.45-4.36-4.74-5.06-1.31-.71-1.03,1.13-.69,1.7,1.73,2.88,3.83,5.67,6.75,7.41-.26.08-.29.33-.27.56-.88-.12-5.39-3.26-3.5-.37,1.01,1.55,11.32,6.41,11.02,2.82,3.28,2.17,5.67,2.26,9.26,2.68,7.04.81,7.74,3.27,10.24,9.71,4.19,10.79,9.11,21.48,12.52,32.54-1.56-1.56-3.36-3.03-5.37-3.99-2.53-1.21-.87-1.06-2.24-3.4-1.72-3.16-1.11-12.69-6.32-13.59-3.47-.6,1.56,9.44,1.57,11.75-2.34-1.45-10.36-16.57-12.66-14.41-1.74,1.77,6.42,11.22,7.88,12.87,2.98,3.35,7.14,5.47,10.8,8.01-5.77-2.44-10.54-3.07-16.28-.71-3.04-.27-6.38,2.4-7.78.19,3.52-.21-1.43-2.6-2.45-2.82-2.38-.53-4.74-2.45-6.95-3.42-2.45-1.09,2.49,4.5,3.24,5.57-.72-.13-1.71-.15-2.76-.39,1.33.65,2.41,1.26,2.66,1.61-2.61-.16-11.15-.91-11-4.66.68-.1,1.35,0,2.01.27-.1-.04-.17-.07.06.02.6.24,2.13.87,3.77,1.6-1.69-1.22-7.77-5.08-6.46-.57-.98-.13-3.89,2.23-3.23,2.48,4.25,1.55,8.83,4.53,13.48,5.17-.87.52-3.24-.04-4.1.05-.81.08-4.86,2.27-2.65,2.89,1.47.41,11.24-1.9,11.29-1.67-.32-.28-.67-.42-1.06-.45,1.89-.18,5.84-.6,2.85-2.23,2.01-.62,7.41-3.18,9.42-2.76,1.24.26,9.72.73,9.75.18.04-.65-7.47-.84-8.43-.91,5.6-2.85,17.72.65,21.57,5.14,4.04,12.08,8.69,23.98,12.17,36.24-2.28-1.7-4.86-2.14-7.31-3.47-1.56-1.2-3.7-3.83-5.78-3.87-3.31-.07-6.31-.39-9.61-.75-1.36-.15-6.85-1.39-7.19-1.22-.25.29-.27.57-.06.83-.45.03-.9.17-1.32-.02,1.91.06-4.29-4.47-4.84-4.82-.18-.11-6.26-3.2-5.59-1.78,1.85,4.27,7.7,6.36,10.71,7.64-3.39.15-6.26,0-9.1-1.22,1.51-.66-5.07-3.1-5.23-3.19.69.26,6.63,2.66,6.64,2.37.09-.08-11.5-7.54-13.23-7.41-3.56.28,3.3,5.92,4.17,6.39,2.44,1.33,5.23,1.25,7.6,2.58-2.42-.15-4.83.59-7.57.25-.72-.09-8.16-1.27-3.84.27-1.52-.16-3.34-.01-4.77-.52-.58-.19-3.03-1.96-3.24-1.94-1.62.13,1.65,2.3,2.05,2.41-.09.02-.16.07-.21.15-.12-.06-.72-.47-.75-.47-1.68.13,2.55,2.03,2.5,2.01,2.18.69,4.33.93,6.59.82,1.85-.08,6.07-.48,7.64-1.44,1.41-1.1,7.81-.19,9.86-.21,5.71-.06,10.67.79,16.34,1.09,3.98.21,8.21,2.57,11.27,4.98,1.88,1.52,3.72,3.05,5.54,4.64.94,3.15,1.79,6.34,2.8,9.47-1.76,2.43,2.98,11.88,3.58,14.47.8,3.42,1.24,6.92,2.07,10.34.38,1.57-.53,4.22.15,5.47-7.41-10.45-16.65-15.21-27.71-20.74-2.58-1.29-5.18-2.56-7.82-3.72-2.03-.89-5.25-3.09-7.35-3.23-2.28-2.04-3.98-2.87-6.76-1.39-1.13.62-5.16,1.15-3.56,3.17-3.47.94-3.09,3.52.25,3.29.82-.06,8.22-1.52,7.58-2.62,1.25-.92-4.4-.53-4.79-.55,2.28-.5,3.9-1.19,5.24-.1.57.46.89-.5.75-.81,2.85.77,4.27,1.53,7.01,3.06-2.46,2.3-5.69,2.82-8.52,4.35.47-.64,7.88-3.45,6.87-4.23-.65-.49-6.84,3.01-7.42,3.68-.75.87-1.98,6.55.42,5.24,1.21-.66,2.69-3.97,3.83-4.07.84-.07,6.72-2.92,5.15-4.14.8-.81,4.02,1.52,5.05,2.1-2.61,1.03-7.61,5.25-4.63,9.37,1.75,2.59,3.76-1.47,6.02-3.61.72,3.48,2.88-.72,3-2.05.04-.65,5.21,1.51,5.88,1.83-.75.45-6.86.57-6.33,2.02.29.88,2.63.22,3.25.04-.88.52-1.09,4.9-.29,4.63-.1,1.91,6.86-2,7.33-4.37,7.41,4.65,18.7,11.58,20.43,20.81,1.29,6.85,3.01,13.63,4.3,20.49.63,3.33,1.28,6.66,1.95,9.98.38,1.87,2.28,7.25,1.47,8.91-.02-.03-.78-2.52-1.6-2.09-.84.44,1.28,2.73.99,3.54-.08-.22-.21-.44-.31-.66-.09.1-.3.32,0,0-.72-1.54-1.97-3.02-3.59-3.96-3.21-1.85-7.11.3-10.42.68-2.89.32-6.3-.19-9.06.34-5.36,1.04-12.66-1.42-18-2.41-2.8-.52-5.64-.73-8.44-1.24-3.3-.61-2.31-3.11-2.75-6.02,1.33,1.76.57-3.48.65-3.12-.69-2.86-1-6.94-2.85-9.35-1.48-1.99-1.63,3.97-1.56,4.47.24,1.59,2.15,10.81,2.81,10.64-.06.02-2.59-12.4-1.81-14.44,1.08,1.95,1.53,4.33,2.12,6.46-.65-1.89-.92,1.01-.81,1.63.71,2.92.73,5.89,1.16,8.83-3.28-1.46-3.03-9.02-6.34-11.84-2.54-2.28,1.03,7.98,1.74,9.44.13.06-2.18-1.24-1.88-.07.18.68,2.54,1.23,3.11,1.97-2.06-.95-9.07-3.78-10-5.77-1.34-2.89-2.75-6.15-3.54-9.47.85,2.43,2.12,6.86,4.05,8.16.7.4-1.1-6.47-1.59-7.46-.51-1.01-3.99-6.6-4.26-6.35-1.81,2.03,2.95,11.41,3.75,13.8-.22-.2-1.95-2.71-2.39-2.53-.29.3-.3.6-.05.87-.65-.78-8.9-8.34-9.01-6.35-.04.1-.05.22-.04.35-.48-.52-.82-.83-.95-.8-.91.23,7.08,9.04,8.44,9.96,2.24,1.6,3.8.51,6.31,2-1.76-.37-4.24-.23-5.75-.76-1.69-.5-4.81-.57-.52.72-1.3-.41-7.38-.15-3.88,1.09,1.81.64,10.95,3.48,11.37-.33,2.8,1.55,5.43,3.38,8.23,4.92-4.05,1.26,6.01,1.49,3.36.03,1.58-1.11,7.95,1.56,10.25,1.81,6.8.75,15,3.76,21.68,2.67-6.96,3.18-11.84,9.55-18.09,13.75-2,1.31-7.54,1.08-10.33,1.92-.84.25-10.26,3.42-4.08,3.24-3.26,1.54-7.02,1.72-10.28,3.65-4.1,2.41-1.54,4.6,1.85,2.86-2.91,1.66-5.72,4.05-7.79,6.7-4.13,4.84,1.91,2.76,1.99,2.96-.58-1.43-4.69,1.66-1.64-2.69,1.94-2.49,4.59-4.85,7.43-6.23-.97,1.15-7.12,7.05-5.24,8.64.85.72,8.59-8.44,8.88-9.19,0-.36-.16-.57-.45-.62.36-1.59,2.46-.4,2.67-.36.07.01,1.14-1.96-1.67-.99,1.18-.69,6.6-3.65,6.47-3.65,3.05-1.57,6.47-2.85,9.67-4.36-3.2,3.2-4.57,8.7-6.66,12.71-.34.89-.31,1.81-.73,2.6-.87,1.57,2.51,1.63,1.98.59.09.17-2.71-.83-.77-1.25,3.45-1.88,5.35-7.73,6.69-11.09-.62,2.06,2.24-2.42,2.35-2.63.06.22.27.57.58.4-.98,1.75-10.19,17.66-8.48,18.93,1.43,1.16,7.89-7.58,8.51-8.69,1.97-3.55,4.71-10.09,4.5-14.29-.12-2.16,3.71-4.05,5.35-5.3,2.03-.94,3.52-3.17,5.64-4.6,5.61-3.75,13.14-4.03,19.15-2.67,4.19.95,6.68,11.54,7.26,15.18.49,9.72,1.93,19.96,3.16,29.71,2.25,17.79,4.54,35.52,5.9,53.43-1.75-5.96-3.72-11.96-8.54-16.19-4.47-3.93-6.15-11.25-10.82-14.57,3.35-1.62,3.17-29.21-3.6-7.43.02-.94,1.26-11.95-1.65-9.1-2.69,2.68.09,12.47-4.14,10.03-3.58-2.07-6.3-3.42-9.32-6.73-1.15-1.33-5.52-1.45-4.05-.31,1.98,1.56,3.18,2.71,4.91,4.78-.96-.21-6.07-5.41-5.86-3.51-3.37-1.28,3.24,3.67,3.95,4.03,1.13,2.46,4.49,5.95,7.58,6.85,1.85.54,9.32,4.26,9.64,3.87.41.64,8.37,9.53,8.25,9.63.54-.42-7.77-10.02-8.26-10.88,2.83,2.94,6.13,5.98,8.36,9.38,2.45,3.73,6.5,5.51,8.33,9.73,3.59,8.27,5.54,15.74,6.3,24.77-8.19-6.53-18.27-9.51-28.64-9.86-3.66-.12-7.26-.69-10.92-.57-4.76.15-10.79,1-15.36-.43,1.43-.31-3.42-5.35-3.92-5.52-4.07-1.39-1.38,3.91.84,4.71-.26.21-.21.41-.05.56-.45-.17-1.15-.39-2.18-.7,1.02-1.44-1.13-2.38-2.34-3.85-.42-.51-5.61-6.87-3.91-2.82-1.47-.29-.81,1.37-.31,1.99-2.38-1.94,2.63,4.14,3.99,5.01-1.53-.04-2.96-1.66-4.25-1.55,2.24-1.99-5.31-5.23-7.09-5.67-3.49-.76-3.68,1.99-1.38,3.58,3.73,2.38,7.68,2.46,11.66,3.98-2.77.63-7.72.81-9.87,1.77-4.02,1.8,1.12,1.01,2.34.6-.02.12.04.22.16.29-.74.11-4.82,1.28-5.03,1.72-.83,1.79,12.76-1.37,13.96-1.8.01.15.11.25.3.3-1.86,1.23-4.44,1.52-6.12,2.72-2.41,1.71,4.75-.3,5.28-.53,3.4-1.46,2.83-1.39,7.18-1.6,2.63-.1,5.36-.38,7.99-.9,5.21-1.4,14.03-1.07,20.31.02,7.9,1.39,17.08,2.14,23.45,7.52-4.38-.63-9.01-.63-13.42-.42.03.13-7.33-.07-7.99.25-2.19,1.09-6.23,3.34-6.39,6.05-.17,3,7.49.2,8.5-.05-1.35,1.42-10.75,11.84-8.08,13.54,4.87,3.13,9.03-10.26,10.53-12.26-.6,2.95-1.69,5.4-2.14,8.37-.71,4.37,1.86,4.21,2.61.01.26-.03,4.05-12.12,4.3-12.71.09.07.33,12.62.94,4.86.86-2.38,2.04-6.67.12-2.01.06-1.44.37-2.71-.76-3.66.25-.82,1.91-.46,1.76-1.05.06.25-.46-.39-.41-.32,2.16-1.08,10.21-.61,12.13.75,3.61,2.57,3.25,8.65,3.75,12.8,1.46,12.08,2.02,24.34,2.78,36.47-4.16-5.67-7.13-11.08-13.73-14.56-6.88-3.62-14.57-6.34-22.11-8.13-6.4-1.52-13.04-3.26-19.54-1.33-2.03.6-4.22.54-6.32.81-2.06.27-6.16,2.51-8.04,1.88,3.79-.14.58-1.38.65-.93-.13-.76-5.97-1.07-6.61-1.15-.52-.09-1.81,4.11-1.39,4.44.69.55.92-1.19,1.22-1.49.25-.25,3.25.88,4.27.7.37,2.33-3.19.36-3.29.38-.39.06-4.79,1.89-3.63,2.32.95.39,4.5-1.39,4.98-.43,1.24,2.47-1.23,4.39-2.19,6.84-.3,1.23,2.88,3.07,3.29,2.23.61-1.34,4.14-9.16,2.74-10.27.42-.09,2.66.07,2.51-.75-.16-.86-3.7.56-4.44.74,4.76-3.49,14.02-4.42,19.95-3.85-1.79.95-3.62,1.79-5.19,3.07-3.28-5.32-10.86,12.02-8.08,10.23,3.09-1.98,6.4-9.23,10.15-9.34-3.55,5.6-3.3,10.22,1.55,2.49,1.73-1.04,1.16-3.16,2.79-3.85.36.07,3.75.79,3.83-.11.11-1.39-4.92-.53-5.72-.72,2.45-3.07,7.21-.94,10.68-.82,6.06.2,14.7,1.98,20.01,5.02,5.77,3.3,10.63,7.6,15.64,11.91,1.08,1.59,2.78,2.39,4.14,4.02.68.81.7,2.69,1.98,2.89.69,13.68,1.76,27.36,2.62,41.03.88,14.15,1.1,27.73,1.09,42.04-.04,29.44-.67,58.6-1.87,88-.57,13.93-.18,28.09.03,42.04.2,13.92.44,27.85,1.2,41.87.58,10.8,2.66,22.01,2.89,32.41.31,14.39.84,28.74,2.08,43.08,1.02,11.84.29,23.62,2.44,35.15.25,3.35,2.67,13.2,2.9,4.07.19-7.91-1.25-15.78-1.15-23.67.21-15.09-2.29-30.17-1.85-45.26-.15-13.66-1.23-27.36-2.22-40.98-.98-13.47-2.31-26.78-2.97-40.28-.7-15.17.43-30.37.57-45.55,2.31-23.75,2.78-48.23,2.61-72.18-.15-20.38-.77-41.01-2.85-61.33-.74-7.23-1.58-14.46-2.27-21.7-.45-4.72-2.65-12.73-.09-16.69,3.71-5.75,7.16-11.46,12.11-16.31,3.34-3.28,8.24-9.48,12.85-10.97,7.7-2.46,14.71-11.14,22.13-2.81,1.55,1.74,6.95,4.69,5.68,7.43-.67,1.41-2.27,12.29.14,12.43-.12.3-1.14,1.49-.47,1.82.99.48,2.65-8.24,2.69-8.55.3,2.21.62,9.98,3.29,10.07,1.2.05-1-3.79-.94-4.79.21.6,1.32,3.44,1.4,3.44,1.06-.08-2-7.89-1.3-8.55.16.51.48,4.26,1.09,4.21,1.22-.1-.86-5.57-.95-5.85.6.56,5.27,5.42,5.86,4.39.1-.18-3.23-5.36-3.78-6.08.27.12,4.57,1.78,4.81,1.74,1.58-.37-3.9-5.51-4.43-5.82-.34-.21-7.58-2.52-6.15.18-2.35-4.16-7.66-10.27-12.64-11.13,4.88-1.91,10.07-2.73,14.83-4.91,3.56-1.64,8.95-2.9,12.59-1.77-.17-.05,6.44,7.75,6.58,4.24,1.45.46-.57-2.13-1.03-2.52,1.32.32,2.64.52,3.97.74-1.17,1.21,15.76,4.57,2.48.65.71-.1,4.16,1.37,4.44.72.23-.58-1.25-.94-1.47-1,2.45-.27,13.71-.51,12.99-5.29-.37-1.72-6.76,1.9-7.55,2.29-3.15,1.56-5.16,1.47-8.62,1.3,3.1-.5,6.03-3.06,5.33-3.76,2.41-.03,4.61-.33,5.31-1.05,2.06-2.11-12.22-2.66-12.73-2.66,3.88-1.71,7.11-.29,11.01-.7,4.12-.44,8.13-1.32,1.82-2.68.99-.3,8.71-3.04,7.33-4.88-.49-.64-6.77,1.86-7.73,2.07.79-.66,10-9.12,9.1-9.99Zm-42.66-54.66c1.67-2.1,3.75-3.9,6.14-5.13-2.53,2.52-3.62,4.67-6.84,5.89.23-.25.47-.51.7-.76Zm-7.49,6.7c-.02.53-1.18.21,0,0h0Zm14.07-.13c-.26.15-.53.31-.79.46-3.51,2.52-8.56,1.01-12.35.15,3.54-1.02,9.58-1.36,13.14-.61Zm2.15-4.98c-1.74-.07,2.6-.73,2.81-.74-.81.29-1.96.78-2.81.74Zm4.65-1.58c.4-.11.1,0,0,0h0Zm7.96-5.21c-.12.03-.29.08,0,0,.13-.04.08-.02,0,0,.27-.06.53-.11.8-.17-1.16.91-2.04,1.72-3.51,1.85,1.2-.63,1.16-1.23,2.7-1.68Zm-1.82,2.46c-.61.47-1.23.92-1.86,1.36.17-.12.45-.32-.1.07-.45.31-.03-.55-.72-.55.76-.2,1.87-.88,2.68-.88Zm-4.27,2.73c-1.19.56.77-.46,1.11-.56-.37.19-.74.38-1.11.56Zm-2.46-1.16c.96-.38,1.94-.73,2.93-1.05-.1.24.04.39.43.47-1.82.48-3.56,1.19-5.48,1.32.71-.25,1.42-.49,2.12-.74Zm-.25-3.25c-.07.03-.09.05,0,0,.48-.25.33-.17.15-.08.58-.3,1.15-.6,1.73-.89-1.04,1.46-2.29,2.69-3.86,3.57,1.35-1.07.62-1.89,1.96-2.6Zm-2.09,1.63c-.25.29-.52.57-.81.83-.46-.41-.29-.18.81-.83Zm-1.53,3.2c-.54.11-1.07.23-1.61.34.15-.07,1.72-.94,1.61-.34Zm-3.86.44c1.51-.96-1.1.7,0,0h0Zm-2.35,2.71c1.69-.49,5.78-1.94,7.5-.84-2.3,1.26-5.98,1.03-8.42,1.11.31-.09.61-.18.92-.27Zm-4.98,1.44s-.21.07,0,0h0Zm-1.11-.8c.08-.07.39-.04,0,0h0Zm-.81-.44c-.17.11-.7,1.51-.56,1.8-.01.24.3.3.67.29-1.43.13-2.7-.03-4.51.22,1.43-.91,2.87-1.63,4.4-2.31Zm4.48-10.91c-.28.99-.77,1.83-1.3,2.71.31-.63.15-.62-.41-.88.56-.62,1.13-1.23,1.71-1.83Zm-7.41,8.53c.22-.27.17-.21.07-.08,1.68-2.13,3.44-4.19,5.25-6.21-1.89,3.15-3.92,7.11-7.31,8.89.66-.87,1.32-1.74,1.99-2.6Zm-12.93,9.31c.87-1.2.19-.18,0,0h0Zm3.92-12.62c.61-.35-.23.15,0,0h0Zm2.27-.03c-.19.25-.37.48,0,0,.77-.99,1.56-2.17,2.54-2.97-2.16,3.85-3.89,8.13-6.77,11.51,1.2-2.91,2.26-6,4.22-8.52Zm-3.38,2.03c.15.28.35.35.6.19-.91,3.84-2.08,7.66-4.39,10.96.02-.02.01,0-.07.11,1.09-3.71,2.58-7.86,3.85-11.26Zm-.47,11.36c-.2.13-1.06.68.03-.02,1.03-.65-3.32,2.41-4.17,3.02,1.21-1.16,2.73-2.09,4.14-3Zm-38.02-30.5c-.34-.45-.27-.36-.12-.18-2.01-2.69-3.52-5.58-4.37-8.87.6,1.13,4.15,8.3,4.23,7.38.72,1.24,1.36,2.52,1.93,3.83-.54-.73-1.1-1.45-1.67-2.17Zm-1.59-4.44c.1.41.86,2.24-.42-.76.72,1,.28.21.42.76Zm6.19,10.17c-.22-.23-.22-.24-.14-.17-1.72-1.93-2.9-5.18-4.03-7.52,2.14,2.75,4.75,5.55,5.73,8.94-.61-.29-1.07-.8-1.55-1.25Zm-3.33-8.83c-.12-.16-.2-.27.07.08.27.36.18.24.05.07,1,1.36,1.8,2.81,2.57,4.31-1.4-1.67-5.55-5.6-5.9-7.83,1.22,1.04,2.23,2.12,3.21,3.38Zm-1.58-4.77c-.65-.22-1.27-.49-1.88-.8-.17-.27-.33-.53-.5-.8,1.21.55,1.93.46,2.38,1.6Zm-1.4-3.06c-.02.37-.35.38-.02.75-1.76-.99-1.51-.23-2.87-2.39.69.32,3.4,1.42,2.88,1.64Zm-1.14-2.71c1.15.39-.09.36-.22.36-.65-.44-.57-.56.22-.36Zm-1.49-.85c-.05-.05.22.02,0,0h0Zm-.34.97c.06-.27.62.27,0,0h0Zm1.41,4.27c-.89-.16-1.89-2.81-2.33-3.43.77,1.15,1.55,2.29,2.33,3.43Zm34.8-30.14c-.24-.23-.19-.17-.08-.07-1.01-.93-2.35-2.2-2.85-3.45,2.35,1.1,3.52,3.88,5.88,5.91-1.04-.72-2.01-1.51-2.93-2.37.14.13.27.25-.02-.01Zm5.49,3.97c-1.75-1.45-4.76-3.5-5.51-5.71,2.52.75,5.95,3.92,7.07,6.42-.48-.22-.96-.44-1.45-.66.09.05.16.09-.11-.05Zm-5.66-7.52c.82.34,1.61.76,2.36,1.25-.43-.17-.85-.34-1.28-.51,0,0-.07-.02-.22-.09-.29-.22-.58-.43-.87-.65Zm6.11,4.01c-1.14-.54-2.25-1.29-3.33-1.93.69.19,1.42.35,2,.79.51.31.95.7,1.33,1.15Zm1.98,2.62c-.67-.03-1.22-.35-1.67-.87.02.03.01.02-.16-.14-1.62-1.79,1.65.86,1.83,1.01Zm-.82-2.5c.43.35,1.53,2.12,1.44,2.05-.87-.68-.68-1.15-1.44-2.05Zm2.68,4.71c.29,1.11-2.02-1.07-2.23-1.41,1.1.15,1.8-.26,2.23,1.41Zm8.39-.19c-2.69-.15-9.5-3.36-10.56-6.22,1.33.72,10.96,5.16,10.56,6.22Zm-6.61-4.77c.47-.03.89.41,1.22.73.83.43-1.62-.7-1.22-.73Zm12.41,4.23c-.61-.06-1.2-.23-1.77-.48-.03-.01-.12-.04-.3-.11-1.98-2.68-6.7-3.41-8.95-5.93,2.97,1.03,9.77,3.23,11.01,6.52Zm-5.9-5.64c.23.15.12.08,0,0,.98.69,1.92,1.43,2.82,2.22-3.56-2.32-8.01-3.17-11.1-5.3,3.2.96,5.61,1.32,8.28,3.08-.12-.08-.23-.15,0,0Zm-6.48-1.17s.08.05.3.23c1.05,1.69,3.01,2.55,4.36,3.96-3.11-1.54-6.63-3.51-9.26-5.73-.46-.32-.81-.53-1.09-.67,1.72.05,3.48.48,5.69,2.21Zm-6.47-2.21c-.22.66,1.4,3.16,1.89,4.02-2.71-1.59-5.68-3.3-8.62-4.45,2.73.8,4.76.48,6.73.43Zm-.71-1.82c.68.3-.31-.03,0,0h0Zm.3.68c-3.01.75-3.84.25-6.14-.46.77-.08,1.11-.12,1.77-.02,1.7.29,2.35-.13,4.37.49Zm-4.07-1.23c.07.02.15.04.27.07-1.09.05-2.1-.43-3.17-.59.99-.01,1.95.26,2.9.52Zm-4.31-.33s.82.58,1.11.61c-.79.23-1.57.16-2.34-.21.01-.03.01-.06-.01-.07.4-.17.81-.28,1.24-.33Zm7.64-43.79c.19-.38.46-.67.84-.85,1.4-.01-1.75,3.34-1.68,3.32.65-1.51.09-1.05.85-2.47Zm-17.67,16.37c.33-.29.67-.58,1-.87.27-.26,2.32-2.49,2.63-2.3-1.1,1.17-2.57,2.25-3.63,3.17Zm1.84-3.35c.54-.53,1.06-1.09,1.56-1.65.19.9-.77,1.07-1.56,1.65Zm3.77-1.14c.28-.22.56-.44.84-.66-.02.28-.55.51-.84.66Zm-.29-.62c.21-.23,1-1.61.95-.97-.21.46-.53.78-.95.97Zm6.26-4.52c-.27.22-.5.45-.81.6.51-.47,1.02-.94,1.54-1.4-.22.24-.44.48-.66.72.03-.03.04-.04-.07.08Zm4.6-5c-.04.25-.15,1.1-.52.71.03-.08.04-.08.04-.06.16-.22.32-.44.48-.65Zm-4.63,3.4c.62-.54,3.78-4.45,4.32-4.29-2.03,2.13-3.42,4.01-6.08,5.69.58-.47,1.17-.93,1.75-1.4Zm-1.68,1.93c-.19.23-.37.45-.56.68-.47.97-.41,1.37-2.03,2.14,1-.97,1.43-2.01,2.58-2.82Zm-9.31,5.21c-.04.12-.08.24,0,0,1.36-4.06,7.72-10.41,11.36-12.38-2.71,3.41-3.51,8.34-7.51,10.78.55-1.11,5.36-7.79,4.13-7.56-1.47.25-2.93,4.63-3.85,5.84-1.43,1.89-3.16,3.28-4.87,4.89.28-.51.52-1.03.73-1.56Zm-1.52,4.77c.08-.05.06-.04,0,0,.29-.21.59-.42.88-.62-.72.97-1.51,1.54-2.85,2.11.63-.52,1.29-1.02,1.96-1.49Zm-7.19,5.89c1.32-.81,2.71-1.7,4.17-2.28-.14.05-.27.11,0,0,.27-.11.14-.06,0,0,1.74-.69,3.56-1.22,5.45-1.22-3.58,2.48-7.1,4.2-11.28,5.44.97-.47,6.85-2.19,6.92-3.3-.3-.84-4.71,1.15-5.26,1.35Zm-.4-3.08c-.36.54-.75,1.06-1.17,1.57.32-.57.74-1.07,1.17-1.57Zm-2.94.87c-.16.22-.31.45-.47.67.66-1.69,1.26-3.39,1.82-5.12-.3,1.48-.72,3.07-1.36,4.44Zm.47-6.08c.41-.89,1.03-1.72,1.54-2.55-.26,1.7-2.06,5.76-3.29,7.66.56-1.66,1-3.51,1.75-5.11Zm-.83,8.12c-.12.43-.19,1.07.45,1.12-.65.15-1.83.27-2.09.58.51-.6,1.05-1.17,1.64-1.7Zm-.73,2.23c-1.16,1.09,1.82.57-1.88,1.13-.04,0-.03,0,0,0-1.01.12,1.32-.96,1.89-1.13Zm-21.13,24.76c2.05-3.54,4.62-6.83,7.14-10.04-3.39,5.06-6.73,10.13-9.79,15.4.81-1.82,1.65-3.63,2.65-5.35Zm9.78-69.32c.41-.79.49-2.32,1.51-3.14.01,1.2-.88,2.47-1.51,3.14Zm2.08-4.01c-.07-.07.89-1.83,0,0h0Zm6.18.54c-.53.05-1.06.11-1.59.16.66-.94,3.49-2.01,4.59-2.44-1.36.96-1.25,1.6-3,2.28Zm3.11-9.53c-.5.92-.95,1.87-1.39,2.82-.58,1.24-.92,2.47-1.84,3.47.07-1.86,2.31-4.65,3.23-6.3Zm-3.11,4.96c.26-1.74,1.52-3.62,2.48-5.07-.71,1.73-1.62,3.41-2.48,5.07Zm3.55-2.96c-.61,1.51-1.32,2.97-2.22,4.33-.35.58.11.33-.75.84,1.17-1.62,2.08-3.39,2.97-5.18Zm-1.65,1.48c.25-.55.75-1.47,1.05-2.04-.33.69-.68,1.37-1.05,2.04Zm7.15,2.67c-.53.41-1.58.09-2.2.1.38-.25,3.53-1.1,2.2-.1Zm4.26-4.72c-1.12.67-.98.73-2.06,1.19.47-.64,1.03-1.64,1.77-2.02-.35.24-.42.55-.22.92.19.13,3.04-2.42,3.25-2.54-.68.91-1.78,1.87-2.75,2.45Zm1.96-2.9c-.55.57-.23-.19,0,0h0Zm2.22-4.12c-.04.39-.13.78-.29,1.15-.23.79-.61,2.18-1.63,2.23.68-1.09,1.17-2.35,1.92-3.38Zm-1.46,0c.37-.57.79-1.1,1.24-1.61.03-.54-.02,2.37-1.24,1.61Zm9.23-.65c-.88,1.3-2.04,2.8-3.32,3.72,1.57-1.86,2.98-3.9,4.52-5.8-.3.75-.7,1.44-1.2,2.08Zm-.36-3.17c-.11.27-.22.54-.33.81-.93.99-.06-.27.33-.81Zm2.42-5.54c0,.49-.13,5.77-1.78,5.66.21-.51,2.34-5.01,1.03-4.76.2-.35.45-.65.76-.9Zm-5.91,9.12c1.39-2.45,3.23-4.59,4.55-7.11-.84,3.11-3.15,7-5.91,8.78.49-.53.94-1.09,1.35-1.68Zm-1.69,2.86c-.32.28-.64.55-.97.83.02-.01,0,0-.07.06-1.25.94-2.17,2.34-3.33,2.94,1.69-1.61,2.3-2.63,4.37-3.82Zm-.8-6.16c.3.58.41,1.21.32,1.9-.11,1.16-.74,2.03-1.26,3.07.46-1.56.8-3.37.93-4.98Zm-4.73,2.54c.38-.46.81-.87,1.27-1.24-.26.27-2.03,2.7-2.39,2.61.37-.46.75-.91,1.12-1.37Zm3.24-2c-.06.05-.12.09,0,0,.12-.1.07-.06,0,0,.71-.62.87-.42.46.61-.77-1.43-4.37,5.55-4.94,6.11-.14-.45.84-1.58-.12-1.6,1.25-1.77,2.88-3.74,4.58-5.1Zm-5.91,5.8c.32-.57.61-1.16.99-1.68.31-.45-.53.91-.99,1.68Zm-2.86,5.12c-.7.37,0-.68,0,0h0Zm1.45.24c.23.72-1.98,2.01-2.25,2.16-.63.34-1.07.49-1.68.83,1.39-2.16,2.56-1.68,3.93-2.98Zm-5.01,2.31c-.16.21-.26.43-.15.6.49.55-2.22.97-2,.89,1.01-.68,1.7-1.16,2.15-1.49Zm-.65-2.86c-.49,1.1-1.07,2.2-1.78,3.17,1-2.53,1.73-6.05,3.34-8.28-.28,1.79-.83,3.46-1.56,5.11Zm3.19-8.83c-.06.01-.14.02.04-.01-.16.61-.46,1.05-.84,1.5-.62-1.24-2.55,2.85-3.08,4.01.93-2.01,1.11-5.02,3.87-5.5Zm-5.93,5.21c.14-.29.12-.24.06-.12.81-1.7,1.77-3.72,3.6-4.45-1.49,2.41-3.33,4.56-4.8,6.96.39-.79.77-1.58,1.14-2.38Zm-2.17,5.17c.27-.55,2.42-4.19,1.7-2.64-.08.17-.03.07,0,.01-.44.96-2.53,6.75-2.97,6.77.15-1.57.61-2.76,1.28-4.14Zm-1.61,2.4c-.4,1.28-.07.16,0,0h0Zm.06,4.52c-.63.28-1.26.56-1.9.84.14-.06.29-.12,0,0-.49.23-.99.47-1.48.71.79-1.51,1.77-1.62,3.38-1.55Zm-3.17-2.23c-.01.58-.05,1.16-.12,1.73-1.22.36-.15-1.03.12-1.73Zm-1.67-1.29c-.06,2.22,1.53-6.3.11-2.41.02-.27.09-2.57,1.1-1.44,1.77,1.95-1.1,5.43-2.28,6.66.33-.93.69-1.89,1.07-2.8Zm-1.47,4.36c.03-.16.4-.58,0,0h0Zm-3.35,4.47c.64-.6,1.62-.96,2.42-1.28-1.13.98-2.35,1.84-3.44,2.86.29-.56.64-1.09,1.02-1.59Zm.66,1.24c-.36.41-.72.82-1.08,1.23.01-.01.03-.03.04-.04-.01.01-.02.02-.04.04-.54.59-.17.19,0,0-2.1,2.32-4.64,4.29-6.48,6.83,1.79-3.06,4.84-5.82,7.56-8.06Zm-16.67,18.72c2.12-3.59,5.14-7.02,7.83-10.2-2.68,4.48-5.88,9.04-9.22,13.03.42-.98.85-1.92,1.39-2.84Zm8.91-29.27c-.05-.04-.1-.09,0,0,.11.09.06.05,0,0,1.05.89-.86,1.23-1.4,1.52.12-.87.42-2.35,1.4-1.52Zm-2.68.8c.11-.12.07-.07.01,0,.3-.33.63-.61,1.01-.84-.68,1.13-.56,1.04-1.54,1.57.15-.25.32-.49.51-.71-.05.06-.1.11.01-.01Zm.4,2.5c-.38.31-.76.62-1.14.94.16-.11.77-.72,1.14-.94Zm-2.6,1.44c-.29.28-.59.56-.88.85-.29.13-.57.27-.86.4.49-.54,1.07-.96,1.74-1.25Zm-3.58-7.8c.35-.56.82-.93,1.41-1.11-.86,1.51-1.3,4.81-2.2,6.74.21-1.45-.01-4.37.8-5.62Zm-.99,8c.51.16-.13,1.68-.15,1.74-.02-.55-.28-1.81.15-1.74Zm-.16-5.23c0,.65-.99,8.01-.2,7.53-.1.27-.34.54-.49.76-.04-.27-.07-.55-.11-.82,0,.07,0,.11,0-.02-.03-.35-.01-.15,0-.01-.23-2.46.16-5.07.8-7.44Zm13.64-42.49c-.09-.09-.19-.12-.29-.07.07-.3.15-.61.22-.91.09-.37.18-.74.27-1.11,0,.71-.07,1.4-.2,2.09Zm.49,3.93c-.08.47-.29.84-.62,1.13-.26-.7.55-1.6.93-2.13-.1.32-.2.64-.3.96.02-.04.03-.06-.01.04Zm-.07-1.89c.32-1.02.63-2.05.92-3.08.12,1.49-.06,2.03-.92,3.08Zm3.83-1.26c-1.09.73.46-.62.93-.88-.3.28-.6.57-.91.85.07-.05.19-.16-.03.03Zm2.95-.8c.35-.17.71-.32,1.07-.46-.69.62-1.59,1.36-2.48,1.62.35-.57.82-.96,1.41-1.16Zm.54-4s-.02.04,0,0h0Zm.07-.13c-.84,1.69-1.64,2.79-3.44,3.51.89-2.17,3.29-4.18,4.59-6.21-.34.92-.72,1.82-1.16,2.7Zm-2.45-.04c.22-.32.11-.15,0,0,1.06-1.52,4.42-9.86,6.74-9.49-.04,2.41-3.01,5.89-4.46,7.87.46-1.6-3.45,3.76-3.8,4.22.45-.9.95-1.77,1.51-2.6Zm-.07.11s.02-.03.03-.04c-.01.02-.02.03-.03.04Zm-2.05,4.31c-.77,1.37-.84,2.69.89,2.25-.5.29-1,.58-1.49.87-.33.1-.67.19-1,.29.62-.88.14-2.05,1.61-3.41Zm-2.14-7.32c.18-.29.1-.15.04-.06.44-.7.37-.64,1.03-.9-.17.75-.35,1.51-.52,2.26-.09-.86-.78-.93-.54-1.3Zm-3.18,8.81c.09-.35.06-.23.02-.07.71-2.82,1.46-5.46,2.79-8.07.25,1.13.49,2.59.21,3.7.02-.67-.57-2.69-1.11-1.2-.83,2.39-1.54,6.05-1.72,8.62.1-.35-.44-1.96-.19-2.98-.05.2-.1.39,0,0Zm-23.02,17.07c-1.15,1.46.66-3.07.63-2.98.01.17-.19,1.62.27,1.53-.42.38-.72.86-.9,1.44.06-.08.2-.27,0,0Zm4.9-12.29c-.15.86-.39,1.69-.63,2.53.1-.3.08-1.52.63-2.53Zm-1.5,2.82c.25,1.9-.3,3.21-1.04,4.92,0-.02,0,0-.04.09-.2.4-.42.79-.68,1.17-.12-1.96.58-4.6,1.75-6.18Zm-3.9.07c1.5-1.53-1.55,4.71-1.52,5.37-.07,1.28,3.13-3.1,3.32-3.24-.86,1.93-2.11,3.65-3.15,5.56-.4-2.73-.8-5.49,1.35-7.68Zm-2.18,9.08c.34-.14.12.43,0,0h0Zm-.82.41c-.02.06-.02.06-.02.06-.45,1.28.48-1.5.02-.06Zm.03-8.81c-.04.26.22,1.2-.1.53,0-.19.01-1.1.1-.53Zm-.99.67c.75.69.72,4.29.52,5.16-.11-1.27-1.36-4.11-.52-5.16Zm12.69-48.54s-.53.85,0,0h0Zm.69-1.11c-.02.11-.26.42,0,0h0Zm4.47,3.29c-1.35.63-3.12.55-4.54.38,1.84-1.29,3.58-.49,5.59-1.1-.35.24-.69.48-1.04.72Zm5.01-4c.57-.05-3.58,2.73-1.15.97.02-.33-.1-.55-.35-.64.5-.11,1-.22,1.5-.33Zm-3.17,1.07c.41-.13.82-.16,1.23-.07.89.85-3.46,1.69-3.84,1.68.67-.4,1.73-1.55,2.61-1.61Zm-1.47-2.8c-.42.58-.97,1.52-1.68,1.78-.05-1.01.81-1.38,1.68-1.78Zm-.98-.42c-1.06.65-.63-.04,0,0h0Zm-.84,3.06c-.99.58-2,1.18-3.03,1.69.5-.78.55-1.27.95-1.91-.2.26-.25.53-.17.82-.07,1.13,1.46-1.21,1.57-1.33.02.44.22.72.69.74Zm-1.83-.62c.63-.99,1.26-2.98,1.16-1.34-.49.43-.81.82-1.16,1.34Zm1.61-7.81c.16-.31.33-.62.49-.93-.09.39-.53,2.08-.62,2.32.04-.46.09-.93.13-1.39Zm.92.23c-.1,1.97-.87,3.84-1.83,5.55.11-.2.28-.5-.03.05-.06.11-.06.1-.02.04-.22.36-.44.71-.66,1.07,1.01-2.13,1.69-4.5,2.54-6.71Zm-1.72-1.46c.03.56.15-.24-.68,1.3.2-.39.41-.78.61-1.17,0,0,0-.02.07-.13Zm-.4,3.57c.11,1.14-.9,3.31-.91,3.48.04-1.23.34-2.4.91-3.48Zm-4.36,8.32c.04-.94.05-.04,0,0h0Zm.09-1.45c0-.44.07-.87.23-1.28.19-.47.11-.05-.23,1.28Zm.77.73c.04-.85-.06-1.74.17-2.57-.02.08-.04.15,0,0,.04-.15.03-.09,0-.01.51-1.71,1.54-3.39,2.4-4.93-1.06,2.34-.66,5.73-2.58,7.52Zm-9.62,13.84c.11-.19.15-.26.16-.27,1.95-3.25,4.26-6.84,7.43-8.95-1.46,1.8-2.94,3.59-4.37,5.41-.21.26-4.04,5.35-3.24,3.84,0,0,0,0,.02-.03Zm6.9-15.16c.49.2.49.69,0,1.47.01.96-.15,1.88-.48,2.76.32-1.19.37-2.98.47-4.24Zm-1.08,3.8c-.09-.57-.24-.59.1-.87-.03.29-.07.58-.1.87Zm.03-2.09c-.5.99.84-4.76.33-2.17.17.79.06,1.52-.33,2.17Zm-.34-4.77c-.05.95.13-5.17.31-3.92.19,1.5,0-.06,0,0,.16,1.25.28,2.5.35,3.75-.29-.08-.44-.2-.65.17Zm.62-6.31c.1.95.17,1.84.22,2.8-.09-.91-.56-1.99-.22-2.8Zm-.34-3.23c.22.63.4,1.27.55,1.92-.7-.02-.77-1.18-.55-1.92Zm-2,13.41c-.08-1.47.06-2.98.12-4.45-.02.63-.04,1.36.02-.33.02-.98.05-1.96.1-2.95-.03,1.11.67,7.4-.23,7.72Zm-13.9-29.72c-.05-.09.23-.44,0,0h0Zm-2.91-1.1c-.19.76-.46,1.5-.75,2.23.25-.71.49-1.56.75-2.23Zm-1.35,4.54c.12-.52.72-.94,0,0h0Zm1.07-5.62c.38-1.64-.14.62,0,0h0Zm-1.15-4.45c.03-.15.04-.2.04-.19.15-.76.73-3.39,1.24-3.5.28,3.31-1.02,6.39-1.66,9.59.06-1.93.05-3.91.38-5.83-.03.15-.05.25,0-.06Zm3.63,7.21c.18,3.05-3.1,5.6-5.26,7.25.21-1.94,3.83-5.84,5.26-7.25Zm-9.4-1.73c1.03,1.76,1.21,3.27,1.09,5.25-.47-1.81-.9-3.61-1.19-5.45.1.16.11.2.1.2Zm-.07-1.59c-.21-.35-.28-.43-.3-.89-.01-.37.09-.08.3.89ZM21.54,7.88c-.13,2.13-.48-1.36,0,0h0Zm.96,5.86c-.06-.22.01.05,0,0h0Zm.17-1.24c-.29-.49-.33-.72-.34-1.28.68-.14.4.52.34,1.28Zm-13.3-5.25c-.07-.14-.59-.95-.4-1.22.6-.85,5.79,6.34,6.04,6.85-.82-.66-5.58-6.35-5.64-5.63Zm19.81,13.97c1,1.57.71,4.02.88,4.63-.5-1.81-1.07-2.86-.88-4.63Zm.19,5.31c-.46-.41-.61-.94-.46-1.59.17.52.32,1.05.46,1.59Zm-4.6-3.68c.48.78,2.99,3.57,3.81,6.06-1.24-2.04-2.56-4.03-3.81-6.06Zm4.13-4.49c.18.28.35.56.53.84.34.6.56,1.23.65,1.89-1.14-1.93-1.01.13-1.18-2.73Zm-.03,11.91c-.29-.62-.45-1.75.35.83-.12-.28-.23-.56-.35-.83Zm-14.61,7.53c-.47-1.03-.89-2.02-1.12-3.13,1.92,1.88,3.04,5.67,3.81,7.54-1.19-.95-2.08-3.06-2.69-4.41Zm1.42,4.09c.76,1.08-.65.04,0,0h0Zm-5.61-2.55c-1.78-1.64-2.9-3.88-3.99-6,2.54,1.71,3.43,4.73,5.64,7.25-.6-.34-1.16-.75-1.66-1.25Zm1.97.06c.59.5,1.13,1.06,1.63,1.66-.8-.21-1.24-1.01-1.63-1.66Zm5.3,5.36s.05,0,0,0h0Zm-.38.05c-.08.01-.06,0,0,0h0Zm.18-.02c-2.77.35-4.96-.78-7.04-2.5,1.12.62,8.32,1.39,8.66,2.18-.54.11-1.08.21-1.62.32Zm16.49,28.82c.05.08.04.07.02.04.19.34.39.69.58,1.03-.85-1.17-1.76-2.35-2.41-3.65.62.81,1.2,1.65,1.76,2.51-.12-.18-.27-.42.05.07Zm-6.42-7.02c.32-.08-.07,1.5,0,0h0Zm5.39,9.12c.32.38.77,1.03,0,0h0Zm-2.37-3.74c-.8-1.05-1.37-3.89-1.85-4.3.67-.71,1.93,1.46,2.18,1.76-.51-.62.67,2.85.44,2.51,1.26,1.43,2.28,3.05,3.46,4.55-1.61-1.33-2.9-2.77-4.23-4.52Zm13.19,10.42c.07.2-.14-.39,0,0h0Zm-1.14-1.34c.1.45.32.83.64,1.13-.91-.35-1.56-3.31-1.94-4.24.62.95.88,1.95,1.26,3-.03-.09-.05-.14.04.11Zm-4.24-9.81c-.2-.34-1.2-2.01-.5-1.88,3.27.56,5.16,8,5.32,10.6-.49-.89-4.65-11.27-4.82-8.72Zm2.56,4.8c-.29-.43-.57-.85-.86-1.28-.29-.77-.53-1.55-.75-2.34.69,1.13,1.15,2.39,1.61,3.62Zm-1.55-1.59s0,0,0,0c0,0,0,0,0,0Zm.23,7.61c-.92-.76-1.83-1.57-2.68-2.45,1.37,1.06,4.21,2.64,3.22-.37.86,1.7,1.22,3.36,1.83,4.59-.82-.54-1.61-1.13-2.37-1.76Zm1.39-3.65c-.26-.37-.08-.13,0-.02-.53-.85-.94-1.75-1.22-2.7,1.23,1.67,1.8,4.04,2.59,5.96-1.21-1.01-.96-2.68-1.36-3.24Zm1.62,4.79c.4.15.39,0,.63.63-.37-.1-.58-.31-.63-.63Zm.85-.11c.31-.02.45-.13.41-.34.17.47.24.95.22,1.44-.25-.34-.46-.71-.63-1.1Zm-40.99,1.66c.07-1.28,1.71-.1,2.04.25-.63.01-2.1.76-2.04-.25Zm1.57,1.38c1.67.17-.37-.04,0,0h0Zm9.62,6.3c-1.96.92-4.04,1.27-6.19.81,1.4-1.07,1.92-1.38,3.58-1.31-3.26.77,3.08.28,2.6.5Zm8.17-7.13c-.12-.1-1.59-.54-2.2-1.04.78.26,1.51.6,2.2,1.04Zm-2.17-.28c-1.36-.54-2.71-1.28-3.97-2.04,1.6.56,2.74.89,3.97,2.04Zm-9.51,1.81c-.22-.13.25.05,0,0h0Zm-4.16-1.01c.36.07.72.13,1.08.2-.44.06-2.22-.35-1.08-.2Zm1.06,1.84c-.18-.06-.11-.04-.01,0-.4-.21-.8-.42-1.2-.63,1-.08,1.96.61,2.82,1.1-.52-.15-1.05-.3-1.57-.44.13.05.26.09-.04-.01Zm.04-.82c1.45-.27,3,.77,4.17,1.5-1.06,0-1.51-.11-2.48-.66-.55-.3-1.11-.57-1.68-.83Zm4.54,3.21c-.25-.07-.13-.04,0,0-.97-.28-1.9-.66-2.8-1.12,1.83.28,2.81.71,4.49,1.45-.57-.04-1.13-.16-1.68-.33.13.04.25.07,0,0Zm.03-.91c.76-.09,1.02-.74.35-1.29-1.3-1.07,3.4.88,2.67.67-1.71.28-.4,1.62,1.08,1.16-1.49,1.33-2.29.32-4.09-.53Zm4.34-1.49c.24.24-1.05-.03,0,0h0Zm4.15-1.36c-.31.36-.68.64-1.12.85-.76.45-2.42-2.12-2.8-2.57,1.05.74,3.13.85,3.92,1.72Zm-2.04,3.17c.27.03-.01.04,0,0h0Zm-1.9-3.9c.26.28.53.56.79.83-.4-.07-.66-.35-.79-.83Zm.63,4.25c.1.4-.11.32-.52.5-.24.1.69-.65.52-.5Zm.68,1.09c-.34-.6.39-.52.89-.63-.25.18-.51.36-.76.54.01,0,0,.02-.12.09Zm.51.47c.67-.24,1.21-.65,1.63-1.23.12.31.5.35.45.72-.12.9-1.51.55-2.08.5Zm2.66-3.77c-1.43-.08-.17-.3.2-1.02.6.83.54,1.17-.2,1.02Zm4.69-.26c.22-.15.45-.31.67-.46-.05.02-.09.04,0,0,.11-.04.08-.03.04-.02.84-.35,1.87-.74-.71.48Zm19.83-1.53c.33.15.67.3,1,.45,1.35.65,2.76,1.6,3.88,2.61-1.7-.62-3.33-2.1-4.88-3.06Zm9.8,7.84c-.27-.53-.58-1.05-.7-1.25.29.26.52.75.7,1.25Zm.23,1.58c.07-.03.11-.09.14-.16.08.53.05.76-.14.16Zm1.07-3.13c.03-3.21.65-6.09,1.55-9.19-.58,3.71-.29,7.54-1.31,11.18-.37-.81-.24-.64-.24-1.96.01-1.36,0-.38,0-.03Zm-27.29,23.31c.7.51,1.34,1.07,1.95,1.68-2.1-.7-3.64-2.25-5.32-3.65,1.13.57,2.37,1.18,3.37,1.97Zm1.77,2.24c.39.14.82.64.89.66-.31-.11-.67-.48-.89-.66Zm2.41.51c-.18.26-.19.52-.02.79-.56-.25-1.15-1.33.02-.79Zm-15.87-1.82c-1.1-.55-5.07-3.27-4.69-4.81,1.24-1.45,7.69,3.18,9,4.05-1.87-.63-5.41-1.33-6.53-2.98-.27-.23-.27,1.11-.19.93-.32.53,4.46,3.37,5.05,3.81-.9-.27-1.78-.6-2.64-.98Zm-3.85,5.77c-1.73-.03-3.41-.5-4.98-1.19,2.18-.27,3.94.7,5.98,1.13-.33.02-.66.04-1,.06Zm0-1c.54.03,1.07.06,1.61.09,1.32.02,1.5-.08,2.48.16-1.45.17-2.68.16-4.09-.25Zm22.51-1.26c.35,0,.7,0,1.05,0,.03,0,.1,0,.25,0-.76.47-1.19.47-1.3,0Zm17.5,2.36c-4.34-1.61-8.71-.37-13.08-2.03,4.59.3,10.79-.14,14.54,2.62-.49-.2-.97-.39-1.46-.59Zm12.06,8.23c-1.87-1.42-3.72-2.88-5.57-4.33,1.49.38,2.39.98,3.67,1.74,1.22.73,1.3,2.15,1.9,2.59-.91-.69.02.02,0,0Zm-42.48,17.14c-.17.06-.24.08-.27.09.05-.02.19-.06.26-.09-.82.28-1.94.79-2.54-.14.29-.06.36-.26.22-.6.6,0,4.1.15,2.33.74Zm3.4-3.2c-.03-.9.82-.45,1.56-.28-.52.09-1.04.18-1.56.28Zm-.89-.51c-.22,1.26-4.19,1.62-3.83.7.15-.36,3.43-1.39,3.59-1.48,2.18-1.22,3.74-.78,5.54.96-.89-.28-4.94-2.03-5.3-.18Zm2.79,12.24c-.08.04.4-.22,0,0,.47-.25-.39-2.49,1.36-3.07-1.4.99-1.44,2.49.32,1.41-.42.49-1.05,1.31-1.68,1.65Zm9.51-8.7c-.37-.24-.73-.48-1.1-.72,1.39.09,1.76.34,1.1.72Zm12.07,11.94c.16-.13-.03.12,0,0h0Zm4.2-2.51c-.75.09-.37-.2,0,0h0Zm-10.93-5.38s-1.36,1.64-1.48,1.87c.23-1.32.06-1.43,1.48-1.87Zm-4.69,7.2c-.37-2.18.53-4.98,2.52-6.08-.11,1.47-.84,3.08-1.52,4.36-.19.37-.7,3.47-.99,1.72Zm.86,1.49c.12-1.02.39-1.91.87-2.82.53-1.01,2.18-1.53,3.2-2.42-.72,1.69-3.03,3.65-4.07,5.24Zm1.99-4.65c.8-1.48,1.61-2.7,2.99-3.71-.74.55-1.74,2.79-2.99,3.71Zm-.64-6.43c-.28-.14-.16-.08,0,0-.7-.39-1.39-.79-2.09-1.18.18-.05.32-.14.41-.29,4.05,1.73,7.9,3.92,11.96,5.62-4.19-.85-6.69-2.36-10.27-4.15Zm5.29,3.72c.58-.6-.25,1.61,0,0h0Zm.2,3.16c-.18.45-.48.79-.9,1.04-1.18-.64.45-2.76,1.08-3.02.03.66-.03,1.32-.18,1.98Zm3.07-1.96c-.19-.06-.12-.04,0,0-.54-.17-2.07-.56-2.21-1.15,1.19.48,6.67,1.09,6.85,2.82-.03-.05-.06-.03-.09.08-1.43-.75-3-1.25-4.54-1.75.17.05.4.13,0,0Zm1.9,4.63c.08-.04.13-.07.17-.09-.09.05-.18.1-.17.09,1.21-.66,2.01-.83,3.37-.98-1,.93-2.57.51-3.7,1.75-.04-.38.08-.64.34-.77Zm4.39.14c-.68.92-2.35,1.38-3.43,1.41.27-.16,3.84-1.96,3.43-1.41Zm-.2,1.67c.05-.07.09-.13,0,0-.13.19-.06.09,0,0-.9,1.31-3.4,1.93-4.82,2.25.91-2.65,3-1.37,5.26-3.04-.15.26-.29.53-.44.79Zm1.72-2.71c0-.34.17-1.57-.5-1.52-.39.24-.51.57-.35.99-3.48-2.18-.3-.69-1.75-2.3,1.52.79,2.98,1.67,4.42,2.6.05.02.25.14.75.47-2.44-.79-.03,1.37-2.58-.24Zm1.71,1.04c.91-.18,1.5.64,2.11,1.19-.7-.4-1.4-.8-2.11-1.19Zm1.78-.2c1.99,1.32,3.76,2.81,5.48,4.45-.15-.16-.12-.16.5.45-2.21-1.52-3.9-3.2-5.98-4.9Zm8.51,7.71c-.4-.38-.18-.17,0,0-.72-.69-1.31-1.14-2.14-1.69.22-.06.33-.2.31-.43,1.19,1.2,2.33,2.46,3.43,3.75-.53-.54-1.05-1.08-1.58-1.62.13.12.23.22,0,0Zm6.87-1.92c.14,1.1.29,2.21.37,3.32-.61-1.09-.74-2.19-.37-3.32Zm-.77,7.27s-.08.06,0,0c.13-.09.21-1.78.24-1.97.37,1.43.65,2.87.98,4.2-.82-.95-1.9-1.74-1.23-2.24Zm2.27.68c-.16-.35-.08-.67.22-.96-.03.48-.12,1.46-.22.96Zm-63.09,22.23c-.09-.36.01-.09,0,0h0Zm-7.17,3.95c-.16-.22-.31-.45-.47-.67.96.77,1.91,1.55,2.83,2.36-.29-.02-.43.19-.45.46-.65-.68-1.27-1.38-1.87-2.11.06.09.12.17-.04-.04Zm3.82,5.15c1.26,1.12,2.33,2.03,2.74,2.41-.62-.22-1.62-1.18-2.74-2.41Zm4.34,2.35c-2.41-.52-4.76-6-6.58-7.55,2.1,1.03,6.74,7.58,6.58,7.55-.08-.02.27.06,0,0Zm1.23-.23c.21-.26.01,0,0,0h0Zm-.21,4.07c-.2.04-.09.02-.01,0-2.4.54-5.34-.7-7.49-1.66,2.82.23,5.76.23,8.31,1.46-.27.06-.53.13-.8.19Zm1.07-.96c1.38.08,1.95-.86,2-.2.1,1.09-1.8.27-2,.2Zm11.33,4.45c-.33-.18-.65-.39-.97-.59.92.54,1.92,1.12.97.59Zm-7.75-5.09c1.7.88,3.36,1.84,5.04,2.77.95.52,2.48.93,3.25,1.72-2.87-1.4-5.7-2.6-8.29-4.49Zm6.93,1.32c-.85-1.34-1.52-2.9-2.03-4.4.17.42,2.04,4.88,2.58,3.43.31.79.64,1.58.97,2.37-.89-.51-.98-.43-1.52-1.4Zm2.01,2.46c.5,1.02-.86-.4,0,0h0Zm.91.57c.17-.14,1.55.4,0,0h0Zm30.93,5.01c-.14.01-.27.03-.41.04-1.26.04-.49,0,.41-.04Zm-40.05,25.7c-.67.22-1.65.51-2.3-.03.64-2.34,5.84-3.77,7.88-4.4-2.13.96-3.92,3.96-5.58,4.42Zm-2.9,7.15c.18-.51.44-.99.75-1.44,0-.02.05-.09.18-.28-.31.58-.62,1.15-.94,1.72Zm4.77-3.84c-.22.31-.16.22-.06.08-1.01,1.41-2.33,2.87-3.79,3.82,1.16-2.12,2.68-5.69,5.11-6.53-.41,1.03-.62,1.67-1.22,2.56.11-.15.18-.26-.04.06Zm1.73-4.43c.26-.03,1.51-.82,2.01-1.03-.45.27-1.46.97-2.01,1.03Zm1.31-2.29c.65-.35,1.48-.79,2.21-1.03,1.49-.5-2.21,1.03-2.21,1.03Zm18.75-7.17s.57-.38,0,0h0Zm-1.08.75c-.16-.33.51-.37,0,0h0Zm-14,2.76c2.43-1.42,6.04-2.42,8.85-2.7-2.74.9-5.78,3.46-8.85,2.7Zm1.9,2.12c3.1-1.77-.57-.65,2.12-1.47-.47.72-1.25,1.01-2.12,1.47Zm8.68-4.01c.69-.26.33-.82,2.35-1.03-.76.37-1.55.73-2.35,1.03Zm.6,5.37c0-.1-.06-.09-.12-.04.17-.26.38-.6.64-1.04-.12.34-.29.67-.48.98.06-.12.14-.27-.05.1Zm.39-2.64c.03,1.27-1.24,2.6-1.95,3.63.55-1.13,1.12-2.24,1.77-3.32-.03.03,0-.01.18-.31Zm-1.18,5.99c-.14.24-.11.17-.04.07-.78,1.29-1.67,2.58-2.73,3.66,1.5-2.39,2.9-4.83,4.26-7.3-.4,1.19-.84,2.44-1.47,3.54.08-.13.13-.22-.02.04Zm5.02-9.51c-.51.87-1.06,1.83-1.54,2.78,0-.25-.07-.49-.26-.74.01,0-.96.21-1.04.3.54-1.2,2.47-2.43,3.38-3.17-.18.28-.36.55-.54.83Zm.8,3.6c.58-1.42,1.87-4.1,2.53-4.47-.89,1.46-1.74,2.95-2.53,4.47Zm1.84-2.41c-.2.51-.39,1.02-.59,1.53-.58-.19.4-1.21.59-1.53Zm.58-4.1c.95-.71-1.75,2.34-2.25,2.96.58-.94,1.25-1.76,1.95-2.59.04-.05.12-.15.3-.37Zm-2.52,8.45c.35-.57-.51,1-.53,1.02.18-.34.35-.68.53-1.02.03-.05-.19.34,0,0Zm-3.97,4.79c.16-.33.1-.19.02-.03,1.12-2.24,2.32-4.45,3.51-6.65-1.52,3.82-2.88,7.7-5.26,11.05.45-1.48,1.03-2.97,1.72-4.35-.08.17-.16.32,0-.02Zm3.22-2.44c-.86,2.67-1.97,5.2-3.52,7.54.36-1.71,1.13-3.38,1.74-5.01.49-.9,1.19-1.69,1.78-2.53Zm-6.72,11.79s.27-.73.66-1.62c-.11.47-.09.87.23,1.03-.29.2-.59.39-.88.59.05-.03.19-.09,0,0Zm1.82-4.14c.1-.19.18-.34.23-.42-.04.08-.13.24-.23.42Zm8.12-10.71c-.03.09-.05.14-.06.18.02-.05.04-.11.06-.18-1.82,5.31-3.86,9.04-7.81,13.07,1.22-1.9,2.72-2.66,3.23-4.01,1.4-4.18,3.32-7.98,5.4-11.84-.24.94-.51,1.86-.81,2.78.07-.2.13-.37,0,0Zm.92-3.17c-.17-.14-.42-.51-.62-.33.01-.04,1.23-2.55.1-2.28.34-.17.72-1.09.99-1.41,0,.44-.01.89-.02,1.33-.03,2.07-.31.12-.45,2.69Zm14.75-16.27c-4.13,2.65-7.74,5.99-11.87,8.66-.04-.19-.22-.23-.54-.13,3.85-3.24,8.46-7.55,13.33-9.03-.31.17-.61.33-.92.5Zm9.21-2.49c1.11-.29,2.35-.6,3.51-.67,1.65-.14,3.25.56,4.24,1.82-2.68-1.01-4.9-1.22-7.75-1.15Zm13.47,1.44c-.12-.52.17.1,0,0h0Zm-1.61-6.8c.49,1.35.74,2.78,1.06,4.18.54,2.37-1.02-4.02-1.06-4.18Zm-.82,9.88c.88.12,1.15,1.27,1.66,2.22.14.62.29,1.25.43,1.87-.78-1.3-1.59-2.65-2.09-4.09Zm2.28,4.97c-.08-.16-.09-.43,0,0h0Zm1.81-5.9c.9.09-2.05-.21,0,0h0Zm.31,10.29c.02.14.09.71,0,0h0Zm.3,2.33c.09.63.18,1.25.25,1.88-.35-2.36-.43-2.99-.25-1.88Zm.49,3.92c-.14-.67-.22-1.34-.24-2.02.45,4.04,1.25,8.04,1.73,12.09-.65-3.09-.86-6.66-1.49-10.06Zm-33.41,38.45c-.19-.14-1.09-.57-1.25-1,.78.27.57.24,1.25,1Zm-.27.88c-.08-.06-.06-.05-.02-.01-.29-.24-.58-.48-.87-.71.22-.04,1.8,1.34,2.11,1.6-.4-.29-.8-.57-1.2-.86.09.07.21.16-.01,0Zm18.98,2.5c.43-1.55.2-.72.04-.15.84-3.03,1.6-5.22,3.5-7.75,2.83,1.84-.42,9.95-.88,13.67.24-3.87,1.2-15.62-.44-5.42.06-5.44-2.63.84-2.6,2.69-1.07.13.29-2.73.37-3.04Zm2.63,6.93s-.01-.1,0-.26c0,.08,0,.18,0,.26Zm-4.73-14.62c-.03.07-.07.15,0,0,.04-.07.02-.04,0,0,.54-1.1.02,3.1.02,3.17.14,2.13-.08,4.55-.34,6.68-.99-2.68-.96-7.18.31-9.84Zm-1.78,10.2c.04.2-.45.42,0,0h0Zm-9.13-4.25c.15.14.08.07,0,0,.65.65,1.36,1.21,2.14,1.7-1.7.03-3.68-2.88-4.34-4.05.73.78,1.41,1.61,2.19,2.34-.07-.07-.14-.13,0,0Zm-2.02-.22c-.14-.2,1,.85,1.44,1.25-.7-.08-1.18-.5-1.44-1.25Zm2.64,5.84c.6.19,1.13.5,1.58.93-.56-.25-1.09-.56-1.58-.93Zm-2.26-3.33c1.61.76,4.13,1.36,4.67,3-.02-.05-.03-.11,0,0,.15.26.3.52.45.78-2.14-.94-3.39-2.23-5.12-3.79Zm7.77,1.39c.49.23.98.46,1.47.69-.69-.05-3.64-.61-3.68-1.57.81.22,1.49.46,2.21.88-.16-.09-.35-.2,0,0Zm6.33,7.39c-2.07-.33-7.99-3.64-8.66-6.16,1.17.59,6.46.43,6.45.4.4.03.28.38.32.7-1.16-.54,2.82,5.32,1.89,5.06Zm.42-2.21c-.18-.05-.08-.02,0,0-2.77-.81,1.26-5.75,1.66-7.06.24,2.57-.38,5.37-1.04,7.88-.17-.15-1.14-.97-.62-.82Zm3.06,3.52c-.33-.4-.29-.35-.16-.19-.6-.74-1.22-1.46-1.86-2.15.09,0,.21-.39.26-.6,3.1,2.1,4.6,4.82,6.53,7.99-1.62-1.68-3.31-3.23-4.77-5.05Zm-38.39,28.71c-.57-.64-1.09-1.33-1.55-2.05.95-.16,2.28,2.09,2.29,2.85-.24-.27-.49-.53-.73-.8Zm-13.1-.27c-.21-.09-.12-.05-.01,0-1.35-.56-4.23-2.02-4.34-3.65-.06-.96,1.43-.61,3.12.09.14.41,3.31,2.9,4.04,3.37-1.73-.48-5.64-4.31-6.47-3.3-.99,1.1,6.52,3.51,6.58,4.17-1.01-.08-1.98-.3-2.92-.67.11.05.22.09,0,0Zm.31-2.87c1.5.73,2.82,1.51,3.02,1.66-1.18-.16-2.06-.99-3.02-1.66Zm3.88,2.43c-.05.22-.18.06,0,0h0Zm-2.98,6.31c-.06,0-.08,0,0,0h0Zm-1.88,1.18c-1.49.11,1.11-.09,1.16-.09-.39.03-.77.06-1.16.09Zm.09-.71c.63-.18,1.26-.34,1.91-.48,1.42-.17,2.05-.18,3.4-.12-1.96.99-3.18.57-5.31.6Zm6.52-1.52s-.66.16,0,0h0Zm-3.82-.29c1.15-.31,2.31-.57,3.47-.78-.29.05-.88.16.02,0,.53-.1,1.06-.19,1.58-.29-1.63.49-3.27,1.4-5.08,1.08Zm12.37-2.59c.27-.31,1.25.41,1.73.75.11.02-2.26,0-1.73-.75Zm-9.03-5.72c.88.68,1.6,1.62,2.3,2.47-.78-.58-1.9-1.53-2.3-2.47Zm1.44-.04c.62.8,1.32,1.54,1.98,2.31.1.12.08.09.04.05.59.66,1.17,1.33,1.73,2.01-1.35-.6-2.88-3.16-3.75-4.37Zm3.89,8.67c-.26.28.12-.13,0,0h0Zm-2.05-.21c-.79.33.58-1.52,2.53-.83-.86.22-1.7.5-2.53.83Zm7.5,1.02c-.35,0-.18,0-.03,0-1.36.03-2.73-.05-4.06-.37,1.63-1.29,3.13-.11,5.1.31-.32.02-.64.04-.96.06.06,0,.08,0-.06,0Zm5.41-.48c-.29.06-.22.04-.1.01-3.81.77-8.18-1.06-11.38-2.24.12-.21.15-.44.1-.7,3.96.65,8.61,3.23,12.64,2.59-.42.11-.85.23-1.27.34Zm29.59.41c-.83-.13-.18-.03,0,0h0Zm5.99,1.3c.76.1,1.49.3,2.2.59-.75-.15-1.48-.34-2.2-.59Zm-7.29,19.34c-.08.79-.5,4.73.02,4.76-1.22-.07-.13-4.3-.02-4.76Zm.5-.15c0-.22.02-.31.03-.36.05-.8.14-1.55.49-2.3-.18.88-.36,1.77-.52,2.66Zm-5.65-11.51c-.09.45-.35.61-.76.49.24-.18.49-.34.76-.49Zm-3.68,4.18c-.34-.11,1-2.59,2.01-2.47,1.97.22.93,1.43,2.5,1.64-1.25,1.36-2.66,1.44-4.51.84Zm4.26-1.72c.11-.39.99-.15,1.21-.15-.25.27-.76.86-1.21.15Zm1.31.99c-.6.39-.14-.01,0,0h0Zm1.06-1.16s.02-.03.06-.07c.26-.07.53-.07.81,0-.22.13-1.84,1.05-.87.06Zm-2.29-1.78c.27-.4.57-.78.88-1.14,1.01-.17,2.51-.45,3.48-.21-2.14,1.66-1.62,1.46-4.35,1.35Zm2.16,7.17c.58-.09.49.18-.27.82-.05.16.25-.82.27-.82Zm-2.68,1.13c.18-.23.12-.16.04-.05.67-.9,1.4-1.76,2.17-2.58-.36,1.52-2.72,3.52-3.6,4.83.4-.75.86-1.48,1.36-2.17-.09.12-.17.22.02-.03Zm-1.52,5.25c.43-.3,2.02-4.7,3.17-5.91-.59,2.01-1.35,4.63-3.17,5.91Zm-1.01,1.92c-1.81,1.49.69-3.49.87-3.76-.41.73-1.82,3.94.42,2.65-.43.37-.86.74-1.29,1.12Zm5.57-5.15c-.85,2.36-2.65,4.28-4.83,5.49-.05.05,2.83-2.66,2.47-3-.32-.08-.56.05-.71.37,1.18-1.53,2.36-2.85,3.44-4.59-.12.58-.24,1.15-.37,1.73Zm-.15-3.97c.27-1.01.77-1.47,1.43-2.33-.3,1.01-.28,2.39-1.43,2.33Zm1.5-4.08c.78-.43.95-.45,1.83-.39-.64.27-1.03.4-1.69.38,0,0-.01,0-.13,0Zm2.03,1.27c-.71.42-1.26,1.01-1.65,1.77.16-.45.46-2.18.46-2.18.13,0,2.33.3,1.19.41Zm-.07-3.18c.41-.08,1.15-.57.97.13-.32-.04-.65-.09-.97-.13Zm-1.95-.19c.33-.3.67-.6,1-.9.74-.33,1.45,0,2.04.37,0,.14-2.33.43-3.04.52Zm3.01,7.55c-.02.07-.01.07,0,.03-.51,2.32.25-2.28.21-1.87-.07.61-.14,1.23-.21,1.84.03-.14.1-.44,0,0Zm.68-6.78c-.25-.39.73-1.4.04-.08,0,0,0,.01-.04.08Zm1.11-.03c.6.43-.42,1.72-.67,2.32-.13-.97.1-1.61.67-2.32Zm-.14,3.72c-.08.15-.05.09,0,0-.16.23-.31.46-.47.68.13-1.29.6-1.22,1.19-2.27-.24.52-.48,1.05-.72,1.57.06-.11.14-.25,0,0Zm2.51-6.39c-1.65.45-2.34,1.08-4.19.19.76-.44,4.39-.46,4.19-.21.03,0,.04,0,0,.02Zm15.69-9.14c.09.6.17,1.2.24,1.8-.23-.52-.2-1.24-.24-1.8Zm-68.36,37.35c-.41-.22-.07-.11,0,0h0Zm-.06,1.3c-.6,0-2.1-.01-2.5-.71,0,0,3.51.71,2.5.71Zm-2.37,2.31c-1.5.08.4-.56.89-.03-.3.01-.59.02-.89.03Zm1,5.24c.43-.77.9-1.51,1.39-2.24-.18,1.42-.95,3.12-1.98,4.11.09-.63.26-1.31.59-1.87Zm-.06,3.53c.23.09,2.15-5.09,2.28-5.41.07,1.41-.37,6.13-2.28,5.41Zm2.77-8.83c-.43.5-.83.58-1.2,1.22-.14-.26-.28-.52-.42-.79.54-.12,1.08-.27,1.61-.43Zm.53-2.47c.7.24-.04.79,0,0h0Zm5.98,10.16c-.21.18-.41.37-.62.55.48-2,1.14-3.7,2.49-5.3.32,1.27-.94,3.75-1.87,4.75Zm2.12-2.59c.11-.34.22-.68.33-1.03.31-1.01.68-.69,1.45-1.11-.55.75-1.22,1.4-1.78,2.14Zm1.89-3.23s-.05.06,0,0c.17-.19.06-.07,0,0,.71-.78,1-.91,1.95-1.34-.45.46-2.82,2.3-1.95,1.34Zm2.58-2.27c.34-.22.51-.18,0,0h0Zm1.3,6.11s.06-.04-.08.1c.54-2.28,1.68-5.74,4.08-6.58-1.23,1.94-2.35,4.77-4,6.48Zm3.68-7.1c.27-.4,1.31-.44,0,0h0Zm12.58-2.78c.1,0,.14-.01-.02,0-4.21.4-9.02-.87-13.28-1.09,5.08-1.05,9.76-.13,14.73,1.03-.48.02-.95.04-1.43.06Zm9,1.9c-.58-.1-.34-.06-.05-.01-1.59-.29-3.11-.66-4.59-1.34,3.54.82,7.3,1.47,10.57,3.1-2.02-.52-3.88-1.39-5.94-1.76Zm16.93,7.58c-1.34-.98-2.69-1.93-4.09-2.83.37.15.6.25.76.32,5.33,2.23,10.22,5.56,13.81,10.15-2.46-2.37-5.29-4.34-7.83-6.62.3.27-3.7-2.81-2.65-1.03Zm7.71,5.84c1.27,1.02,2.45,2.13,3.51,3.36-1.17-1.1-2.41-2.19-3.51-3.36Zm4.04,3.87c-.56-.55-.1-.24,0,0h0Zm7.12,258.5c.21,2.56.72,5.15.69,7.72,0,.75,0,1.51,0,2.26-.35-3.32-.52-6.65-.69-9.98Zm2.04,26.72c-.11-1.53-.26-3.08-.27-4.62,1.22,3.62.81,7.74,1.04,11.54-.32-2.3-.57-4.61-.77-6.93,0,0,.17,1.99,0,0Zm-.45-12.57c.3,2.13.69,6.96,1.08,8.05-.96-2.69-.97-4.85-1.08-8.05Zm5.69,101.2c-.05-.37-.1-.74-.14-1.1.2-.11.14.97.14,1.1Zm-.13-2.71c-1.4-7.74-.79-15.85-1.58-23.68-.01-.15-.03-.26-.04-.37.01.11.02.23.04.35-1.72-17.2-2.99-34.28-3.3-51.58,3.16,24.96,3.91,50.14,4.88,75.27Zm-1.32-40.77c-.33-2.33-.7-4.67-.85-7.02.28,2,.57,4.01.75,6.02,0-.03.06.28.1,1Zm-.34-19.05c.44,2.89.36,5.92.39,8.84,0-.31-.02-2.28,0,0,0,.4,0,.8.01,1.2-.26-2.28-1.63-8.49-.4-10.04Zm-1.33-17.98c.06.75.03.41,0,.04.27,3.54.4,7.05.24,10.6-.81-6.39-1.2-12.9-1.15-19.34.36,2.88.68,5.76.91,8.66-.03-.36-.05-.68,0,.06Zm-3.78-57.32c.22,8.85,2.2,17.5,2.4,26.31.19,8.43,1,16.86,1.5,25.28-2.06-17.87-4.23-35.35-3.94-53.39.02.6.03,1.2.05,1.8Zm-1,8.66c0-.51-.02-1.01-.03-1.52.02-.65.03-.15.03,1.52Zm-1.17-56.57c-.01-.34,0-.24,0,0h0Zm0,.04c0,.08,0,.17,0,.26,0-.1,0-.19,0-.26Zm1.54-8.24c.69-10.17,1.25-20.34,1.81-30.52,0,.03,0,.08,0,.13-.23,10.11-.93,20.55-1.8,30.38Zm-.94,22.29c.27-4.71.46-9.43,1.12-14.11-.4,11-.71,22.01-1.12,33.01-.19-6.27-.35-12.64,0-18.9Zm4.25-62.54c-.04,1.24-.09,2.49-.15,3.73,0,.1,0,.23-.02.44-.19.06.16-4.14.17-4.17Zm.28-44.49c.68,13.64.28,27.45-.16,41.09-1.52-3.05-.13-10.49-.13-14.11,0-4.63.02-9.26-.09-13.89-.18-7.6-.37-15.2-.26-22.81.22,3.24.47,6.48.63,9.72Zm-1.93-8.96c0,.19-.04-.36,0,0h0Zm.25-16.23c.28,1.43.19.88.03,1.7-.13-.99-.27-2.23-.32-3.23.09.51.19,1.02.28,1.53Zm-.32,5.62c-.58-.26-.49-6.91-.45-7.55.2,2.57.53,4.99.45,7.55Zm-.72-3.63c.29,5.13-.61,10.25-.09,15.46.46,4.61,1.05,8.96,1.11,13.61.14,12.27-.13,24.55-.28,36.82-.13,11.09-1.02,22.19-1.71,33.26-.57,9.25-.61,16.15-1.15,25.27-.06-2.63-.19-5.26-.27-7.88-.56-18.68,2.26-37.29,2.02-55.96-.25-20.09-1.13-40.51.37-60.57Zm-4.97-81.09c-.01-.17-.02-.3-.02-.4,0,.11.01.25.02.39-.64-10.82-2.04-21.49-3.01-32.26.45.67.47,4.12.83,4.23.27.02,1.38,9.47,1.51,10.94.86,9.65,1.93,19.41,1.57,29.1-.3-4-.66-8-.9-12Zm.03.57c0,.1,0,.12,0,0h0Zm4.81,55.35c0,.07,0,.06,0,.03.13,1.43.23,2.86.34,4.29-.28-3.28-.57-6.56-.86-9.84.18,1.84.33,3.68.51,5.53Zm-.49,9.94c-.39-3.79-.77-7.57-.98-11.38-.3-5.28-.51-10.55-.91-15.83.36,3.99,3.1,26.87,1.89,27.21Zm-2.33-33.27c-.18-2.56-.34-5.12-.45-7.69-.01-.09-.03-.48-.07-1.35.03.28.05.57.06.8.24,2.74.36,5.47.45,8.23Zm1.83-19.53c.81-1.25,1.63-2.49,2.5-3.7-.85,1.23-1.93,2.83-2.5,3.7Zm16.92-18.81c-.21.2-.08.08,0,0-1.78,1.73-3.66,3.35-5.45,5.07,1.96-2.16,4.23-4.1,6.42-6.01-.32.31-.65.62-.97.94Zm35.63,11.24c-.34.43-.76-6.1-.73-6.53-.03.95,1.09,6.08.73,6.53Zm2.31-8.51c-.26,1.61-.25-.65,0,0h0Zm.5-.98c-.07-.15-.43-.66-.28-.71.48.44.58.68.28.71Zm.18,2.94c.46,1.66.9,3.49.95,5.22.03,1.01-.84-4.08-.95-5.22Zm.2-1.99c.62.19.78,1.6,1.03,2.23-.9-.13-.69-1.37-1.03-2.23Zm1.55.31c-1.09-1.07-1.25-2.25-1.78-3.64.3.18.6.33.92.47-.29.11,1.83,3.75,2.31,4.54-.47-.47-.96-.92-1.45-1.36Zm2.92-3.17c.16.2.08.1,0,0,.33.36.66.72.99,1.08-1.38-.93-2.7-.87-4.17-1.71.25-.01,1.22-.48.88-.7.89.25,1.66.54,2.3,1.33Zm-6.43-1.16c.16.03.05,0,0,0,.43-.15.67-.45.71-.91.99-.11,2.11.38,3.07.64-1.07-.13-2.93.55-2.84,1.57-.55-.41-1.92-1.5-.95-1.3Zm-.24,1.29c.87,1.09.51,4.81.24,6.32-.21,1.12-.45,2.24-.71,3.36-.48-1.04-.22-9.17.46-9.68Zm-21.21-9.74c.06-.04.08-.05-.07.04-1.62,1.07-3.57,1.76-5.28,2.67,2.33-1.42,4.64-3.51,7.43-3.79-.71.33-1.4.69-2.08,1.08Zm9.33-1.73c-.63-.17-1.27-.32-1.91-.47.69.02,1.33.08,1.91.47Zm10.67-5.52c-5.47,1.8-11.22,3.69-16.77,5.05,6.24-3.39,13.11-4.11,19.76-6.24-.97.46-1.96.86-2.98,1.19Zm37.78-2.32c1.57-.88,3.37-1.69,5.13-2.08-2.45,3.22-3.51,2.51-6.31,2.68.39-.2.78-.4,1.18-.6Zm-12.81-5.35c-.53.17-.73.53.03,1.3-2.12-.58-5.19,1.95-7.74,1.53,3.27-1.7,5.21-2.53,7.7-2.83Zm-9.41,4.31c1.57-1,6.41-1.85,9.14-2.19-.12.54-8.32,2.29-6.41,3.12-2.2-.82.51-.23-.67-1.23-.13-.11-1.27.57-2.05.3Zm4.26.37c.44-.11,3.84-.86,2.42-.33-.63.23.18-.07,0,0-.79.32-1.6.43-2.42.33Zm-.31,3.7c-.63-.48-2.18-1.64-2.21-2.6,1.06.37,2.36,2.69,3.74,3.47-.51-.29-1.02-.58-1.53-.87.13.1.24.19,0,0Zm1.26-.7s-1.27-1-1.49-1.24c1.23.37,1.72.46,1.85.48-.17,0-.7.03-.36.76Zm3.62-1.69c.2-.23,1.04-.44,1.26-.51-.45.64.89.61,1.09.86-.81-.06-1.55-.21-2.35-.36Zm5.43,1.43c-.28.02,0,0,0,0-.87.07-1.74.01-2.6-.19.87.03,1.73.14,2.6.19Zm-2.01-2.68c.57-.22,1.15-.44,1.72-.66-.03.01-.05.02-.07.03.02,0,.03-.01.07-.03.02,0,.03-.01.05-.02-.02,0-.03.01-.05.02.81-.33,2.5-1.21,3.47-1.03-.36,1.14-4.35,1.49-5.19,1.69Zm1.42-1.41c-.14.06-7.55,1.9-5.66,3.29-1.69-.3-3.43-.72-5.05-1.31,2.02.37,8.23-.56,6.96-3.65.83.5,3.31.87,5.88.97-.56.13-1.27.36-2.14.71Zm3.01-2.33s.75.13,0,0h0Zm-1.99-1.17c.84-.03.76-.02.51-.02,2.21-.07,4.57-.13,6.41,1.29-2.71.4-5.03-1.17-7.87-1.25.32,0,.63-.01.95-.02Zm1.1,1.73c-.62.05-1.25.1-1.87.15.14,0,.24,0,0,0-.45,0-.2,0,0,0-1.1.02-2.73-.09-3.66-.83,1.89.26,3.67.17,5.55.68Zm-3.56-1.7s-.48,0,0,0h0Zm14.81-13.39c.09-.17.49-.57,0,0h0Zm-3.51,1.68c.7-.63.33-.3.02-.02,1.91-1.73,4.29-4.38,7.02-4.69-2.6,2.55-1.28.11-3.67,1.99-1.92,1.88-4.01,3.99-6.23,5.5.92-.96,1.87-1.88,2.85-2.78Zm-.7,1.58s.83-.76,0,0h0Zm-3.3,2.38c0,.19-.8.85,0,0h0Zm-2.52,2.42c-.45.38-1.44,1.29-1.99,1.33.67-.43,1.34-.87,1.99-1.33Zm-.06.81c.14.45-1.28.82,0,0h0Zm7.72,1.51c-3.1.7-6.81.82-10.18-.13,2.56-1.4,7.52-.48,10.18.13Zm-4.04-1.58c1.09-.13,2.18-.3,3.24-.6-1.1.45-2.07.64-3.24.6Zm4.91-1.45c.41-.11,0,.07,0,0h0Zm2.85-1.72c-.28-.23,1.37-.89,0,0h0Zm-3.74,1.02c.65-.2,1.3-.39,1.96-.59-1.68,1.92-6.99,2.1-8.92,2.28,1.54-1.18,4.96-1.18,6.96-1.69Zm-3.56-.03c.37-.53.58-.6.63-.22.32.15.11.22-.63.22Zm-1.41-.03c2.38-1.34,4.2-3.19,6.36-4.77-1.61,1.68-3.94,4.31-6.36,4.77Z"/>
    <path class="cls-1" d="m199.1,331.05c-.68.17.5-.13,0,0h0Z"/>
    <path class="cls-1" d="m178.38,346.31h0c-.14-.11-.31-.23,0,0Z"/>
    <path class="cls-1" d="m184.52,343.41c-.41.13-.02.03,0,0h0Z"/>
    <path class="cls-1" d="m161.61,363.64s.09.19,0,0h0Z"/>
    <polygon class="cls-1" points="188.35 339.64 188.36 339.64 188.35 339.64 188.35 339.64"/>
    <path class="cls-1" d="m188.33,342.04c-.06.02-.06.02,0,0h0Z"/>
    <path class="cls-1" d="m188.45,341.99c.26-.1.63-.26,0,0h0Z"/>
    <path class="cls-1" d="m84.8,365.29c-.25-.11-.5-.22-.76-.32.67.43,1.31.59.76.32Z"/>
    <path class="cls-1" d="m72.78,331.33c-.26.32.16-.03,0,0h0Z"/>
    <path class="cls-1" d="m74.25,334.19s-.04.04-.06.07c0,.02.1-.07.06-.07Z"/>
    <path class="cls-1" d="m75.77,334.74s.09,0,.13,0c-.01,0-.11-.01-.13,0Z"/>
    <path class="cls-1" d="m78.79,340.19h0s0,.02,0,.02c0,0,0,0,0-.02Z"/>
    <path class="cls-1" d="m78.71,332.96c.03-.11-.19-.04,0,0h0Z"/>
    <path class="cls-1" d="m77.81,336.01c-.17.05.02,0,0,0h0Z"/>
    <path class="cls-1" d="m76.92,343.12c0,.12-.03.23-.03.36.05-.3.05-.42.03-.36Z"/>
    <path class="cls-1" d="m34.22,316.1c-.81-.99-.43-.32,0,0h0Z"/>
    <path class="cls-1" d="m35.19,322.05c.57-.24-.05.02,0,0h0Z"/>
    <path class="cls-1" d="m48.01,322.6s.07,0,.1-.01c.26-.07.04-.02-.1.01Z"/>
    <path class="cls-1" d="m42.7,323.06s.04,0,.06,0c-.02,0-.05,0-.09,0,.01,0,.02,0,.03,0Z"/>
    <path class="cls-1" d="m83.68,324.29c.21.06.57.11,0,0h0Z"/>
    <path class="cls-1" d="m79.9,335.71c.14-.32-.01-.1,0,0h0Z"/>
    <path class="cls-1" d="m79.51,333.34s-.04.07-.04.08c.02-.03.02-.05.04-.08Z"/>
    <path class="cls-1" d="m32.08,321.15s-.02,0-.02,0c.14-.03.22-.04.02,0Z"/>
    <path class="cls-1" d="m71.15,360.2s.03,0,.05.01c.68.12.28.05-.05-.01Z"/>
    <path class="cls-1" d="m112.59,724.95v.02c.02.22.04.37.05.49-.01-.14-.03-.32-.05-.51Z"/>
    <path class="cls-1" d="m114.15,750.25c.05.34.03-.02,0,0h0Z"/>
    <path class="cls-1" d="m45.94,368.19s-.07.07-.08.1c.03-.03.05-.07.08-.1Z"/>
    <path class="cls-1" d="m112.64,725.45c.01.11.02.19.02.24,0-.04-.01-.12-.02-.24Z"/>
    <path class="cls-1" d="m80.43,337.11h0s0,0,0,0c0,0,0,0,0,0Z"/>
    <path class="cls-1" d="m29.93,362.91c.16.31.08-.02,0,0h0Z"/>
    <path class="cls-1" d="m82.94,330.72s-.01-.01,0-.02c-.07.02-.27.09,0,.02Z"/>
    <polygon class="cls-1" points="42.07 364.35 42.07 364.35 42.07 364.35 42.07 364.35"/>
    <path class="cls-1" d="m71.38,340.77s-.01.02-.02.03c.02-.03.04-.05.06-.08-.01.02-.03.03-.04.05Z"/>
    <path class="cls-1" d="m105.45,238.31c.5.25-.14-.23,0,0h0Z"/>
    <path class="cls-1" d="m108.99,243.96s-.05-.05-.07-.08c.04.05.07.1.11.15-.02-.02-.03-.05-.05-.07Z"/>
    <path class="cls-1" d="m139.87,204.68c.07.03.14.06.22.09.03,0-.45-.26-.22-.09Z"/>
    <path class="cls-1" d="m139.17,207.58s.01,0,.02.01c-.03-.03-.06-.06-.09-.09.02.02.05.05.08.07Z"/>
    <path class="cls-1" d="m144.77,211.6c-.07-.04-.14-.08-.11-.05.04.02.07.03.11.05Z"/>
    <path class="cls-1" d="m104.37,237.72c-.38-.56-.03,0,0,0h0Z"/>
    <path class="cls-1" d="m145.7,277.46s-.02.01-.03.02c.04-.02.06-.04.03-.02Z"/>
    <path class="cls-1" d="m112.11,252.55c.05.05.09.12.14.17.53.49.02-.03-.14-.17Z"/>
    <path class="cls-1" d="m142.28,277.38s.04-.07.07-.11c-.02.02-.06.07-.07.11Z"/>
    <path class="cls-1" d="m107.53,246.81c.04.06.08.12.12.18.48.61.09.1-.12-.18Z"/>
    <polygon class="cls-1" points="157.24 206.52 157.24 206.52 157.24 206.52 157.24 206.52"/>
    <path class="cls-1" d="m140.08,200.83c-.09-.02-.18-.05-.27-.07-.43-.11.16.08.27.07Z"/>
    <path class="cls-1" d="m128.87,168.01c-.34.37.01.06,0,0h0Z"/>
    <path class="cls-1" d="m126.47,172.15c-.32.31.53-.51,0,0h0Z"/>
    <path class="cls-1" d="m131.73,166.93s-.24.29,0,0h0Z"/>
    <path class="cls-1" d="m137.11,163.31s-.08.08-.07.08c.02-.03.05-.05.07-.08Z"/>
    <path class="cls-1" d="m145.27,209.65c.05.06.11.09.16.14-.05-.05-.28-.28-.16-.14Z"/>
    <path class="cls-1" d="m149.53,264.08s0,0,0,0c.2-.25.4-.51,0,0Z"/>
    <path class="cls-1" d="m139.5,201.51c-.14-.02.38.06,0,0h0Z"/>
    <path class="cls-1" d="m141.17,159.04s-.03.04-.04.06c.03.03.05-.03.04-.06Z"/>
    <path class="cls-1" d="m151.06,205.57c-.1-.08-.2-.15-.3-.23-.02,0,.39.38.3.23Z"/>
    <path class="cls-1" d="m161.07,211.56c.1.05.2.07.3.11.1.04-.31-.14-.3-.11Z"/>
    <path class="cls-1" d="m145.98,263.47c-1.16.86-2.21,2.98-3.07,5.45.58-1.36,1.04-2.38,1.18-2.69.53-1.17,1.21-2,1.89-2.75Z"/>
    <path class="cls-1" d="m130.98,169.9c-.36.31.36-.3,0,0h0Z"/>
    <path class="cls-1" d="m129.24,171.28c.6-.43,1.17-.9,1.74-1.38.74-.63,1.44-1.33,2.13-2.01-.06.03-.1.06-.15.09-1.23,1.11-2.46,2.22-3.72,3.29Z"/>
    <path class="cls-1" d="m6.02,82.4s-.04,0-.06-.02c.14.06.36.14.06.02Z"/>
    <path class="cls-1" d="m12.29,85.16c-.79-.38-1.66-.78-2.5-1.16.07.05.14.1.19.14.75.56,1.55.85,2.31,1.02Z"/>
    <path class="cls-1" d="m156.33,267.35s-.05.05-.07.08c-.31.4-.07.1.07-.08Z"/>
    <path class="cls-1" d="m11.29,37.75c-.17-.17-.1-.09-.04-.04-.07-.07-.14-.13-.21-.2.06.07.12.15.18.22.03.01.04,0,.07.02Z"/>
    <path class="cls-1" d="m101.05,139.8c-.03.05-.05.1-.07.14.01-.04.05-.1.07-.14Z"/>
    <path class="cls-1" d="m100.99,139.95s0,0,0,0c0,0,0,0,0,0Z"/>
    <path class="cls-1" d="m101.04,140.23c-.08-.05-.09-.16-.05-.29-.04.12-.04.22.05.29Z"/>
    <path class="cls-1" d="m119.52,168.56c.3-.54.56-1.08.82-1.62-.29.57-.57,1.11-.82,1.62Z"/>
    <path class="cls-1" d="m83.95,219.56s.01-.01.02-.02c0,0,0,0-.02.02h0Z"/>
    <path class="cls-1" d="m166.09,269.61c-.37.11,1.03-.3,0,0h0Z"/>
    <path class="cls-1" d="m163.67,258.9c-.27.28-.02.05,0,0h0Z"/>
    <path class="cls-1" d="m173.02,264.11c.34-.31-.07-.06,0,0h0Z"/>
    <path class="cls-1" d="m172.3,266.47s-.58.12,0,0h0Z"/>
    <polygon class="cls-1" points="184.73 260.86 184.72 260.86 184.73 260.86 184.73 260.86"/>
    <path class="cls-1" d="m175.93,261.64s0,0,0,0c.04-.02.1-.05.16-.08-.05.03-.1.05-.15.08Z"/>
    <path class="cls-1" d="m155.89,272.76c-.2.04,0,.11,0,0h0Z"/>
    <path class="cls-1" d="m181.04,264.68c-.07.05-.12.09-.1.07.03-.02.07-.05.1-.07Z"/>
    <path class="cls-1" d="m137.14,109.13c-.05.05,0,.37,0,0h0Z"/>
    <path class="cls-1" d="m66.47,106.67s-.02.05-.02.06c0-.03.01-.03.02-.06Z"/>
    <path class="cls-1" d="m72.31,102.13s.02-.06.04-.09c-.01.03-.08.18-.04.09Z"/>
    <path class="cls-1" d="m69.98,106.59s0,0,0,0c-.02.03-.03.05,0,0Z"/>
    <path class="cls-1" d="m81.7,40.65c-.02.43.19-.36,0,0h0Z"/>
    <path class="cls-1" d="m80.77,46.48s.02-.04.03-.05c-.02.04-.04.07-.05.09,0-.01.02-.03.02-.04Z"/>
    <path class="cls-1" d="m80.9,39.42s-.04.08-.07.13c0,0,.07-.11.07-.13Z"/>
    <path class="cls-1" d="m95.57,91.73s0-.03.01-.04c-.05.1-.17.42-.01.04Z"/>
    <path class="cls-1" d="m96.43,86.76c-.24.73.02.25,0,0h0Z"/>
    <path class="cls-1" d="m99.34,88.59s.02-.02.03-.03c-.03.02-.04.04-.03.03Z"/>
    <path class="cls-1" d="m102.29,87.79c-.09.03.35-.1,0,0h0Z"/>
    <path class="cls-1" d="m93.02,89.45s-.01.04-.02.07c0,0,0,0,0,0,0-.02.01-.05.02-.07Z"/>
    <path class="cls-1" d="m21.54,7.88c-.03-.09-.01.21,0,0h0Z"/>
    <path class="cls-1" d="m22.33,11.22c0,.22.1-.02,0,0h0Z"/>
    <path class="cls-1" d="m28.91,24.94c0,.38.11.38,0,0h0Z"/>
    <path class="cls-1" d="m47.16,19.24c-.04-.07-.06-.13-.1-.2.01.09.09.2.1.2Z"/>
    <path class="cls-1" d="m77.19,48.02s0,0,0,0c0,0,0-.01,0-.02,0,0,0,0,0,.01Z"/>
    <path class="cls-1" d="m137.01,161.79c-.55.49.82-.72,0,0h0Z"/>
    <path class="cls-1" d="m52.98,13.56c-.02.09-.03.16-.04.19,0,.02,0,.04,0,.06.02-.12.05-.25.05-.26Z"/>
    <path class="cls-1" d="m67.39,64.45s0,.02-.02.03c.02-.02.19-.32.18-.3-.05.09-.11.18-.16.27Z"/>
    <path class="cls-1" d="m74.29,50.76c.03-.53-.14,1.56,0,0h0Z"/>
    <path class="cls-1" d="m73.73,38.6c-.05-.21-.09,0,0,0h0Z"/>
    <path class="cls-1" d="m30.06,25.84c-.23-.84.02.09,0,0h0Z"/>
    <path class="cls-1" d="m127.09,116.88c-.24.28,0,.14,0,0h0Z"/>
    <path class="cls-1" d="m112.29,123.96c-.43.65-.09.21,0,0h0Z"/>
    <path class="cls-1" d="m111.53,126.9c.46-.99-.46.99,0,0h0Z"/>
    <path class="cls-1" d="m12.05,39.38c.49.82.73.65,0,0h0Z"/>
    <path class="cls-1" d="m134.38,115.48c.1-.24-.02.02,0,0h0Z"/>
    <path class="cls-1" d="m103.63,133.06c.12-.25-.02-.02,0,0h0Z"/>
    <path class="cls-1" d="m128.5,122s.05-.04.07-.06c-.07.04-.7.53-.07.06Z"/>
    <polygon class="cls-1" points="121.49 177.31 121.49 177.31 121.49 177.3 121.49 177.31"/>
    <path class="cls-1" d="m111.01,182.77s0,0,0,0c.26-.04.05,0,0,0Z"/>
    <path class="cls-1" d="m80.64,137.74s0,.01,0,.02c0,0,0-.02,0-.03,0,0,0,0,0,.01Z"/>
    <path class="cls-1" d="m88.37,131.39s0,0-.01.01c0,0,.01-.01.02-.02,0,0,0,0-.01,0Z"/>
    <polygon class="cls-1" points="97.74 142.36 97.74 142.36 97.74 142.36 97.74 142.36"/>
    <path class="cls-1" d="m104.52,134.08c.04-.25-.21.06,0,0h0Z"/>
    <polygon class="cls-1" points="91.06 130.58 91.06 130.58 91.06 130.59 91.06 130.58"/>
    <path class="cls-1" d="m85.28,136.17c.39-.33-.34.18,0,0h0Z"/>
    <path class="cls-1" d="m111.59,122.37s-.04.08-.06.12c-.22.46-.03.07.06-.12Z"/>
    <path class="cls-1" d="m117.46,117.28s.04,0,.04-.01c-.02,0-.03.01-.04.01Z"/>
    <path class="cls-1" d="m105.91,135.42s0,0,0,0c-.13.05-.25.1,0,0Z"/>
    <path class="cls-1" d="m127.25,115.49s0,0,0,0c0,0,0,0,.02-.01,0,0,0,0,0,0Z"/>
    <path class="cls-1" d="m14.37,374.36s-.02.06-.03.08c.1-.19.23-.45.03-.08Z"/>
    <path class="cls-1" d="m27.88,366.2c.03-.16.03-.2.02-.17.54-3.48-2.51-.19-3.46,0-1.3.28-1.76-.31-3.22-.3.55-.63,1.23-1.08,2.01-1.33-.15.39-.07.73.25,1.01.84.2.79-1.68-.04-1.83-1.77-.32-4.07,2.73-4.99,3.79-2.11,2.43-4.19,5.68-5.61,8.56-.76,2.7,4.53-.99,5.11-1.55,2.09-1.95,3.83-6.88,6.63-7.52-.52,1.12-5.6,10.46-4.07,10.02,3.65-1.03,6.43-7.31,7.32-10.51,0,.01.01-.03.05-.17Zm-6.47.39c-.54-.12-4,4.51-4.9,4.9.82-1.15,3.22-5.26,4.9-4.9Zm-7.74,9.49c.15-.57.38-1.12.67-1.63-.09.17-.15.29.03-.08.18-.34,1.07-2.25,1.48-2.06-1.06,1.48-.83,2.81-2.19,3.77Zm7.44-7.01s.03-.05,0,.01c-1.35,2.44-3.23,4.38-5.64,5.77-.02-.02-.03-.03-.05-.05,2.18-1.94,3.77-5.11,6.34-7.1-.12.5-.33.95-.64,1.37Zm.04,6.24c-.61.65-.65.73.12-.92.17.18.36.25.57.21-.23.24-.46.48-.68.72Zm.65-1.59c.13-.81.68-1.55,1.1-2.23-.02.05-1.18,2.65-1.1,2.23Zm1.33-.78c.37-1.64,1.36-3.57,2.38-4.9-.46,1.52-1.15,3.85-2.38,4.9Zm4-7.3c-.39-.14-1.09.45-.22-.36.35-.33.29-.03.22.36Z"/>
    <path class="cls-1" d="m23.45,360.65s0-.01.01-.02"/>
    <path class="cls-1" d="m17.82,362.77s.09,0,.13,0c-.06,0-.13-.02-.13,0Z"/>
    <path class="cls-1" d="m19.75,363.73c.16-.08,7.54-2.65,5.3-4.17-.66-.46-6.55.68-7.25,1.12-2.77,1.78-.52,4.03,1.95,3.04Zm3.71-3.08c-1.58.35.66-.53,0,0h0Zm-2.24,1.41c-.99.47-2.14.85-3.26.72.11.02.21.05-.13,0,.54-2.35,2.18-.93,3.39-.71Z"/>
    <path class="cls-1" d="m69.79,277.15s0-.01-.01.03"/>
    <path class="cls-1" d="m65.55,264.54c-.03.11.05.26,0,0h0Z"/>
    <path class="cls-1" d="m67.47,277.22c.12.24.12.04,0,0h0Z"/>
    <path class="cls-1" d="m66.95,274.39h0c-.06-.18-.03-.09,0,0Z"/>
    <path class="cls-1" d="m67.62,271.27s0,0,0,.01c.03.06.02.03,0-.01Z"/>
    <path class="cls-1" d="m67.81,277.56s0,.11,0,.15c.03,0,.02-.07,0-.15Z"/>
    <path class="cls-1" d="m68.19,269.21c-.23-1.09-2.17-6.9-3.19-5.25-1.21-2.65-.65,4.36-.56,4.83.23,1.22,1.48,7.33,1.67,6.82,1.34,3.52,1.74,3.44,1.7,2.09-.04.01-.15-.11-.34-.49.17.06.28.21.33.33-.07-1.37-.52-3.83-.92-5.3.11.04.2,0,.29-.12-.12-.33,2.52,7.22,1.72,7.06.43.09.89-2.04.89-2.01.51-1.72-1.16-6.34-1.59-7.97Zm-2.68-2.1c-.15-.96-.2-1.65.04-2.57.09.48.48,2.25-.04,2.57Zm.4.84c.21.87.36,1.76.47,2.65-.13-.42-.26-.83-.39-1.25-.02-.08-.02-.08-.01-.05-.2-.71-.23-.72-.06-1.35Zm1.04,6.43c.06.17.03.09,0,0,.12.64.3,1.26.54,1.87-1.53-1.1-1.63-4.3-1.77-5.97.38,1.37.74,2.76,1.24,4.1Zm.68-3.11c-.19-.41-.06-.13,0-.01-.37-.85-.62-1.72-.74-2.63.13.36,1.83,4.86.75,2.64Z"/>
    <path class="cls-1" d="m55.57,266.61c.88,1.28.8,2.67,2.22,3.66-.11-.07,3.11,1.63,2.46.03.51.5,4.16,6.74,4.27,4.67.92,1.42-1.36-7.95-.85-.56-1.17-1.39-1.69-3.69-2.05-5.5-.9-3.23-2.23-2.28-1.13.43-.18-.19-3.16-4.87-2.85-2.21-.38-.27-.76-.54-1.16-.79-.64-1.99-1.84-1.11-.9.27Zm3.59,3.43c-.64-.25-1.19-.62-1.65-1.12.04.05.08.11,0,0-.08-.11-.04-.06,0,0-.24-.4-.44-.83-.59-1.27,1.29.82,1.19,1.3,2.24,2.4Z"/>
    <polygon class="cls-1" points="57.5 268.92 57.51 268.92 57.5 268.91 57.5 268.92"/>
    <path class="cls-1" d="m56.47,266.33c.14.12-.05-.15,0,0h0Z"/>
    <path class="cls-1" d="m20.32,261.34c1.74-2.58,8.13-12.17,5.38-14.18.19-.3,1.89-1.93,1.44-2.4-.84-.88-6.72,10.12-7.29,11.16-.88,1.63-1.57,3.35-2.46,4.96-.52,1.1.74,3.69,1.38,2.53.37-.67-1.05-.75-.94-1.35.1-2.01,1.48-4.22,2.41-5.93,1.25-2.3,4.25-6.64,4.94-7.9-1.12,3.02-2.98,5.74-4.63,8.49-.53.88-3.4,7.8-.23,4.61Zm1.24-4.4c.84-1.4,1.95-2.75,2.54-4.29.22-.57,1.1-2.89.59-1.05-.98,3.57-2.56,6.78-5.21,9.38.52-1.38,1.31-2.78,2.08-4.05Z"/>
    <path class="cls-1" d="m26.95,250.79c-.07.19-.16.44-.24.67.02-.06.05-.12.07-.18.06-.16.12-.33.17-.49Z"/>
    <polygon class="cls-1" points="30.9 250.25 30.9 250.25 30.9 250.25 30.9 250.25"/>
    <path class="cls-1" d="m26.78,251.28c-.46,1.25-.3.79-.07.18-.69,1.77-2.26,4.56-1.91,6.5.16.85,1.9,2.08,2.55,1.39,1.1-1.56,3.81-6.48,4.83-10.54-.37,2.62-.19,7.24,1.35,5.45-.02.02-1.33-2.8-1.16-3.59.63-2.25,1.79-4,3.05-5.91-.42,1.58-3.21,7.24-1.63,8.36.65.37,1.52-5.17,1.75-5.81.71-2.05,2.92-9.7-.33-3.53.29-.7,2.58-5.09,1.81-5.39-.82-.32-1.31,2.46-1.46,2.89.71-6.03-10.67,5.51-6.85,4.97-.73,1.43-1.23,3.01-1.77,4.53.15-.42.2-.54-.17.49Zm4.13-1.03c-.02.06-.02.08-.04.12.01-.04.02-.08.03-.12-.83,2.85-1.84,5.93-3.82,8.19.27-1.13-.82-.8-1.26-.22-.52-.48-.26-1.74-.1-2.28,1.89,1.5,5.04-8.09,5.61-9.69.18,1.35-.05,2.7-.43,3.99.06-.21.12-.41,0,0Zm-2.32.9c-.3.77-.59,1.54-.89,2.31-.38-1-.68.87.89-2.31Zm5.97-11.03c1.44.55-2.24,6.18-1.56,7.2-.21-.32-.4-.12-.56.36.31-1.74.21-3.23-.61-4.06.25.25-1.21-.29-1.09-.26.44-.47,3.12-3.52,3.82-3.25Zm-6.03,5.38c.36-.33.71-.66,1.07-1,.09.45-.41,1.16-1.07,1Zm-1.11,6.03c1.03-2.52,1.66-4.73,3.63-6.57.09.29.16.58.21.87-.73-.55-4.62,8.09-5.15,9.04.39-1.04.8-2.08,1.22-3.11-.06.14-.06.13.09-.24Z"/>
    <path class="cls-1" d="m27.69,253.47c.32-.84-.03-.08,0,0h0Z"/>
    <path class="cls-1" d="m27.41,251.53c-.03.08-.06.16-.09.24.18-.43.93-2.27.09-.24Z"/>
    <path class="cls-1" d="m28.52,245.5c.19.05.19-.19,0,0h0Z"/>
    <path class="cls-1" d="m119.65,174.67c1.58,1.11,3.86-3.01,3-2.44-.35.24-3.78,1.87-3,2.44Z"/>
    <line class="cls-1" x1="81.44" y1="140.18" x2="81.45" y2="140.18"/>
    <path class="cls-1" d="m9.64.73s.01-.02,0,0"/>
    <path class="cls-1" d="m16.49,9.32c.11.6.42.9.91.91.26-.18-5.01-8.32-5.1-8.47-1.84-2.94-4.6-1.99-2.61,1.25.77,1.26,6.81,7.7,6.8,6.3ZM9.64.73c.28-.53.79-.07,1.02.19-1,.49,1.51,3.93,1.89,4.6-.64-.76-3.46-3.69-2.91-4.79Z"/>
    <path class="cls-1" d="m9.69,3.02c-.47-.77.47.77,0,0h0Z"/>
  </g>
</svg>