<?xml version="1.0" encoding="UTF-8" standalone="no"?>
<svg
   xmlns:dc="http://purl.org/dc/elements/1.1/"
   xmlns:cc="http://creativecommons.org/ns#"
   xmlns:rdf="http://www.w3.org/1999/02/22-rdf-syntax-ns#"
   xmlns:svg="http://www.w3.org/2000/svg"
   xmlns="http://www.w3.org/2000/svg"
   viewBox="0 0 1122.52 793.70135"
   height="793.70135"
   width="1122.52"
   xml:space="preserve"
   ><path
             id="path22"
             style="fill:#fff;fill-opacity:1;fill-rule:nonzero;stroke:none"
             d="M 0,0 C 0.327,0.16 0.615,0.363 0.861,0.605 4.548,5.446 7.375,10.73 9.341,16.46 l 0.123,0.848 c 0,0.242 -0.082,0.442 -0.246,0.604 -0.165,0.161 -0.983,0.364 -2.457,0.606 l -1.476,0.121 c -1.64,0 -2.869,-0.324 -3.687,-0.968 C 0.778,17.024 0.246,15.895 0,14.282 L -1.352,2.662 c 0,-0.323 0.02,-0.646 0.061,-0.968 C -1.25,1.371 -1.21,1.007 -1.168,0.605 -1.127,0.2 -0.902,0 -0.491,0 Z m -4.547,-42.484 c -2.459,0 -4.056,0.122 -4.794,0.364 -1.803,0.807 -3.708,1.21 -5.716,1.21 -2.009,0 -3.791,0.767 -5.347,2.299 -1.228,1.534 -2.623,2.826 -4.178,3.874 l -2.09,1.694 c -1.394,1.05 -2.172,1.816 -2.335,2.3 -0.492,1.936 -1.25,3.672 -2.274,5.204 -1.026,1.534 -1.825,3.147 -2.397,4.842 -0.246,1.534 -0.983,2.663 -2.212,3.388 -0.903,0.485 -1.517,1.09 -1.844,1.816 -0.328,0.727 -0.657,2.098 -0.984,4.115 -0.819,3.632 -1.228,7.262 -1.228,10.893 0,1.937 0.204,3.874 0.614,5.81 0.081,0.079 0.123,0.282 0.123,0.605 l -0.123,2.542 c 0,3.389 0.757,6.555 2.274,9.501 1.516,2.944 3.257,5.749 5.224,8.412 2.047,3.065 4.219,5.949 6.514,8.654 2.293,2.702 4.916,5.023 7.867,6.959 l 0.122,0.121 c 0.984,0.806 2.008,1.411 3.073,1.816 1.885,0.484 3.728,1.047 5.532,1.695 2.538,0.968 5.162,1.694 7.865,2.178 1.229,0.079 2.499,0.242 3.811,0.484 l 0.491,0.122 c 1.885,0.402 3.768,0.604 5.655,0.604 5.489,0 10.61,-1.614 15.364,-4.841 l 2.335,-1.331 c 1.556,-0.808 2.498,-2.018 2.827,-3.632 1.147,-4.438 1.721,-8.876 1.721,-13.313 0,-3.389 -0.123,-5.446 -0.369,-6.173 -0.902,-1.857 -1.72,-3.752 -2.458,-5.689 C 27.367,10.892 26.015,7.906 24.46,5.083 22.902,2.258 20.649,0.846 17.699,0.846 c -0.656,0 -1.394,0.061 -2.212,0.182 -0.82,0.121 -1.72,0.666 -2.704,1.634 C 12.291,3.226 11.717,3.671 11.062,3.994 10.242,3.429 9.627,2.42 9.218,0.968 L 8.85,-0.243 C 6.8,-4.762 3.441,-7.02 -1.229,-7.02 c -4.917,0 -8.112,1.531 -9.587,4.599 -1.886,3.147 -2.827,6.333 -2.827,9.562 0,2.097 0.45,4.194 1.352,6.294 1.229,2.42 2.13,4.557 2.704,6.414 0.818,2.339 2.397,3.892 4.732,4.66 2.335,0.766 4.69,1.553 7.067,2.36 1.802,0.726 3.565,1.089 5.285,1.089 1.885,0 3.729,-0.565 5.532,-1.694 0.409,-0.242 0.818,-0.384 1.229,-0.423 0.409,-0.042 1.106,-0.061 2.089,-0.061 1.721,0 2.582,-0.526 2.582,-1.573 0,-0.566 -0.083,-1.252 -0.247,-2.058 -0.327,-1.615 -0.491,-3.188 -0.491,-4.72 l 0.123,-3.632 c 0.08,-0.565 0.123,-1.11 0.123,-1.634 0,-0.525 0.08,-0.989 0.245,-1.392 0.164,-0.404 0.573,-0.725 1.23,-0.968 2.047,2.5 3.319,5.326 3.81,8.473 0.327,2.339 0.572,4.72 0.738,7.141 l 0.122,3.389 c 0,4.437 -2.089,7.704 -6.268,9.804 -3.032,1.936 -6.268,2.905 -9.71,2.905 L 6.514,41.394 C 5.366,41.231 4.179,41.151 2.95,41.151 0.901,41.07 -1.149,40.828 -3.196,40.425 c -4.179,-0.647 -7.785,-2.463 -10.816,-5.447 -6.392,-6.777 -10.613,-14.686 -12.66,-23.722 -0.329,-1.453 -0.491,-2.865 -0.491,-4.236 0,-1.05 0.123,-2.099 0.368,-3.148 0.818,-4.598 1.761,-8.393 2.827,-11.377 l 2.704,-8.109 c 3.442,-10.73 12.126,-16.742 26.058,-18.034 L 5.9,-33.769 c 2.785,0 5.408,1.01 7.867,3.026 5.408,3.712 10.201,8.151 14.38,13.313 0.572,-1.289 0.86,-2.378 0.86,-3.267 0,-0.806 -0.288,-1.653 -0.86,-2.541 -5.408,-9.763 -13.603,-15.856 -24.582,-18.277 -2.704,-0.645 -5.409,-0.969 -8.112,-0.969" /></g><g
           transform="translate(212.0969,252.2999)"
           id="g24"><path
             id="path26"
             style="fill:#fff;fill-opacity:1;fill-rule:nonzero;stroke:none"
             d="m 0,0 c -0.738,0 -1.311,0.202 -1.721,0.605 -1.229,1.453 -2.008,3.631 -2.335,6.536 -0.574,4.761 -1.803,9.379 -3.687,13.858 -1.886,4.478 -4.262,10.752 -7.129,18.821 -5.327,14.926 -8.195,22.895 -8.604,23.904 -0.411,1.008 -0.902,1.513 -1.475,1.513 -0.738,-0.081 -1.106,-0.526 -1.106,-1.331 l 0.123,-1.21 c 0,-3.31 -0.123,-6.537 -0.37,-9.684 -0.245,-3.146 -0.41,-6.293 -0.491,-9.44 0,-5.891 -0.328,-14.726 -0.983,-26.507 -0.082,-3.468 -1.68,-6.01 -4.794,-7.625 -0.737,-0.322 -1.474,-0.484 -2.212,-0.484 -2.623,0 -4.713,2.139 -6.269,6.415 -1.229,3.792 -1.843,7.625 -1.843,11.498 0,2.258 0.163,4.558 0.492,6.899 0.163,1.29 0.245,2.581 0.245,3.873 0,0.806 -0.042,1.553 -0.123,2.24 -0.083,0.684 -0.122,1.27 -0.122,1.754 0,1.613 0.163,3.226 0.491,4.842 l 0.369,2.058 c 2.949,17.67 4.793,27.796 5.531,30.379 0.163,0.321 0.286,0.726 0.368,1.21 0.082,0.484 0.247,0.969 0.492,1.452 0.492,0.969 1.884,1.453 4.179,1.453 1.064,0 2.13,-0.284 3.196,-0.847 1.556,-0.727 2.335,-1.858 2.335,-3.389 l -0.123,-1.453 c 0,-1.615 0.738,-3.63 2.212,-6.052 1.147,-2.099 2.417,-4.196 3.811,-6.293 1.967,-2.905 3.727,-6.012 5.285,-9.319 4.179,-9.039 7.087,-15.816 8.727,-20.334 0.818,-2.341 1.925,-4.6 3.319,-6.778 0.491,0.321 0.798,0.665 0.921,1.028 0.124,0.364 0.185,0.908 0.185,1.635 0.738,13.555 1.352,23.762 1.844,30.621 0.326,7.826 1.966,15.411 4.916,22.754 1.064,2.339 2.499,4.358 4.302,6.052 0.738,0.806 1.597,1.211 2.581,1.211 0.409,0 0.86,-0.082 1.352,-0.243 0.984,-0.242 1.66,-0.525 2.028,-0.846 0.369,-0.324 0.553,-0.809 0.553,-1.453 0,-1.937 -0.328,-3.994 -0.983,-6.173 -2.704,-9.44 -4.179,-19.044 -4.425,-28.806 -0.411,-7.828 -0.697,-15.655 -0.86,-23.481 0,-2.178 0.204,-4.439 0.615,-6.778 0.163,-1.291 0.245,-2.583 0.245,-3.872 V 7.625 C 11.062,4.156 9.218,1.897 5.532,0.846 5.039,0.767 4.486,0.686 3.871,0.605 3.257,0.526 2.582,0.405 1.844,0.242 1.106,0.081 0.492,0 0,0" /></g><g
           transform="translate(241.1976,264.2815)"
           id="g28"><path
             id="path30"
             style="fill:#fff;fill-opacity:1;fill-rule:nonzero;stroke:none"
             d="m 0,0 c -2.295,0 -4.179,0.889 -5.654,2.663 -1.395,1.373 -2.09,2.824 -2.09,4.357 0,0.646 0.204,1.29 0.615,1.937 1.229,2.097 3.03,3.146 5.408,3.146 l 2.704,-0.121 3.81,0.364 c 2.213,0 3.645,-1.131 4.303,-3.389 L 9.218,7.02 C 9.218,5.729 8.93,4.479 8.358,3.269 7.62,1.495 6.268,0.485 4.302,0.243 3.564,0.243 2.846,0.203 2.15,0.122 1.453,0.042 0.737,0 0,0" /></g><g
           transform="translate(274.0331,290.3972)"
           id="g32"><path
             id="path34"
             style="fill:#fff;fill-opacity:1;fill-rule:nonzero;stroke:none"
             d="m 0,0 c 1.147,0.322 2.336,0.485 3.565,0.485 h 2.212 c 0.984,0 1.986,0.121 3.011,0.362 1.024,0.242 1.537,0.888 1.537,1.937 0,2.984 -0.227,6.01 -0.676,9.078 -0.451,3.065 -0.676,6.172 -0.676,9.319 v 1.574 c 0,0.242 -0.061,0.403 -0.185,0.484 -0.123,0.08 -0.245,0.2 -0.368,0.363 -0.123,0.16 -0.267,0.242 -0.431,0.242 -0.165,0 -0.327,-0.061 -0.491,-0.182 C 7.333,23.541 7.231,23.46 7.191,23.42 7.148,23.379 7.087,23.319 7.006,23.239 6.924,23.158 6.883,23.076 6.883,22.997 3.933,15.977 1.516,8.754 -0.368,1.331 c 0,-0.242 0.04,-0.484 0.122,-0.725 C -0.164,0.364 -0.082,0.161 0,0 m 18.929,-26.143 c -1.886,0 -3.115,1.01 -3.688,3.025 l -1.352,3.511 c -0.737,1.694 -1.394,3.449 -1.966,5.264 -0.574,1.816 -0.861,3.732 -0.861,5.75 0,0.645 -0.061,1.189 -0.183,1.634 -0.124,0.442 -0.228,0.826 -0.308,1.149 -0.165,1.048 -0.82,1.574 -1.967,1.574 -3.195,-0.163 -6.391,-0.242 -9.587,-0.242 -0.82,0 -1.352,-0.404 -1.598,-1.21 l -0.245,-0.606 c -0.575,-1.372 -1.026,-2.704 -1.353,-3.994 -0.902,-2.744 -2.335,-5.165 -4.302,-7.262 -0.737,-1.05 -1.762,-1.694 -3.072,-1.936 -0.246,0 -0.554,-0.042 -0.922,-0.121 -0.369,-0.082 -0.8,-0.121 -1.291,-0.121 -0.492,0 -0.941,0.181 -1.351,0.545 -0.41,0.362 -0.615,0.704 -0.615,1.028 0,0.403 0.122,0.786 0.368,1.15 0.247,0.363 0.412,0.745 0.492,1.149 0.738,2.18 1.558,4.316 2.458,6.416 1.31,2.662 2.336,5.446 3.073,8.351 0.901,3.549 1.924,7.02 3.073,10.408 l 1.352,4.358 c 1.31,4.842 3.113,9.481 5.408,13.919 2.293,4.115 4.382,8.431 6.269,12.95 0.983,2.582 2.784,4.034 5.407,4.358 0.902,0.079 1.741,0.242 2.52,0.484 0.779,0.242 1.577,0.363 2.397,0.363 2.047,0 3.236,-1.857 3.565,-5.568 0.246,-4.277 0.572,-8.553 0.983,-12.829 l 0.492,-6.173 C 22.616,16.177 23.188,11.256 23.846,6.415 24.172,4.316 24.337,2.178 24.337,0 l 0.369,-5.567 c -0.246,-1.292 -0.369,-2.584 -0.369,-3.873 0,-2.019 0.123,-3.975 0.369,-5.871 0.246,-1.897 0.409,-3.732 0.491,-5.506 0,-3.551 -2.089,-5.326 -6.268,-5.326" /></g><g
           transform="translate(324.1823,250.8193)"
           id="g36"><path
             id="path38"
             style="fill:#fff;fill-opacity:1;fill-rule:nonzero;stroke:none"
             d="m 0,0 c -3.032,1.292 -5.162,3.147 -6.391,5.567 -1.887,3.39 -2.827,7.142 -2.827,11.257 l -0.614,26.99 c 0,4.358 0.122,8.594 0.368,12.709 l 0.123,4.115 c 0,2.178 -0.043,4.316 -0.123,6.414 -0.082,0.969 -0.123,2.543 -0.123,4.721 0,3.711 0.573,7.423 1.721,11.135 0.326,1.129 0.491,2.016 0.491,2.663 0,0.887 -0.41,1.331 -1.228,1.331 -0.904,0 -1.927,-0.121 -3.073,-0.362 -2.87,-0.648 -5.285,-0.969 -7.252,-0.969 -2.87,0 -5.04,0.806 -6.515,2.421 -0.328,0.321 -0.491,0.644 -0.491,0.968 0,0.242 0.163,0.524 0.491,0.847 0.901,1.21 2.13,1.855 3.688,1.937 4.833,0.805 9.668,1.734 14.503,2.784 12.372,2.823 22.451,4.236 30.237,4.236 2.458,0 3.933,-0.082 4.425,-0.242 0.818,-0.324 1.229,-1.05 1.229,-2.179 0,-0.726 -0.289,-1.252 -0.861,-1.573 -0.574,-0.324 -1.149,-0.647 -1.72,-0.969 C 24.909,92.912 23.557,92.349 22.002,92.107 18.886,91.784 15.814,91.339 12.783,90.776 10.406,90.534 9.013,90.231 8.604,89.868 8.193,89.505 7.947,88.918 7.867,88.113 7.456,82.625 7.252,77.138 7.252,71.652 7.252,68.101 7.375,64.551 7.621,61.001 8.112,54.868 8.358,48.656 8.358,42.362 8.358,41.394 8.521,39.294 8.85,36.068 9.176,29.854 9.341,23.641 9.341,17.429 9.176,14.282 8.727,11.135 7.989,7.988 7.415,5.246 5.858,3.228 3.318,1.937 2.253,1.373 1.147,0.726 0,0" /></g><g
           transform="translate(378.5085,267.0378)"
           id="g40"><path
             id="path42"
             style="fill:#fff;fill-opacity:1;fill-rule:nonzero;stroke:none"
             d="M 0,0 C -0.82,0 -1.558,0.403 -2.212,1.21 -2.378,1.452 -2.541,1.613 -2.704,1.695 -5.9,3.389 -7.497,5.849 -7.497,9.078 l 0.122,1.815 c 0,0.242 -0.165,0.524 -0.492,0.848 -1.885,-1.858 -3.686,-3.329 -5.408,-4.418 -1.721,-1.089 -3.729,-1.998 -6.022,-2.723 -1.721,-0.566 -3.361,-0.848 -4.917,-0.848 -3.607,0 -6.699,1.23 -9.279,3.692 -2.582,2.46 -3.873,5.547 -3.873,9.259 0.41,12.104 2.008,24.892 4.794,38.368 l 0.123,1.089 c 0.409,1.452 0.716,2.702 0.922,3.752 0.203,1.048 0.431,1.815 0.676,2.3 0.246,0.484 0.594,0.786 1.044,0.907 0.45,0.121 1.209,0.201 2.275,0.242 1.063,0.04 2.539,0.14 4.424,0.303 l 1.598,0.121 2.705,-0.121 1.106,-0.121 c 1.555,0 2.376,-0.687 2.458,-2.058 0.08,-0.807 0.123,-1.654 0.123,-2.542 l -0.123,-1.694 c -1.886,-10.814 -3.155,-21.706 -3.811,-32.679 -0.082,-1.131 -0.267,-2.2 -0.553,-3.207 -0.288,-1.01 -0.43,-2.04 -0.43,-3.087 0,-0.565 0.019,-1.11 0.062,-1.634 0.04,-0.525 0.062,-0.989 0.062,-1.392 0,-0.404 0.08,-0.786 0.245,-1.15 0.164,-0.363 0.449,-0.586 0.861,-0.666 0.571,0 1.063,0.201 1.474,0.606 1.885,1.855 3.4,3.994 4.548,6.414 3.196,7.342 5.489,13.92 6.883,19.729 0.163,1.211 0.492,2.34 0.983,3.389 2.213,5.405 3.565,10.893 4.056,16.461 0.164,1.371 0.861,2.682 2.09,3.934 1.229,1.25 2.498,1.955 3.81,2.118 l 4.302,0.363 c 0.818,0 1.393,-0.142 1.721,-0.424 0.326,-0.284 0.491,-0.828 0.491,-1.634 0,-0.889 -0.165,-2.22 -0.491,-3.994 C 10.57,57.008 10.202,53.618 9.956,50.229 9.627,45.871 9.096,41.515 8.358,37.158 8.029,34.575 7.824,31.992 7.744,29.411 7.744,28.201 7.456,22.149 6.883,11.256 6.472,7.383 4.874,4.073 2.089,1.331 1.352,0.443 0.655,0 0,0" /></g><g
           transform="translate(410.9567,317.1462)"
           id="g44"><path
             id="path46"
             style="fill:#fff;fill-opacity:1;fill-rule:nonzero;stroke:none"
             d="m 0,0 c 0.409,0 0.777,0.1 1.106,0.302 0.327,0.201 0.615,0.404 0.861,0.605 0.245,0.201 0.491,0.382 0.736,0.545 1.147,0.726 2.091,1.532 2.828,2.421 1.064,1.531 2.336,2.783 3.81,3.752 2.867,2.339 4.302,5.244 4.302,8.714 -0.082,2.905 -0.841,5.042 -2.274,6.415 -1.434,1.371 -3.134,2.057 -5.101,2.057 -1.474,0 -2.992,-0.444 -4.547,-1.331 -0.903,-0.565 -1.824,-1.089 -2.766,-1.573 -0.943,-0.484 -1.414,-1.252 -1.414,-2.3 v -0.363 c 0.327,-2.341 0.573,-4.68 0.738,-7.02 l 0.369,-3.51 H -1.475 V 3.389 L -1.598,1.694 C -1.598,0.564 -1.066,0 0,0 m -7.621,-64.754 c -3.852,0 -5.776,4.721 -5.776,14.162 0.163,6.938 0.245,13.837 0.245,20.696 0,3.873 -0.042,7.766 -0.123,11.68 -0.083,3.913 -0.122,8.17 -0.122,12.769 0,2.824 0.039,5.284 0.122,7.384 0.164,4.357 0.246,10.73 0.246,19.123 0,3.389 1.476,5.204 4.425,5.446 l 0.246,0.121 c 0.737,0.161 1.392,0.242 1.967,0.242 0.409,0 0.737,-0.081 0.983,-0.242 0.737,-0.484 1.432,-0.726 2.09,-0.726 0.571,0 1.084,0.14 1.536,0.423 0.449,0.282 0.921,0.585 1.413,0.909 0.163,0.16 0.388,0.321 0.676,0.483 0.287,0.161 0.593,0.364 0.922,0.606 0.983,0.805 2.047,1.371 3.196,1.694 1.966,0.645 3.851,0.968 5.654,0.968 3.441,0 6.452,-1.028 9.034,-3.086 2.581,-2.057 4.321,-4.943 5.224,-8.654 0.08,-0.241 0.123,-0.525 0.123,-0.847 v -0.485 l 0.122,-0.725 c 0.326,-1.453 0.492,-2.826 0.492,-4.115 0,-5.246 -2.581,-9.967 -7.743,-14.161 C 13.889,-4.399 9.668,-7.02 4.67,-8.957 l 1.844,-3.026 c 2.13,-2.986 3.727,-6.093 4.794,-9.319 1.721,-6.214 3.85,-12.225 6.391,-18.034 0.327,-0.727 0.492,-1.453 0.492,-2.179 0,-0.808 -0.288,-1.594 -0.86,-2.36 -0.575,-0.768 -1.272,-1.15 -2.09,-1.15 -0.574,0 -1.106,0.201 -1.598,0.606 -4.999,4.598 -9.014,11.014 -12.046,19.244 v 0.121 c -0.164,1.21 -0.656,2.057 -1.474,2.541 -0.411,-0.163 -0.615,-0.484 -0.615,-0.968 0.081,-2.502 0.204,-4.923 0.369,-7.262 l 0.737,-16.098 c 0.247,-2.259 0.369,-4.518 0.369,-6.777 0,-2.017 -0.144,-3.994 -0.43,-5.931 -0.288,-1.936 -1.25,-3.147 -2.888,-3.631 l -1.476,-0.606 c -1.312,-0.644 -2.58,-0.968 -3.81,-0.968" /></g><g
           transform="translate(448.5672,290.3972)"
           id="g48"><path
             id="path50"
             style="fill:#fff;fill-opacity:1;fill-rule:nonzero;stroke:none"
             d="m 0,0 c 1.147,0.322 2.336,0.485 3.565,0.485 h 2.212 c 0.984,0 1.986,0.121 3.011,0.362 1.024,0.242 1.537,0.888 1.537,1.937 0,2.984 -0.227,6.01 -0.676,9.078 -0.451,3.065 -0.676,6.172 -0.676,9.319 v 1.574 c 0,0.242 -0.061,0.403 -0.185,0.484 -0.123,0.08 -0.245,0.2 -0.368,0.363 -0.123,0.16 -0.267,0.242 -0.431,0.242 -0.165,0 -0.327,-0.061 -0.491,-0.182 C 7.333,23.541 7.231,23.46 7.191,23.42 7.148,23.379 7.087,23.319 7.006,23.239 6.924,23.158 6.883,23.076 6.883,22.997 3.933,15.977 1.516,8.754 -0.368,1.331 c 0,-0.242 0.04,-0.484 0.122,-0.725 C -0.164,0.364 -0.082,0.161 0,0 m 18.929,-26.143 c -1.886,0 -3.115,1.01 -3.688,3.025 l -1.352,3.511 c -0.737,1.694 -1.394,3.449 -1.966,5.264 -0.574,1.816 -0.861,3.732 -0.861,5.75 0,0.645 -0.061,1.189 -0.183,1.634 -0.124,0.442 -0.228,0.826 -0.308,1.149 -0.165,1.048 -0.82,1.574 -1.967,1.574 -3.195,-0.163 -6.391,-0.242 -9.587,-0.242 -0.82,0 -1.352,-0.404 -1.598,-1.21 l -0.245,-0.606 c -0.575,-1.372 -1.026,-2.704 -1.353,-3.994 -0.902,-2.744 -2.335,-5.165 -4.302,-7.262 -0.737,-1.05 -1.762,-1.694 -3.072,-1.936 -0.246,0 -0.554,-0.042 -0.922,-0.121 -0.369,-0.082 -0.8,-0.121 -1.291,-0.121 -0.492,0 -0.941,0.181 -1.351,0.545 -0.41,0.362 -0.615,0.704 -0.615,1.028 0,0.403 0.122,0.786 0.368,1.15 0.247,0.363 0.412,0.745 0.492,1.149 0.738,2.18 1.558,4.316 2.458,6.416 1.31,2.662 2.336,5.446 3.073,8.351 0.901,3.549 1.924,7.02 3.073,10.408 l 1.352,4.358 c 1.31,4.842 3.113,9.481 5.408,13.919 2.293,4.115 4.382,8.431 6.269,12.95 0.983,2.582 2.784,4.034 5.407,4.358 0.902,0.079 1.741,0.242 2.52,0.484 0.779,0.242 1.577,0.363 2.397,0.363 2.047,0 3.236,-1.857 3.565,-5.568 0.246,-4.277 0.572,-8.553 0.983,-12.829 l 0.492,-6.173 C 22.616,16.177 23.188,11.256 23.846,6.415 24.172,4.316 24.337,2.178 24.337,0 l 0.369,-5.567 c -0.246,-1.292 -0.369,-2.584 -0.369,-3.873 0,-2.019 0.123,-3.975 0.369,-5.871 0.246,-1.897 0.409,-3.732 0.491,-5.506 0,-3.551 -2.089,-5.326 -6.268,-5.326" /></g><g
           transform="translate(487.2838,255.5399)"
           id="g52"><path
             id="path54"
             style="fill:#fff;fill-opacity:1;fill-rule:nonzero;stroke:none"
             d="m 0,0 h -4.547 c -2.705,0 -4.056,0.767 -4.056,2.299 v 0.484 c 0.08,1.453 0.614,2.705 1.597,3.752 1.884,2.261 4.097,4.036 6.638,5.326 5.242,2.339 8.358,6.212 9.341,11.619 0.08,0.403 0.245,0.848 0.491,1.331 0.247,0.485 0.43,1.109 0.553,1.877 0.123,0.766 0.185,1.592 0.185,2.481 0,2.662 -1.066,5.084 -3.196,7.262 -2.212,2.5 -4.712,4.639 -7.497,6.415 -3.442,1.855 -5.697,4.518 -6.761,7.988 -1.065,2.823 -1.598,5.728 -1.598,8.715 0.081,2.015 0.45,4.073 1.107,6.172 l 0.491,1.816 c 2.047,7.262 6.309,12.95 12.783,17.065 0.737,0.485 1.555,0.887 2.459,1.211 1.966,0.403 3.645,1.371 5.039,2.905 0.409,0.484 0.941,0.726 1.597,0.726 l 0.861,-0.121 c 2.95,-0.405 5.94,-0.969 8.973,-1.695 0.654,-0.162 1.229,-0.545 1.721,-1.149 0.491,-0.606 0.737,-1.231 0.737,-1.877 0,-2.017 -0.984,-3.309 -2.95,-3.872 -4.344,-0.566 -7.54,-2.784 -9.587,-6.658 C 11.265,68.263 9.136,62.17 7.99,55.796 7.661,54.182 7.497,53.213 7.497,52.892 c 0,-2.261 1.23,-4.116 3.688,-5.568 3.768,-2.342 6.595,-5.407 8.481,-9.199 1.556,-2.42 2.336,-5.124 2.336,-8.109 0,-3.067 -1.312,-8.272 -3.934,-15.613 l -0.86,-2.421 C 16.388,9.561 14.913,7.625 12.783,6.173 L 11.676,5.446 C 8.153,2.865 5.285,1.17 3.073,0.363 2.335,0.121 1.31,0 0,0" /></g><g
           transform="translate(544.8047,250.8193)"
           id="g56"><path
             id="path58"
             style="fill:#fff;fill-opacity:1;fill-rule:nonzero;stroke:none"
             d="m 0,0 c -3.032,1.292 -5.162,3.147 -6.391,5.567 -1.887,3.39 -2.827,7.142 -2.827,11.257 l -0.614,26.99 c 0,4.358 0.122,8.594 0.368,12.709 l 0.123,4.115 c 0,2.178 -0.043,4.316 -0.123,6.414 -0.082,0.969 -0.123,2.543 -0.123,4.721 0,3.711 0.573,7.423 1.721,11.135 0.326,1.129 0.491,2.016 0.491,2.663 0,0.887 -0.41,1.331 -1.229,1.331 -0.903,0 -1.926,-0.121 -3.072,-0.362 -2.87,-0.648 -5.285,-0.969 -7.252,-0.969 -2.87,0 -5.04,0.806 -6.515,2.421 -0.328,0.321 -0.491,0.644 -0.491,0.968 0,0.242 0.163,0.524 0.491,0.847 0.901,1.21 2.13,1.855 3.688,1.937 4.833,0.805 9.668,1.734 14.503,2.784 12.372,2.823 22.451,4.236 30.237,4.236 2.458,0 3.932,-0.082 4.425,-0.242 0.818,-0.324 1.229,-1.05 1.229,-2.179 0,-0.726 -0.289,-1.252 -0.861,-1.573 -0.574,-0.324 -1.149,-0.647 -1.72,-0.969 C 24.909,92.912 23.557,92.349 22.002,92.107 18.886,91.784 15.814,91.339 12.783,90.776 10.406,90.534 9.013,90.231 8.604,89.868 8.193,89.505 7.947,88.918 7.867,88.113 7.456,82.625 7.252,77.138 7.252,71.652 7.252,68.101 7.375,64.551 7.621,61.001 8.112,54.868 8.358,48.656 8.358,42.362 8.358,41.394 8.521,39.294 8.85,36.068 9.176,29.854 9.341,23.641 9.341,17.429 9.176,14.282 8.727,11.135 7.989,7.988 7.415,5.246 5.858,3.228 3.318,1.937 2.253,1.373 1.147,0.726 0,0" /></g><g
           transform="translate(599.131,267.0378)"
           id="g60"><path
             id="path62"
             style="fill:#fff;fill-opacity:1;fill-rule:nonzero;stroke:none"
             d="M 0,0 C -0.82,0 -1.558,0.403 -2.212,1.21 -2.378,1.452 -2.541,1.613 -2.704,1.695 -5.9,3.389 -7.497,5.849 -7.497,9.078 l 0.122,1.815 c 0,0.242 -0.165,0.524 -0.492,0.848 -1.885,-1.858 -3.686,-3.329 -5.408,-4.418 -1.721,-1.089 -3.729,-1.998 -6.022,-2.723 -1.721,-0.566 -3.361,-0.848 -4.917,-0.848 -3.607,0 -6.699,1.23 -9.279,3.692 -2.582,2.46 -3.873,5.547 -3.873,9.259 0.41,12.104 2.007,24.892 4.794,38.368 l 0.123,1.089 c 0.409,1.452 0.716,2.702 0.922,3.752 0.203,1.048 0.431,1.815 0.676,2.3 0.246,0.484 0.594,0.786 1.044,0.907 0.45,0.121 1.209,0.201 2.275,0.242 1.063,0.04 2.539,0.14 4.424,0.303 l 1.598,0.121 2.705,-0.121 1.106,-0.121 c 1.555,0 2.376,-0.687 2.458,-2.058 0.08,-0.807 0.123,-1.654 0.123,-2.542 l -0.123,-1.694 c -1.886,-10.814 -3.155,-21.706 -3.811,-32.679 -0.082,-1.131 -0.267,-2.2 -0.553,-3.207 -0.288,-1.01 -0.43,-2.04 -0.43,-3.087 0,-0.565 0.019,-1.11 0.062,-1.634 0.04,-0.525 0.062,-0.989 0.062,-1.392 0,-0.404 0.08,-0.786 0.245,-1.15 0.164,-0.363 0.449,-0.586 0.861,-0.666 0.571,0 1.063,0.201 1.474,0.606 1.885,1.855 3.4,3.994 4.548,6.414 3.196,7.342 5.489,13.92 6.883,19.729 0.163,1.211 0.492,2.34 0.983,3.389 2.213,5.405 3.565,10.893 4.056,16.461 0.164,1.371 0.861,2.682 2.09,3.934 1.229,1.25 2.498,1.955 3.81,2.118 l 4.302,0.363 c 0.818,0 1.393,-0.142 1.721,-0.424 0.326,-0.284 0.491,-0.828 0.491,-1.634 0,-0.889 -0.165,-2.22 -0.491,-3.994 C 10.57,57.008 10.202,53.618 9.956,50.229 9.627,45.871 9.096,41.515 8.358,37.158 8.029,34.575 7.824,31.992 7.744,29.411 7.744,28.201 7.456,22.149 6.883,11.256 6.472,7.383 4.874,4.073 2.089,1.331 1.352,0.443 0.655,0 0,0" /></g><g
           transform="translate(634.4055,267.6433)"
           id="g64"><path
             id="path66"
             style="fill:#fff;fill-opacity:1;fill-rule:nonzero;stroke:none"
             d="m 0,0 3.073,2.058 5.285,3.751 0.738,0.605 c 1.474,0.969 2.806,2.098 3.994,3.389 1.187,1.29 1.906,2.945 2.151,4.963 0,0.161 0.203,0.442 0.615,0.847 3.196,6.131 5.243,12.667 6.146,19.608 0.162,2.258 0.245,4.518 0.245,6.777 0,3.711 -0.205,7.423 -0.615,11.135 -0.656,7.826 -2.991,12.749 -7.006,14.767 -2.868,1.289 -5.859,2.016 -8.972,2.178 L 3.441,70.32 c -0.656,0 -1.025,-0.404 -1.106,-1.21 v -0.726 l 0.123,-1.937 c 0.41,-3.47 0.615,-6.94 0.615,-10.409 0,-2.017 -0.082,-4.036 -0.246,-6.051 L 2.704,47.445 c 0,-1.292 0.04,-2.563 0.123,-3.813 C 2.908,42.38 2.95,41.11 2.95,39.82 2.95,37.72 2.704,35.663 2.212,33.647 1.967,27.756 1.515,21.907 0.861,16.098 L 0,7.262 Z m -7.375,-11.862 c -0.983,0 -2.009,0.163 -3.072,0.484 l -0.615,0.121 c -2.049,0.485 -3.647,1.434 -4.793,2.845 -1.149,1.413 -1.721,3.007 -1.721,4.781 0,1.452 0.449,2.905 1.351,4.357 0.656,0.968 0.984,2.057 0.984,3.268 v 0.605 c -0.165,1.371 -0.246,2.702 -0.246,3.994 0,0.968 0.081,1.895 0.246,2.784 0.409,2.5 0.615,5.002 0.615,7.504 0,1.694 -0.083,3.428 -0.246,5.204 l -0.124,2.784 c 0,2.905 0.247,5.768 0.738,8.594 l 0.492,4.478 c 0.572,6.293 1.27,12.546 2.09,18.76 0.654,4.679 1.063,7.362 1.229,8.049 0.163,0.684 0.245,1.35 0.245,1.997 0,0.726 -0.165,1.452 -0.491,2.179 -0.165,0.322 -0.246,0.684 -0.246,1.089 0,0.887 0.348,1.734 1.045,2.542 0.695,0.806 1.536,1.21 2.519,1.21 2.622,0 5.203,0.221 7.743,0.666 2.54,0.443 5.203,0.665 7.99,0.665 9.588,-0.404 16.388,-2.178 20.403,-5.325 2.785,-2.099 4.588,-4.841 5.408,-8.23 C 35.89,55.07 36.751,47.324 36.751,40.304 36.669,36.995 36.505,33.847 36.259,30.863 35.602,23.843 33.555,17.266 30.113,11.135 27.573,5.97 24.008,1.573 19.42,-2.058 L 18.929,-2.421 C 18.108,-3.066 17.249,-3.65 16.347,-4.176 15.444,-4.7 14.421,-4.962 13.275,-4.962 h -0.492 c -0.737,0 -1.434,-0.201 -2.089,-0.606 C 8.398,-6.857 5.941,-7.826 3.318,-8.473 l -5.039,-1.452 c -1.066,-0.242 -2.028,-0.625 -2.888,-1.15 -0.861,-0.524 -1.782,-0.787 -2.766,-0.787" /></g><g
           transform="translate(689.3457,335.4223)"
           id="g68"><path
             id="path70"
             style="fill:#fff;fill-opacity:1;fill-rule:nonzero;stroke:none"
             d="m 0,0 c -0.737,0 -1.394,0.282 -1.966,0.847 -1.066,0.969 -1.598,2.097 -1.598,3.389 0,0.484 0.08,0.927 0.246,1.331 0.737,1.856 1.884,2.784 3.442,2.784 H 4.303 V 8.593 C 6.841,8.593 8.235,8.552 8.482,8.472 9.218,8.309 9.588,7.906 9.588,7.262 9.588,6.454 9.136,5.567 8.235,4.599 6.023,2.581 3.442,1.089 0.492,0.121 Z m -4.302,-78.914 c -1.557,0 -3.115,0.726 -4.67,2.178 -2.132,2.1 -3.195,4.681 -3.195,7.746 v 3.631 c 0,4.76 0.325,9.521 0.983,14.282 0.326,2.742 0.532,5.447 0.614,8.11 0.163,5.163 0.983,11.256 2.459,18.276 l 1.229,6.294 c 0.491,2.904 2.169,4.357 5.039,4.357 0.9,0 1.432,-0.042 1.597,-0.121 1.802,-0.163 2.991,-0.485 3.565,-0.968 0.573,-0.485 0.861,-1.413 0.861,-2.784 v -1.695 C 3.851,-24.046 3.645,-28.565 3.565,-33.163 l -0.123,-3.995 -0.738,-7.746 0.123,-3.873 c 0,-3.067 -0.123,-6.194 -0.368,-9.38 -0.246,-3.188 -0.37,-6.436 -0.37,-9.744 v -2.783 c 0,-1.453 -0.288,-2.784 -0.859,-3.994 -1.312,-2.824 -3.156,-4.236 -5.532,-4.236" /></g><g
           transform="translate(719.9501,275.3889)"
           id="g72"><path
             id="path74"
             style="fill:#fff;fill-opacity:1;fill-rule:nonzero;stroke:none"
             d="M 0,0 C 0.818,0 1.556,0.322 2.212,0.968 4.424,3.71 5.531,6.334 5.531,8.836 L 5.162,21.181 c 0,3.873 0.123,7.746 0.369,11.62 v 3.026 c 0,2.257 -0.205,4.557 -0.614,6.899 L 4.67,45.025 c -0.165,1.855 -0.983,3.348 -2.458,4.478 -0.574,0.484 -1.148,0.726 -1.721,0.726 -0.328,0 -0.738,-0.162 -1.229,-0.483 -2.212,-1.858 -4.467,-3.632 -6.76,-5.327 -0.82,-0.725 -1.434,-1.572 -1.843,-2.541 -1.721,-3.389 -2.582,-7.062 -2.582,-11.014 0,-4.922 0.818,-11.661 2.458,-20.213 0.327,-1.936 0.861,-3.833 1.598,-5.689 L -7.498,4.115 C -7.252,3.39 -6.761,2.845 -6.023,2.481 -5.285,2.118 -4.508,1.774 -3.688,1.453 -1.803,0.485 -0.574,0 0,0 m -5.285,-8.714 c -0.821,0.081 -1.518,0.363 -2.09,0.847 -3.196,2.421 -5.654,5.447 -7.375,9.077 -0.902,3.227 -1.558,6.536 -1.967,9.925 l -1.597,8.836 c -0.738,3.308 -1.106,6.615 -1.106,9.925 0,1.613 0.082,3.226 0.245,4.841 0.573,5.97 3.319,10.731 8.235,14.282 1.393,0.968 2.723,1.895 3.995,2.784 1.269,0.887 2.355,2.016 3.257,3.389 1.229,2.178 2.744,3.268 4.549,3.268 1.063,0 2.335,-0.284 3.809,-0.848 4.26,-1.615 7.785,-4.236 10.571,-7.866 1.475,-2.019 2.212,-4.318 2.212,-6.899 0.081,-1.132 0.246,-2.221 0.492,-3.268 0.327,-1.616 0.492,-3.229 0.492,-4.842 l -0.123,-1.453 c -0.083,-1.131 -0.124,-2.38 -0.124,-3.751 0,-1.777 -0.122,-3.269 -0.368,-4.479 l 0.123,-10.288 c 0,-2.099 -0.184,-4.196 -0.553,-6.293 C 17.023,6.374 16.839,4.236 16.839,2.058 16.839,0.364 16.366,-1.131 15.425,-2.42 14.482,-3.712 13.437,-4.922 12.291,-6.052 11.963,-6.456 11.185,-6.819 9.955,-7.141 6.514,-7.867 3.605,-8.23 1.229,-8.23 l -2.212,0.121 c -0.82,0 -1.579,-0.102 -2.275,-0.303 -0.697,-0.2 -1.372,-0.302 -2.027,-0.302" /> </svg>